<svg xmlns="http://www.w3.org/2000/svg" xmlns:xlink="http://www.w3.org/1999/xlink" width="80" height="80" viewBox="0 0 80 80">
  <defs>
    <filter id="사각형_239" x="0" y="0" width="80" height="80" filterUnits="userSpaceOnUse">
      <feOffset dx="4" dy="4" input="SourceAlpha"/>
      <feGaussianBlur result="blur"/>
      <feFlood/>
      <feComposite operator="in" in2="blur"/>
      <feComposite in="SourceGraphic"/>
    </filter>
  </defs>
  <g id="그룹_112767" data-name="그룹 112767" transform="translate(-8218.498 9249.316)">
    <g transform="matrix(1, 0, 0, 1, 8218.5, -9249.32)" filter="url(#사각형_239)">
      <g id="사각형_239-2" data-name="사각형 239" fill="#fff" stroke="#000" stroke-width="4">
        <rect width="76" height="76" rx="38" stroke="none"/>
        <rect x="2" y="2" width="72" height="72" rx="36" fill="none"/>
      </g>
    </g>
    <path id="패스_9313" data-name="패스 9313" d="M1469.12,326.2l9.386,9.387,18.774-18.773" transform="translate(6773.392 -9537.614)" fill="none" stroke="#000" stroke-linecap="round" stroke-linejoin="round" stroke-miterlimit="10" stroke-width="6"/>
    <g id="그룹_792" data-name="그룹 792" transform="matrix(0.454, 0.891, -0.891, 0.454, 8282.189, -9202.194)">
      <g id="그룹_94" data-name="그룹 94" transform="translate(4.414 11.746)">
        <path id="패스_225" data-name="패스 225" d="M1.68.139Q4.719,1.679,7.732,3.26a1.128,1.128,0,0,1,.4,1.531,1.145,1.145,0,0,1-1.528.4Q3.591,3.607.552,2.07A1.125,1.125,0,0,1,.152.542,1.146,1.146,0,0,1,1.68.139Z" transform="translate(0 0)"/>
      </g>
      <g id="그룹_95" data-name="그룹 95" transform="translate(2.206 5.872)">
        <path id="패스_226" data-name="패스 226" d="M1.68.14Q4.719,1.68,7.732,3.262a1.122,1.122,0,0,1,.4,1.528,1.143,1.143,0,0,1-1.528.4Q3.591,3.608.554,2.071A1.123,1.123,0,0,1,.152.543,1.144,1.144,0,0,1,1.68.14Z" transform="translate(0 0)"/>
      </g>
      <g id="그룹_96" data-name="그룹 96" transform="translate(0 0)">
        <path id="패스_227" data-name="패스 227" d="M1.68.139Q4.715,1.679,7.729,3.26a1.126,1.126,0,0,1,.4,1.528,1.147,1.147,0,0,1-1.531.4Q3.588,3.607.552,2.07A1.125,1.125,0,0,1,.152.542,1.146,1.146,0,0,1,1.68.139Z"/>
      </g>
    </g>
  </g>
</svg>
