<svg id="그룹_364" data-name="그룹 364" xmlns="http://www.w3.org/2000/svg" width="200" height="165.872" viewBox="0 0 200 165.872">
  <path id="패스_1050" data-name="패스 1050" d="M237.72,220.428c-6.416-1.043-12.878-1.789-19.356-2.334q-4.815-.4-9.647-.635a23.2,23.2,0,0,0-8.488.677,16.668,16.668,0,0,0-10.486,10.277A16.181,16.181,0,0,0,191.8,242.5a15.983,15.983,0,0,0,5.9,5.255,62.448,62.448,0,0,0,8.625,3.168,16.291,16.291,0,0,1,6.849,3.882A14.528,14.528,0,0,1,216.1,260.9a28.044,28.044,0,0,0,2.522,6.789,11.446,11.446,0,0,0,5.584,4.747,11.873,11.873,0,0,0,7.123.549,12.068,12.068,0,0,0,6.483-4.3,25.3,25.3,0,0,0,3.741-6.96c1.145-2.944,2.146-5.947,3.124-8.949q1.509-4.634,2.825-9.327a72.519,72.519,0,0,0,2.107-9.213,29.228,29.228,0,0,0,.306-4.29,6.312,6.312,0,0,0-3.639-6.979A25.2,25.2,0,0,0,237.72,220.428Z" transform="translate(-188.955 -172.741)" fill="#ed2831"/>
  <path id="패스_1051" data-name="패스 1051" d="M224.419,244.994c10.328,2.047,21.382,4.286,31.643.7,4.341-1.516,9.2-4.274,10.212-9.174,1.006-4.854-1.62-9.206-5.324-12.118-3.331-2.617-7.744-4.823-7.707-9.691.014-2.123.753-4.177,1.062-6.265a7.909,7.909,0,0,0-1.458-6.291,11.7,11.7,0,0,0-6.233-3.56,17.407,17.407,0,0,0-7.074-.227,20.63,20.63,0,0,0-12.053,7.164,36.707,36.707,0,0,0-7.118,14.185,108.19,108.19,0,0,0-3.189,16.79c-.155,1.4-.211,2.807-.338,4.207C216.689,242.4,219.735,244.066,224.419,244.994Z" transform="translate(-152.211 -198.116)" fill="#ed2831"/>
  <path id="패스_1052" data-name="패스 1052" d="M224.811,214.239c7.651-1.335,13.775,11.133,7.911,16.348a35.9,35.9,0,0,1-9.7,5.651c-4.571,1.905-7.6.019-10.247-3.746-2.218-3.152-3.562-6.928-1.252-10.463C213.947,218.324,220.873,214.926,224.811,214.239Z" transform="translate(-160.801 -177)" fill="#ed2831"/>
  <path id="패스_1053" data-name="패스 1053" d="M301.805,242.47a45.458,45.458,0,0,1-5.243-1.391q2.364-4.349,4.7-8.708c.415-.774-.406-2.019-1.3-1.407a70.553,70.553,0,0,1-29.782,11.647,68.146,68.146,0,0,1-7.677.656.885.885,0,0,0-.939-.292,20.9,20.9,0,0,0-6.624,3.15c-.851.6-.067,1.618.716,1.69a1.16,1.16,0,0,0,.332.218,47.722,47.722,0,0,0,18.206,3.611,60.645,60.645,0,0,0,18.4-3.194,45.189,45.189,0,0,0,9.38-4.16C302.642,243.891,302.707,242.651,301.805,242.47Z" transform="translate(-102.479 -155.044)" fill="#ed2831"/>
  <path id="패스_1054" data-name="패스 1054" d="M285.393,280.606a31.446,31.446,0,0,1-4.763-2.934c1.81-1.84,3.65-3.648,5.549-5.4.883-.814-.141-1.986-1.133-1.6-5.106,1.979-11.086.8-16.292-.153-5.586-1.02-11.325-2.791-15.251-7.1a.792.792,0,0,0-.264-.475,1.373,1.373,0,0,1-.178-.169.917.917,0,0,0-.853-.294l-10.782-3.407a.95.95,0,0,0-1.242.839,1.055,1.055,0,0,0-.028.278,16.716,16.716,0,0,0,3.586,9.121,32.061,32.061,0,0,0,7.871,7.88,41.89,41.89,0,0,0,21.027,6.495,43.223,43.223,0,0,0,12.449-1.282C285.843,282.214,286.191,281,285.393,280.606Z" transform="translate(-121.484 -117.853)" fill="#ed2831"/>
  <path id="패스_1055" data-name="패스 1055" d="M277.99,262.015c-.677-4.422-4.67-6.768-8.685-7.832-7.688-2.037-14.776.642-20.367,5.565-1.486-2.665-2.642-5.537-4.316-8.024-1.62-2.408-5.194-1.59-7.85-1.4a1.966,1.966,0,0,0-2.559,2.29l0,.014a1.992,1.992,0,0,0,.225.814,36.306,36.306,0,0,0,16.072,21.227c7.394,4.4,17.2,4.877,23.329-1.928C276.384,269.921,278.59,265.939,277.99,262.015ZM252.248,264.2a17.9,17.9,0,0,1,8.11-1.966c3.6.1,7.148,2.153,7.218,5.887a22.782,22.782,0,0,1-5.315.144A16.284,16.284,0,0,1,252.248,264.2Z" transform="translate(-129.399 -129.694)" fill="#ed2831"/>
  <path id="패스_1056" data-name="패스 1056" d="M269.685,245.051a22.321,22.321,0,0,0-13.819,3.273,29.465,29.465,0,0,0-7.721,7.811c-4.543-.67-9.561-1.84-13.483-4.286-3.882-2.417-7.062-6.235-9.892-9.8-1.031-2.037-4.559-1.147-3.732,1.159A35.248,35.248,0,0,0,242.386,264.6a44.048,44.048,0,0,0,17.24,2.513c4.909-.229,10.463-.779,14.725-3.433C283.1,258.232,279.612,246.015,269.685,245.051ZM254.17,256.693c3.931-4.209,9.862-4.738,15.1-2.851C264.92,256.248,259.329,256.874,254.17,256.693Z" transform="translate(-146.838 -141.714)" fill="#ed2831"/>
  <path id="패스_1057" data-name="패스 1057" d="M253.543,255.177c-8.439-2.54-17.441,1.743-23.322,7.86a42.25,42.25,0,0,1-5.762-11.346c-3.015-8.727-3.838-17.451-4.721-26.588a2.045,2.045,0,0,0-.531-1.212c-.028-.236-.053-.475-.081-.709-.3-2.522-4.154-1.6-3.852.909,2.211,18.459,1.238,43.174,21.5,52.223,7.22,3.224,17.043,2.918,22.958-2.895C265.952,267.307,260.9,257.393,253.543,255.177Zm-6.337,6.858a13.32,13.32,0,0,1,4.849-.007,1.75,1.75,0,0,0-.046.368c-2.42,6.365-10.583,8.212-16.517,5.317A28.364,28.364,0,0,1,247.206,262.036Z" transform="translate(-154.293 -167.052)" fill="#ed2831"/>
  <path id="패스_1058" data-name="패스 1058" d="M301.249,237.65c-.946-1.685-2.7-2.965-4.172-4.161-2.158-1.757-4.807-4.218-7.6-4.847-4.274-.96-8.8,3.09-10.386,6.712a8.914,8.914,0,0,0,.366,8.119c-4.188,2.557-8.527,4.031-13.654,3.572-5.54-.494-10.81-2.754-15.923-4.8a71.175,71.175,0,0,1-6.856-3.078,32.54,32.54,0,0,1-4.823-3.908,1.882,1.882,0,0,0-1.692-.556c-.183-.165-.364-.329-.542-.5-1.826-1.766-4.747.909-2.911,2.679a35.6,35.6,0,0,0,8.275,5.836,59.618,59.618,0,0,0,7.8,4.135,87.354,87.354,0,0,0,18.167,6.258c9.823,1.993,20.554,1.187,28.822-4.981C299.286,245.772,303.646,241.924,301.249,237.65Z" transform="translate(-131.614 -158.075)" fill="#ed2831"/>
  <path id="패스_1059" data-name="패스 1059" d="M286.032,237.8c.378-8.993-11.647-11.712-18.475-10.674-9.535,1.451-17.69,6.513-21.426,15.291a38.4,38.4,0,0,1-15.339-10.637c-3.233-3.766-6.149-7.837-9.019-11.835-1.486-2.068-4.381.637-2.913,2.682C225,231.187,231.4,239.9,240.4,245.666c8.122,5.2,18.772,7.343,28.354,6.446C276.364,251.4,285.666,246.494,286.032,237.8Zm-20.234-.9a13.242,13.242,0,0,1,12.122,1.588c-2.513,3.022-7.681,6.323-19.059,6.247-.867,0-1.715-.042-2.545-.1a23.4,23.4,0,0,1,3.664-4.156A16.93,16.93,0,0,1,265.8,236.9Z" transform="translate(-150.077 -170.319)" fill="#ed2831"/>
  <path id="패스_1060" data-name="패스 1060" d="M239.424,231.389a1.006,1.006,0,0,0-.96-1.018,30.881,30.881,0,0,1-6.481-1.275.988.988,0,1,0-.582,1.889,33.4,33.4,0,0,0,7.007,1.363A1,1,0,0,0,239.424,231.389Z" transform="translate(-133.934 -157.346)" fill="#7e1f17"/>
  <path id="패스_1061" data-name="패스 1061" d="M248.235,224.329a1.008,1.008,0,0,0-1.235.656c-.158.45-.331.892-.526,1.328l-.028.067-.032.063c-.058.121-.118.243-.179.366-.1.2-.206.392-.315.584a16.054,16.054,0,0,1-1.583,2.311.992.992,0,0,0,.3,1.367,1.017,1.017,0,0,0,1.365-.3,17.03,17.03,0,0,0,2.886-5.2A1,1,0,0,0,248.235,224.329Z" transform="translate(-116.186 -163.621)" fill="#7e1f17"/>
  <path id="패스_1062" data-name="패스 1062" d="M263.706,230.108a1.027,1.027,0,0,0-1.191-.737,1,1,0,0,0-.735,1.191c.839,2.306-.3,4.559-1.917,6.212a18.62,18.62,0,0,1-6.237,4c-1.173.5-.239,2.244.927,1.748a19.217,19.217,0,0,0,7.134-4.814C263.486,235.646,264.7,232.825,263.706,230.108Z" transform="translate(-104.442 -156.961)" fill="#7e1f17"/>
  <path id="패스_1063" data-name="패스 1063" d="M265.246,236.436a1.009,1.009,0,0,0-1.4-.056c-.44.392-.895.767-1.365,1.122-.118.088-.237.174-.355.26l-.081.058c-.063.044-.128.088-.192.13q-.365.247-.744.48a20.5,20.5,0,0,1-3.2,1.592.991.991,0,0,0-.41,1.337,1.018,1.018,0,0,0,1.337.41,21.18,21.18,0,0,0,6.353-3.933A1,1,0,0,0,265.246,236.436Z" transform="translate(-98.777 -148.028)" fill="#7e1f17"/>
  <path id="패스_1064" data-name="패스 1064" d="M226.044,241.964a11.624,11.624,0,0,1-1.669-1.136,12.012,12.012,0,0,1-.918-.867A.989.989,0,0,0,222,241.3a12.373,12.373,0,0,0,2.981,2.332.989.989,0,1,0,1.062-1.669Z" transform="translate(-145.741 -143.387)" fill="#7e1f17"/>
  <path id="패스_1065" data-name="패스 1065" d="M233.7,237.382a.989.989,0,1,0-1.977-.056q.01.494-.021.987c-.011.176-.03.355-.051.531-.007.077-.019.151-.028.227,0,.021-.032.2-.035.211l-.023.127c-.014.074-.03.148-.046.223q-.052.243-.118.48c-.088.331-.195.656-.313.978a1,1,0,0,0,.656,1.235,1.01,1.01,0,0,0,1.235-.654A11.671,11.671,0,0,0,233.7,237.382Z" transform="translate(-133.496 -147.713)" fill="#7e1f17"/>
  <path id="패스_1066" data-name="패스 1066" d="M231.871,247.418a26.839,26.839,0,0,1-7.709-3.083c-1.094-.651-2.158,1.018-1.062,1.671a28.654,28.654,0,0,0,8.191,3.3,1.012,1.012,0,0,0,1.235-.656A1,1,0,0,0,231.871,247.418Z" transform="translate(-144.565 -137.403)" fill="#7e1f17"/>
  <path id="패스_1067" data-name="패스 1067" d="M237.715,248.31a1,1,0,0,0-.959-1.018c-.927,0-1.852,0-2.779-.009a1.033,1.033,0,0,0-.7.262,1.019,1.019,0,0,0-.32.7,1.008,1.008,0,0,0,.962,1.018l2.777.007a1.032,1.032,0,0,0,.7-.26A1.006,1.006,0,0,0,237.715,248.31Z" transform="translate(-130.965 -133.323)" fill="#7e1f17"/>
  <path id="패스_1068" data-name="패스 1068" d="M246.708,244.853a.989.989,0,0,0-1.891-.579,19.778,19.778,0,0,1-.793,2.445l-.028.072-.035.067c-.042.086-.083.174-.13.26-.083.155-.172.311-.264.461s-.211.322-.327.477c-.016.023-.109.134-.132.167s-.121.132-.139.151c-.088.093-.183.178-.278.264a.909.909,0,0,0-.234.169,1.034,1.034,0,0,0-.232.371.913.913,0,0,0-.1.431,1.153,1.153,0,0,0,1.423,1.08,1.053,1.053,0,0,0,.8-.895A11.022,11.022,0,0,0,246.708,244.853Z" transform="translate(-118.891 -138.199)" fill="#7e1f17"/>
  <path id="패스_1069" data-name="패스 1069" d="M244.779,252.736a1,1,0,0,0-.962-1.018q-3.984.254-7.978.137a.991.991,0,0,0-.056,1.979q3.988.115,7.978-.139A1.017,1.017,0,0,0,244.779,252.736Z" transform="translate(-128.466 -127.481)" fill="#7e1f17"/>
  <path id="패스_1070" data-name="패스 1070" d="M243.86,257.118a1.012,1.012,0,0,0-.262-.7,22.272,22.272,0,0,1-1.53-1.743,1,1,0,0,0-.7-.32.992.992,0,0,0-1.02.962,1.107,1.107,0,0,0,.262.7,21.457,21.457,0,0,0,1.53,1.745,1.041,1.041,0,0,0,.7.318.988.988,0,0,0,1.018-.96Z" transform="translate(-121.224 -124.004)" fill="#7e1f17"/>
  <path id="패스_1071" data-name="패스 1071" d="M257.066,256.681a1.009,1.009,0,0,0-1.4-.058c-.2.183-.41.355-.626.519l-.044.033-.118.081c-.111.074-.227.146-.343.216-.232.137-.473.264-.716.378-.123.058-.248.111-.373.162l-.049.021-.178.063a29.084,29.084,0,0,1-3.648.8.99.99,0,1,0,.454,1.926,26.374,26.374,0,0,0,3.817-.86,9.458,9.458,0,0,0,3.164-1.882A1,1,0,0,0,257.066,256.681Z" transform="translate(-110.083 -121.349)" fill="#7e1f17"/>
  <path id="패스_1072" data-name="패스 1072" d="M252.97,263.493a11.063,11.063,0,0,1-5.391-.64c-.95-.322-1.875-.709-2.793-1.108a7.618,7.618,0,0,1-2.239-1.212c-.927-.865-2.387.471-1.456,1.34a9,9,0,0,0,2.689,1.578c1.059.464,2.123.923,3.217,1.293a13.112,13.112,0,0,0,6.425.674C254.678,265.206,254.221,263.28,252.97,263.493Z" transform="translate(-120.643 -116.231)" fill="#7e1f17"/>
  <path id="패스_1073" data-name="패스 1073" d="M233.628,221.256a15.222,15.222,0,0,1-5.456,4.967,23.618,23.618,0,0,1-6.949,2.99,6.753,6.753,0,0,1-6.743-2.35,13.622,13.622,0,0,1-2.652-7.065c-.176-1.259-2.1-.8-1.926.454.612,4.4,2.575,9.264,7.188,10.741a10.322,10.322,0,0,0,6.664-.461,32.749,32.749,0,0,0,6.036-2.978,16.7,16.7,0,0,0,5.509-5.236A.991.991,0,0,0,233.628,221.256Z" transform="translate(-161.363 -170.526)" fill="#7e1f17"/>
  <path id="패스_1074" data-name="패스 1074" d="M225.428,222.408a14.484,14.484,0,0,0-6.054-8.242.991.991,0,0,0-1.062,1.671,12.413,12.413,0,0,1,5.19,7.025.989.989,0,1,0,1.926-.454Z" transform="translate(-150.854 -177.181)" fill="#7e1f17"/>
  <path id="패스_1075" data-name="패스 1075" d="M221.051,220.627a45.769,45.769,0,0,0-18.232,2.23c-1.2.4-.756,2.334.454,1.926a44.245,44.245,0,0,1,17.72-2.176C222.263,222.708,222.319,220.731,221.051,220.627Z" transform="translate(-171.614 -168.646)" fill="#7e1f17"/>
  <path id="패스_1076" data-name="패스 1076" d="M216.557,223a73.791,73.791,0,0,0-9.825,17.866c-.454,1.191,1.439,1.766,1.891.582a71.8,71.8,0,0,1,9.605-17.386C218.991,223.046,217.315,221.989,216.557,223Z" transform="translate(-165.62 -165.861)" fill="#7e1f17"/>
  <path id="패스_1077" data-name="패스 1077" d="M228.064,210.493a55.948,55.948,0,0,0-8.819,10.011c-.723,1.052.948,2.109,1.669,1.064a53.65,53.65,0,0,1,8.49-9.619C230.357,211.1,229.012,209.647,228.064,210.493Z" transform="translate(-149.272 -182.142)" fill="#7e1f17"/>
  <path id="패스_1078" data-name="패스 1078" d="M239.034,213.158a84.842,84.842,0,0,0-10.194,2.652q-2.42.793-4.793,1.729a7.918,7.918,0,0,0-3.771,2.519c-.753,1.031.923,2.086,1.669,1.062.814-1.113,2.33-1.567,3.56-2.04q2.274-.876,4.6-1.609a85.381,85.381,0,0,1,9.38-2.387C240.736,214.841,240.284,212.913,239.034,213.158Z" transform="translate(-147.929 -178.322)" fill="#7e1f17"/>
  <path id="패스_1079" data-name="패스 1079" d="M260.029,215.808c.294-1.233-1.595-1.822-1.891-.582-1.215,5.067-6.084,7.709-10.8,8.815a44.855,44.855,0,0,1-15.277.508c-2.96-.334-5.9-.837-8.826-1.377-1.238-.227-1.833,1.662-.582,1.891a86.456,86.456,0,0,0,16.746,1.87c5.278-.07,11.1-.881,15.518-3.975A12.434,12.434,0,0,0,260.029,215.808Z" transform="translate(-145.458 -176.473)" fill="#7e1f17"/>
  <path id="패스_1080" data-name="패스 1080" d="M224.27,235.085a87.478,87.478,0,0,0,1.537-10.4c.111-1.268-1.868-1.324-1.977-.056a83.688,83.688,0,0,1-3.34,17.212A64.139,64.139,0,0,1,213.9,257.2a18.617,18.617,0,0,1-5.695,6.015c-1.073.674-.155,2.427.927,1.748,4.555-2.863,7.225-7.593,9.394-12.368A84.156,84.156,0,0,0,224.27,235.085Z" transform="translate(-164.21 -164.399)" fill="#7e1f17"/>
</svg>
