<svg id="그룹_412" data-name="그룹 412" xmlns="http://www.w3.org/2000/svg" width="153.605" height="200" viewBox="0 0 153.605 200">
  <g id="그룹_366" data-name="그룹 366" transform="translate(9.808 16.072)">
    <path id="패스_1081" data-name="패스 1081" d="M552.1,248.614a182.1,182.1,0,0,1-9.884-20.415.424.424,0,0,0-.783.325,182.162,182.162,0,0,0,9.884,20.415c.265.468,1.052.15.783-.325Z" transform="translate(-508.675 -187.36)" fill="#87180e"/>
    <ellipse id="타원_25" data-name="타원 25" cx="18.434" cy="18.434" rx="18.434" ry="18.434" transform="translate(0 27.133) rotate(-47.386)" fill="#007cc2"/>
    <path id="패스_1082" data-name="패스 1082" d="M533.655,219.365a1.355,1.355,0,0,0-2.047-1.777c-2.352,2.936-1.833,6.841-.288,10.018a1.4,1.4,0,0,0,1.73.827,1.363,1.363,0,0,0,.827-1.73,10.263,10.263,0,0,1-1.2-4.189A4.914,4.914,0,0,1,533.655,219.365Z" transform="translate(-517.941 -196.156)" fill="#fffae8"/>
    <path id="패스_1083" data-name="패스 1083" d="M533.138,223.8a1.356,1.356,0,0,0,.19,2.7A1.356,1.356,0,0,0,533.138,223.8Z" transform="translate(-516.378 -190.738)" fill="#fffae8"/>
    <g id="그룹_365" data-name="그룹 365" transform="translate(31.524 38.19)">
      <path id="패스_1084" data-name="패스 1084" d="M546.345,233.269c-.248-.33-.513-.651-.774-.972-.486-.6-.979-1.2-1.46-1.8-.548-.691-1.077-1.4-1.56-2.136-.235-.363-.448-.74-.683-1.1-.17-.259-.326-.555-.646-.626a.36.36,0,0,0-.345.152l-.018.033a.541.541,0,0,0-.038.1.315.315,0,0,0-.078.3q.536,2.418,1.041,4.843.248,1.191.488,2.384a2.782,2.782,0,0,0,.277,1.052,1.187,1.187,0,0,0,.821.3,3.224,3.224,0,0,0,1.846-.51,2.932,2.932,0,0,0,1.291-1.358A.623.623,0,0,0,546.345,233.269Z" transform="translate(-540.735 -226.624)" fill="#007cc2"/>
    </g>
    <path id="패스_1085" data-name="패스 1085" d="M560.423,230.877a18.852,18.852,0,0,1-27.436,14.185.424.424,0,1,1,.394-.751,18.011,18.011,0,1,0,9.8-33.907.423.423,0,1,1,.069-.843,18.84,18.84,0,0,1,17.177,21.316Z" transform="translate(-515.696 -202.312)" fill="#87180e"/>
  </g>
  <g id="그룹_368" data-name="그룹 368" transform="translate(63.435 0)">
    <path id="패스_1086" data-name="패스 1086" d="M589.792,214.949a18.434,18.434,0,1,1-18.609-18.25A18.436,18.436,0,0,1,589.792,214.949Z" transform="translate(-552.925 -196.699)" fill="#00994b"/>
    <path id="패스_1087" data-name="패스 1087" d="M561.016,204.253a1.355,1.355,0,1,0-1.135-2.461c-3.349,1.71-4.482,5.481-4.381,9.013a1.4,1.4,0,0,0,1.236,1.465,1.366,1.366,0,0,0,1.465-1.238,10.286,10.286,0,0,1,.631-4.31A4.935,4.935,0,0,1,561.016,204.253Z" transform="translate(-550.836 -192.66)" fill="#fffae8"/>
    <path id="패스_1088" data-name="패스 1088" d="M557.637,208.322a1.356,1.356,0,0,0-.937,2.542A1.356,1.356,0,0,0,557.637,208.322Z" transform="translate(-550.552 -187.321)" fill="#fffae8"/>
    <g id="그룹_367" data-name="그룹 367" transform="translate(16.424 31.9)">
      <path id="패스_1089" data-name="패스 1089" d="M566.375,222.506c-.091-.4-.2-.805-.306-1.206-.2-.747-.4-1.492-.589-2.243-.214-.856-.408-1.717-.542-2.589-.067-.428-.1-.858-.17-1.286a1.159,1.159,0,0,0-.332-.836.358.358,0,0,0-.375,0l-.031.024a.568.568,0,0,0-.074.073.308.308,0,0,0-.192.239q-.509,2.423-1.044,4.841-.264,1.188-.535,2.375a2.754,2.754,0,0,0-.179,1.073,1.184,1.184,0,0,0,.624.609,3.215,3.215,0,0,0,1.893.294,2.922,2.922,0,0,0,1.735-.705A.62.62,0,0,0,566.375,222.506Z" transform="translate(-561.983 -214.292)" fill="#00994b"/>
    </g>
    <path id="패스_1090" data-name="패스 1090" d="M573.785,232.723a18.883,18.883,0,0,1-18.843-6.8.423.423,0,0,1,.667-.52,18.011,18.011,0,1,0,22.874-26.879.424.424,0,1,1,.41-.742,18.858,18.858,0,0,1-5.108,34.946Z" transform="translate(-551.358 -195.865)" fill="#87180e"/>
  </g>
  <g id="그룹_370" data-name="그룹 370" transform="translate(0 63.287)">
    <path id="패스_1091" data-name="패스 1091" d="M538.824,254.358c1.289,1.383,2.443,2.91,3.615,4.393q3.155,3.987,6.234,8.036,7.518,9.832,14.8,19.838c2.194,3.028,4.377,6.067,6.462,9.17.3.448,1.056.062.751-.392-4.113-6.122-8.522-12.049-12.925-17.964-4.6-6.185-9.256-12.341-14.025-18.4-1.393-1.77-2.756-3.6-4.294-5.253-.372-.4-1,.172-.624.573Z" transform="translate(-501.052 -213.671)" fill="#87180e"/>
    <g id="그룹_369" data-name="그룹 369" transform="translate(32.481 33.596)">
      <path id="패스_1092" data-name="패스 1092" d="M542.833,255.278c-.324-.259-.66-.5-.992-.749-.622-.459-1.249-.912-1.866-1.38-.7-.533-1.393-1.084-2.043-1.679-.319-.292-.618-.6-.939-.9-.228-.21-.453-.455-.781-.444a.364.364,0,0,0-.3.232l-.009.036a.526.526,0,0,0-.011.105.306.306,0,0,0,0,.306q1.123,2.209,2.217,4.43.538,1.091,1.07,2.185c.121.252.292.781.531.95a1.188,1.188,0,0,0,.87.083,3.218,3.218,0,0,0,1.659-.954,2.935,2.935,0,0,0,.912-1.637A.622.622,0,0,0,542.833,255.278Z" transform="translate(-535.854 -250.13)" fill="#e51723"/>
    </g>
    <path id="패스_1093" data-name="패스 1093" d="M551.1,270.114A5.931,5.931,0,0,0,555.437,266c1.173-4.034,2.778-11.271,1.766-18.185-1.51-10.335-8.355-15.333-13.924-15.956-4.551-.51-9.44,3.008-10.892,7.006a10.68,10.68,0,0,0-.559,5.372.989.989,0,0,1-1.225,1.119,9.026,9.026,0,0,0-3.9-.1,10.873,10.873,0,0,0-8.718,9.113c-.477,4.756,2.381,13.169,13.309,16.089C538.741,272.448,546.748,271.148,551.1,270.114Z" transform="translate(-517.941 -231.434)" fill="#e51723"/>
    <path id="패스_1094" data-name="패스 1094" d="M540.018,270.7a.424.424,0,0,1-.189-.827,5.526,5.526,0,0,0,4.027-3.824c1.09-3.748,2.769-11.072,1.753-18-1.447-9.889-7.847-14.959-13.55-15.6a.423.423,0,1,1,.092-.841c6.027.673,12.785,5.98,14.3,16.315,1.035,7.091-.671,14.549-1.781,18.364a6.378,6.378,0,0,1-4.644,4.412Z" transform="translate(-506.767 -231.602)" fill="#87180e"/>
    <path id="패스_1095" data-name="패스 1095" d="M522.756,245.313a1.355,1.355,0,1,0-2.506-1.034c-1.295,3.53.438,7.068,2.913,9.588a1.4,1.4,0,0,0,1.9.234,1.368,1.368,0,0,0,.234-1.9,10.293,10.293,0,0,1-2.469-3.59A4.925,4.925,0,0,1,522.756,245.313Z" transform="translate(-516.421 -221.969)" fill="#fffae8"/>
    <path id="패스_1096" data-name="패스 1096" d="M524.073,249.492a1.356,1.356,0,0,0,1.041,2.5A1.356,1.356,0,0,0,524.073,249.492Z" transform="translate(-513.61 -217.145)" fill="#fffae8"/>
  </g>
  <path id="패스_1097" data-name="패스 1097" d="M577.383,292.98c-1.124,7.273-2.177,14.555-3.45,21.8-.094.537.752.578.845.047,1.275-7.248,2.328-14.529,3.45-21.8.083-.539-.763-.58-.845-.047Z" transform="translate(-472.413 -118.71)" fill="#87180e"/>
  <path id="패스_1098" data-name="패스 1098" d="M556.685,288.857c7.237,7.691,14.324,15.519,21.055,23.661q3.038,3.677,5.987,7.425c.337.43.961-.145.626-.571-6.658-8.455-13.673-16.613-20.95-24.538q-3.025-3.294-6.092-6.549c-.374-.4-1,.174-.626.573Z" transform="translate(-486.527 -122.329)" fill="#87180e"/>
  <path id="패스_1099" data-name="패스 1099" d="M571.521,293.912c.505,6.232,1,12.466,1.6,18.69.167,1.71.341,3.418.531,5.126.06.542.887.359.827-.18-.7-6.292-1.222-12.6-1.737-18.914q-.2-2.451-.4-4.9c-.043-.542-.87-.357-.828.18Z" transform="translate(-474.37 -118.055)" fill="#87180e"/>
  <path id="패스_1100" data-name="패스 1100" d="M584.486,297.274a126.781,126.781,0,0,0-10.769,13.994.424.424,0,0,0,.713.459A125.438,125.438,0,0,1,585.059,297.9c.356-.406-.214-1.035-.573-.624Z" transform="translate(-472.64 -115.019)" fill="#87180e"/>
  <path id="패스_1101" data-name="패스 1101" d="M564.109,292.338c4.337,6.479,8.554,13.037,12.45,19.791q1.683,2.915,3.285,5.875a.424.424,0,0,0,.752-.392c-3.7-6.827-7.735-13.461-11.971-19.969q-1.863-2.861-3.766-5.7c-.3-.446-1.056-.06-.75.394Z" transform="translate(-480.453 -119.404)" fill="#87180e"/>
  <g id="그룹_377" data-name="그룹 377" transform="translate(7.537 108.817)">
    <g id="그룹_371" data-name="그룹 371" transform="translate(35.559 34.014)">
      <path id="패스_1102" data-name="패스 1102" d="M549.652,279.451c-.377-.2-.764-.384-1.146-.571-.716-.348-1.436-.689-2.149-1.046-.81-.408-1.613-.834-2.386-1.314-.376-.236-.739-.5-1.118-.731a1.2,1.2,0,0,0-.874-.3.365.365,0,0,0-.256.292l0,.038a.405.405,0,0,0,.007.107.314.314,0,0,0,.056.312q1.55,2.023,3.078,4.067.751,1,1.494,2.013c.173.232.444.736.718.861a1.216,1.216,0,0,0,.9-.08,3.308,3.308,0,0,0,1.5-1.28,3.008,3.008,0,0,0,.617-1.828C550.063,279.7,549.891,279.576,549.652,279.451Z" transform="translate(-541.708 -275.471)" fill="#fffae8"/>
    </g>
    <g id="그룹_376" data-name="그룹 376" transform="translate(0 0.423)">
      <g id="그룹_374" data-name="그룹 374">
        <g id="그룹_372" data-name="그룹 372">
          <path id="패스_1103" data-name="패스 1103" d="M530.274,275.808h0a13.66,13.66,0,0,0-3.309,2.667,7.994,7.994,0,0,0-1.612,2.845,7.223,7.223,0,0,0,.051,4.344,10.365,10.365,0,0,0,1.251,2.558,9.694,9.694,0,0,0,6.384,4.087,7.559,7.559,0,0,0,1.877.1,7.161,7.161,0,0,0,3.857-1.5,9.274,9.274,0,0,0,1.259-1.208,13.194,13.194,0,0,0,2.131-3.627h0l2.965-15.445Z" transform="translate(-519.702 -245.818)" fill="#fffae8"/>
          <path id="패스_1104" data-name="패스 1104" d="M536.12,270.629h0Z" transform="translate(-510.694 -245.818)" fill="#fffae8"/>
          <path id="패스_1105" data-name="패스 1105" d="M547.522,276.008,535.9,265.966c-2.948-1.73-6.258-2.9-9.575-.9a7.734,7.734,0,0,0-1.858,1.6,9.437,9.437,0,0,0-2.329,7.133,8.292,8.292,0,0,0,2.722,5.74c2.325,1.926,5.492,1.973,7.809,1.648l14.853-5.178Z" transform="translate(-522.097 -251.196)" fill="#fffae8"/>
          <path id="패스_1106" data-name="패스 1106" d="M554.268,272.573l.038-.042a8.677,8.677,0,0,0,.954-1.36,7.145,7.145,0,0,0,.927-4.033,7.506,7.506,0,0,0-.375-1.84,9.689,9.689,0,0,0-4.97-5.724h0a10.317,10.317,0,0,0-2.715-.867,7.215,7.215,0,0,0-4.3.582,8.2,8.2,0,0,0-2.609,2.043,13.243,13.243,0,0,0-2.13,3.63l-2.965,15.443h0l14.845-5.175h0A13.377,13.377,0,0,0,554.268,272.573Z" transform="translate(-510.695 -255.595)" fill="#fffae8"/>
          <path id="패스_1107" data-name="패스 1107" d="M547.957,283.242c4.419,2.578,8.428,2.308,11.179-.838l.034-.04a9.543,9.543,0,0,0,2.1-8.609,7.631,7.631,0,0,0-2.417-4.2c-2.341-2-5.6-2.031-7.889-1.712l-14.845,5.175Z" transform="translate(-510.694 -248.206)" fill="#fffae8"/>
          <path id="패스_1108" data-name="패스 1108" d="M537.449,270.629l-2.965,15.445c.018,2.3.518,5.525,2.843,7.556a7.665,7.665,0,0,0,4.506,1.779,9.557,9.557,0,0,0,8.223-3.344l.049-.056c2.694-3.148,2.375-7.158-.818-11.155h0L537.45,270.629Z" transform="translate(-512.024 -245.818)" fill="#fffae8"/>
          <path id="패스_1109" data-name="패스 1109" d="M545.58,266.314h0c-.015-2.346-.522-5.471-2.767-7.492a8.311,8.311,0,0,0-6.074-1.859,9.446,9.446,0,0,0-6.709,3.329,7.975,7.975,0,0,0-1.32,2.083c-1.5,3.572.141,6.676,2.284,9.34h0l11.621,10.042Z" transform="translate(-517.19 -256.945)" fill="#fffae8"/>
        </g>
        <g id="그룹_373" data-name="그룹 373" transform="translate(15.11 14.415)">
          <path id="패스_1110" data-name="패스 1110" d="M547.76,267.27c4.176,3.654,4.421,10.205.546,14.635s-10.4,5.062-14.577,1.409-4.421-10.2-.546-14.633S543.584,263.618,547.76,267.27Z" transform="translate(-530.43 -264.896)" fill="#fbc600"/>
        </g>
      </g>
      <g id="그룹_375" data-name="그룹 375" transform="translate(18.99 19.251)">
        <path id="패스_1111" data-name="패스 1111" d="M534.416,270.1h0a.346.346,0,0,0-.205-.419c-.731-.272-1.276-.169-1.519.221-.348.557.047,1.481,1.286,2.348s2.2.89,2.544.334c.326-.52,0-1.367-1.064-2.185a.308.308,0,0,0-.33-.033l-.263.134A.327.327,0,0,1,534.416,270.1Z" transform="translate(-532.57 -265.961)" fill="#87180e"/>
        <path id="패스_1112" data-name="패스 1112" d="M542.68,267.77a3.036,3.036,0,0,1-.881.791,2.566,2.566,0,0,1-1.094.312.557.557,0,0,0-.031,1.1,2.863,2.863,0,0,0,.8-.005,6.008,6.008,0,0,1-.132,7.333c-2.2,2.689-4.8,1.565-6.231.613a.608.608,0,0,0-.916.352.669.669,0,0,0,.374.823,6.766,6.766,0,0,0,4.972-.013,6.948,6.948,0,0,0,4.245-4.689,8.116,8.116,0,0,0-.653-5.229,4.265,4.265,0,0,0,.5-.54.58.58,0,0,0-.013-.709l-.125-.152A.507.507,0,0,0,542.68,267.77Z" transform="translate(-531.277 -267.563)" fill="#87180e"/>
        <path id="패스_1113" data-name="패스 1113" d="M536.189,268.174h0a.347.347,0,0,0-.2-.419c-.733-.272-1.276-.169-1.521.221-.348.557.049,1.483,1.286,2.348s2.2.89,2.546.333c.324-.52,0-1.367-1.065-2.183a.307.307,0,0,0-.332-.033l-.261.134A.329.329,0,0,1,536.189,268.174Z" transform="translate(-531.129 -267.53)" fill="#87180e"/>
      </g>
    </g>
    <path id="패스_1114" data-name="패스 1114" d="M555.5,303.8a.424.424,0,0,1-.4-.7l.315.284-.272-.335c2.553-2.979,2.26-6.749-.828-10.611a.424.424,0,0,1,.544-.631c4.27,2.491,8.049,2.225,10.647-.751a9.155,9.155,0,0,0,2.041-8.277,7.22,7.22,0,0,0-2.277-3.973c-2.216-1.891-5.334-1.922-7.557-1.614a.425.425,0,0,1-.458-.281.421.421,0,0,1,.187-.5,12.874,12.874,0,0,0,3.2-2.571,8.473,8.473,0,0,0,.941-1.329,6.731,6.731,0,0,0,.872-3.8,7.074,7.074,0,0,0-.355-1.733,9.26,9.26,0,0,0-4.749-5.478,9.909,9.909,0,0,0-2.6-.831,6.806,6.806,0,0,0-4.051.544,7.756,7.756,0,0,0-2.475,1.94,12.69,12.69,0,0,0-2.056,3.512.423.423,0,0,1-.816-.156c-.013-2.21-.481-5.247-2.627-7.18a7.882,7.882,0,0,0-5.768-1.75,9.02,9.02,0,0,0-6.415,3.184,7.522,7.522,0,0,0-1.246,1.967c-1.5,3.581.4,6.644,2.223,8.912a.423.423,0,1,1-.66.531c-1.971-2.452-4.018-5.777-2.345-9.77a8.422,8.422,0,0,1,1.387-2.2,9.869,9.869,0,0,1,7.01-3.476,8.718,8.718,0,0,1,6.381,1.967,9.476,9.476,0,0,1,2.807,6.1,12.1,12.1,0,0,1,1.485-2.2,8.568,8.568,0,0,1,2.747-2.15,7.621,7.621,0,0,1,4.553-.619,10.811,10.811,0,0,1,2.827.9A10.117,10.117,0,0,1,562.9,266.7a7.863,7.863,0,0,1,.4,1.942,7.568,7.568,0,0,1-.981,4.274,9.182,9.182,0,0,1-1,1.427,13.016,13.016,0,0,1-2.033,1.859,9.442,9.442,0,0,1,6.535,1.955,8.053,8.053,0,0,1,2.554,4.43,9.954,9.954,0,0,1-2.192,8.979c-2.557,2.928-6.2,3.529-10.18,1.773,2.321,3.684,2.269,7.358-.217,10.257l-.057.065A.419.419,0,0,1,555.5,303.8Z" transform="translate(-517.383 -256.712)" fill="#87180e"/>
    <path id="패스_1115" data-name="패스 1115" d="M532.56,285.951a7.3,7.3,0,0,1-1.01.145,7.944,7.944,0,0,1-1.982-.107.424.424,0,0,1,.151-.834,7.025,7.025,0,0,0,1.77.1,6.735,6.735,0,0,0,3.628-1.416,8.817,8.817,0,0,0,1.2-1.153,12.7,12.7,0,0,0,2.054-3.5.423.423,0,1,1,.785.317,13.521,13.521,0,0,1-2.2,3.742,9.689,9.689,0,0,1-1.322,1.266A7.675,7.675,0,0,1,532.56,285.951Z" transform="translate(-516.305 -238.657)" fill="#87180e"/>
    <path id="패스_1116" data-name="패스 1116" d="M531.711,274.828l-.031.005c-2.355.332-5.681.3-8.141-1.743a.423.423,0,1,1,.542-.651c2.221,1.842,5.295,1.862,7.481,1.554a.424.424,0,0,1,.148.834Z" transform="translate(-521.049 -244.002)" fill="#87180e"/>
  </g>
  <g id="그룹_379" data-name="그룹 379" transform="translate(32.06 69.364)">
    <path id="패스_1117" data-name="패스 1117" d="M569.9,244.2a18.434,18.434,0,1,1-25.264-6.412A18.436,18.436,0,0,1,569.9,244.2Z" transform="translate(-535.622 -234.763)" fill="#00994b"/>
    <path id="패스_1118" data-name="패스 1118" d="M541.471,245.338a1.355,1.355,0,1,0-2.219-1.556c-2.036,3.164-1.117,6.994.747,9.994a1.4,1.4,0,0,0,1.806.644,1.366,1.366,0,0,0,.644-1.806,10.288,10.288,0,0,1-1.623-4.044A4.92,4.92,0,0,1,541.471,245.338Z" transform="translate(-533.608 -228.236)" fill="#fffae8"/>
    <path id="패스_1119" data-name="패스 1119" d="M541.577,249.74a1.356,1.356,0,0,0,.468,2.669A1.356,1.356,0,0,0,541.577,249.74Z" transform="translate(-531.657 -222.948)" fill="#fffae8"/>
    <g id="그룹_378" data-name="그룹 378" transform="translate(25.184 30.326)">
      <path id="패스_1120" data-name="패스 1120" d="M555.727,257.754c-.281-.3-.578-.593-.871-.887-.545-.548-1.1-1.088-1.637-1.643-.616-.631-1.217-1.278-1.771-1.964-.272-.337-.522-.691-.794-1.026-.2-.241-.381-.517-.708-.555a.355.355,0,0,0-.326.187l-.014.034a.524.524,0,0,0-.027.1.3.3,0,0,0-.047.3q.781,2.35,1.534,4.711.37,1.159.731,2.319a2.8,2.8,0,0,0,.385,1.019,1.184,1.184,0,0,0,.848.212,3.221,3.221,0,0,0,1.784-.7,2.947,2.947,0,0,0,1.144-1.482A.627.627,0,0,0,555.727,257.754Z" transform="translate(-549.511 -251.678)" fill="#00994b"/>
    </g>
    <path id="패스_1121" data-name="패스 1121" d="M553,272.262a18.771,18.771,0,0,1-10.941-.932.424.424,0,1,1,.314-.787,18.012,18.012,0,1,0,6.245-34.737.424.424,0,0,1-.018-.847,18.868,18.868,0,0,1,4.4,37.3Z" transform="translate(-530.607 -234.953)" fill="#87180e"/>
  </g>
  <g id="그룹_381" data-name="그룹 381" transform="translate(112.625 45.414)">
    <path id="패스_1122" data-name="패스 1122" d="M615.95,246.1a18.433,18.433,0,1,1-11.535-23.372A18.437,18.437,0,0,1,615.95,246.1Z" transform="translate(-580.054 -221.745)" fill="#fbc600"/>
    <path id="패스_1123" data-name="패스 1123" d="M590.519,228.064a1.355,1.355,0,1,0-.259-2.7c-3.726.508-6.042,3.694-7.114,7.061a1.4,1.4,0,0,0,.684,1.791,1.365,1.365,0,0,0,1.792-.684,10.283,10.283,0,0,1,2.02-3.86A4.928,4.928,0,0,1,590.519,228.064Z" transform="translate(-577.611 -218.809)" fill="#fffae8"/>
    <path id="패스_1124" data-name="패스 1124" d="M584.841,231.324a1.356,1.356,0,0,0-1.726,2.091A1.356,1.356,0,0,0,584.841,231.324Z" transform="translate(-577.962 -214.211)" fill="#fffae8"/>
    <g id="그룹_380" data-name="그룹 380" transform="translate(9.243 31.209)">
      <path id="패스_1125" data-name="패스 1125" d="M589.432,247.436c.049-.412.076-.825.109-1.238.061-.771.116-1.541.187-2.312.08-.878.181-1.755.341-2.622.08-.426.187-.845.265-1.271a1.164,1.164,0,0,0-.036-.9.359.359,0,0,0-.354-.129l-.036.013a.477.477,0,0,0-.094.044.306.306,0,0,0-.261.163q-1.281,2.119-2.586,4.225-.642,1.033-1.289,2.063c-.149.238-.508.664-.524.954a1.183,1.183,0,0,0,.388.783,3.235,3.235,0,0,0,1.69.9,2.937,2.937,0,0,0,1.871-.092A.623.623,0,0,0,589.432,247.436Z" transform="translate(-585.152 -238.956)" fill="#fbc600"/>
    </g>
    <path id="패스_1126" data-name="패스 1126" d="M602.2,256.048a18.851,18.851,0,0,1-21.815-12.361.423.423,0,0,1,.263-.539.43.43,0,0,1,.539.265A18.011,18.011,0,1,0,611.657,225.6a.424.424,0,0,1,.631-.566A18.852,18.852,0,0,1,602.2,256.048Z" transform="translate(-579.803 -219.185)" fill="#87180e"/>
  </g>
  <g id="그룹_383" data-name="그룹 383" transform="translate(89.386 18.548)">
    <path id="패스_1127" data-name="패스 1127" d="M577.7,228.987q-1.083,7.665-1.411,15.405a.423.423,0,0,0,.845.047q.329-7.732,1.412-15.405c.076-.54-.771-.584-.846-.047Z" transform="translate(-559.88 -189.299)" fill="#87180e"/>
    <g id="그룹_382" data-name="그룹 382" transform="translate(15.744 33.234)">
      <path id="패스_1128" data-name="패스 1128" d="M580.326,233.638c-.053-.41-.124-.82-.19-1.228-.125-.763-.258-1.525-.374-2.29-.132-.872-.243-1.748-.3-2.629-.025-.432-.022-.865-.047-1.3a1.161,1.161,0,0,0-.25-.863.358.358,0,0,0-.374-.04l-.033.02a.638.638,0,0,0-.082.067.3.3,0,0,0-.214.219q-.737,2.363-1.5,4.72-.375,1.159-.758,2.314a2.8,2.8,0,0,0-.282,1.05,1.2,1.2,0,0,0,.566.667,3.223,3.223,0,0,0,1.855.473,2.933,2.933,0,0,0,1.8-.537A.628.628,0,0,0,580.326,233.638Z" transform="translate(-575.921 -225.256)" fill="#e52f81"/>
    </g>
    <path id="패스_1129" data-name="패스 1129" d="M582.981,243.92a5.932,5.932,0,0,0,5.958.5c3.792-1.81,10.261-5.427,14.749-10.783,6.709-8.005,5.886-16.44,2.646-21.012-2.649-3.737-8.529-5.044-12.48-3.469a10.681,10.681,0,0,0-4.381,3.159.987.987,0,0,1-1.65-.17,9.091,9.091,0,0,0-2.52-2.972,10.872,10.872,0,0,0-12.6-.441c-3.87,2.809-8.247,10.542-3.151,20.64C573.013,236.246,579.315,241.358,582.981,243.92Z" transform="translate(-567.238 -206.928)" fill="#e52f81"/>
    <path id="패스_1130" data-name="패스 1130" d="M580.866,242.907a6.379,6.379,0,0,1-5-1,.423.423,0,0,1,.484-.694,5.527,5.527,0,0,0,5.532.461c3.525-1.681,10.108-5.3,14.607-10.673,6.419-7.661,5.942-15.813,2.624-20.495a.423.423,0,1,1,.691-.49c3.507,4.947,4.043,13.523-2.666,21.528-4.6,5.492-11.305,9.182-14.892,10.894A6.3,6.3,0,0,1,580.866,242.907Z" transform="translate(-560.367 -204.565)" fill="#87180e"/>
    <path id="패스_1131" data-name="패스 1131" d="M575.133,211.842a1.356,1.356,0,0,0-.9-2.558c-3.5,1.383-4.983,5.032-5.217,8.557a1.4,1.4,0,0,0,1.092,1.576,1.364,1.364,0,0,0,1.575-1.092,10.314,10.314,0,0,1,1.037-4.232A4.921,4.921,0,0,1,575.133,211.842Z" transform="translate(-565.793 -205.078)" fill="#fffae8"/>
    <path id="패스_1132" data-name="패스 1132" d="M571.058,215.725a1.356,1.356,0,0,0-1.175,2.443A1.356,1.356,0,0,0,571.058,215.725Z" transform="translate(-565.692 -199.89)" fill="#fffae8"/>
  </g>
  <g id="그룹_390" data-name="그룹 390" transform="translate(51.359 39.45)">
    <path id="패스_1133" data-name="패스 1133" d="M563.827,243.919a174.874,174.874,0,0,1,4.306,18.143q.6,3.335,1.07,6.689c.076.538.9.357.827-.18a172.13,172.13,0,0,0-4.138-20.426c-.4-1.474-.81-2.941-1.236-4.4-.152-.52-.981-.346-.829.178Z" transform="translate(-531.999 -198.147)" fill="#87180e"/>
    <g id="그룹_384" data-name="그룹 384" transform="translate(29.096 38.614)">
      <path id="패스_1134" data-name="패스 1134" d="M567.706,246.9c-.236-.355-.49-.7-.736-1.046-.465-.647-.936-1.291-1.391-1.944-.52-.744-1.023-1.5-1.472-2.292-.221-.386-.416-.789-.636-1.175-.16-.279-.3-.589-.626-.684a.374.374,0,0,0-.364.136l-.021.033a.6.6,0,0,0-.045.1.318.318,0,0,0-.1.3q.4,2.518.772,5.043.182,1.24.355,2.48a2.878,2.878,0,0,0,.222,1.1,1.215,1.215,0,0,0,.826.357,3.326,3.326,0,0,0,1.929-.41,3.04,3.04,0,0,0,1.412-1.315A.649.649,0,0,0,567.706,246.9Z" transform="translate(-562.312 -239.751)" fill="#fffae8"/>
    </g>
    <g id="그룹_389" data-name="그룹 389" transform="translate(0 0.424)">
      <g id="그룹_387" data-name="그룹 387">
        <g id="그룹_385" data-name="그룹 385">
          <path id="패스_1135" data-name="패스 1135" d="M555.405,231.372h0a13.716,13.716,0,0,0-4.18.771,8.021,8.021,0,0,0-2.774,1.735,7.231,7.231,0,0,0-2.024,3.844,10.478,10.478,0,0,0-.116,2.847,9.69,9.69,0,0,0,3.67,6.633,7.5,7.5,0,0,0,1.6.983,7.155,7.155,0,0,0,4.107.513,9.369,9.369,0,0,0,1.683-.462,13.238,13.238,0,0,0,3.6-2.174h0l9.96-12.172Z" transform="translate(-546.266 -208.376)" fill="#fffae8"/>
          <path id="패스_1136" data-name="패스 1136" d="M559.869,232.761h0Z" transform="translate(-535.203 -207.247)" fill="#fffae8"/>
          <path id="패스_1137" data-name="패스 1137" d="M569.782,241.6l-5.441-14.362c-1.768-2.925-4.122-5.53-7.993-5.349a7.708,7.708,0,0,0-2.393.52,9.434,9.434,0,0,0-5.444,5.162,8.288,8.288,0,0,0-.339,6.344c1.126,2.8,3.891,4.352,6.083,5.168l15.527,2.517Z" transform="translate(-545.116 -216.091)" fill="#fffae8"/>
          <path id="패스_1138" data-name="패스 1138" d="M579.559,241.2l.051-.02a8.584,8.584,0,0,0,1.487-.742,7.141,7.141,0,0,0,2.736-3.106,7.415,7.415,0,0,0,.544-1.8,9.684,9.684,0,0,0-1.645-7.4h0a10.332,10.332,0,0,0-1.974-2.054,7.223,7.223,0,0,0-4.06-1.536,8.2,8.2,0,0,0-3.27.555,13.289,13.289,0,0,0-3.6,2.179l-9.958,12.169h0l15.52,2.515h0A13.359,13.359,0,0,0,579.559,241.2Z" transform="translate(-535.203 -213.934)" fill="#fffae8"/>
          <path id="패스_1139" data-name="패스 1139" d="M565.411,247.387c2.66,4.37,6.315,6.042,10.232,4.586l.049-.02a9.549,9.549,0,0,0,5.948-6.571,7.638,7.638,0,0,0-.127-4.845c-1.106-2.874-3.956-4.45-6.123-5.262l-15.52-2.515Z" transform="translate(-535.203 -207.247)" fill="#fffae8"/>
          <path id="패스_1140" data-name="패스 1140" d="M565.026,232.76l-9.96,12.172c-1.083,2.036-2.174,5.106-1.1,8a7.656,7.656,0,0,0,3.117,3.71,9.553,9.553,0,0,0,8.823.974l.069-.025c3.868-1.485,5.5-5.166,4.59-10.2h0l-5.542-14.627Z" transform="translate(-540.361 -207.247)" fill="#fffae8"/>
          <path id="패스_1141" data-name="패스 1141" d="M572.409,232.034h0c1.1-2.072,2.145-5.061,1.134-7.906a8.3,8.3,0,0,0-4.457-4.528,9.444,9.444,0,0,0-7.485-.267,8.012,8.012,0,0,0-2.153,1.2c-3.017,2.428-3.053,5.938-2.438,9.3h0L562.45,244.2Z" transform="translate(-537.785 -218.689)" fill="#fffae8"/>
        </g>
        <g id="그룹_386" data-name="그룹 386" transform="translate(14.078 15.39)">
          <path id="패스_1142" data-name="패스 1142" d="M574.6,233.587c1.935,5.2-.97,11.077-6.488,13.129s-11.556-.5-13.489-5.7.97-11.079,6.486-13.129S572.672,228.386,574.6,233.587Z" transform="translate(-554.03 -227.177)" fill="#fbc600"/>
        </g>
      </g>
      <g id="그룹_388" data-name="그룹 388" transform="translate(18.913 19.444)">
        <path id="패스_1143" data-name="패스 1143" d="M558.86,231.358h0a.343.343,0,0,0,.018-.466c-.513-.587-1.042-.756-1.442-.529-.571.325-.663,1.327.013,2.678s1.509,1.828,2.078,1.505c.535-.3.649-1.2.105-2.428a.308.308,0,0,0-.276-.185l-.3-.007A.328.328,0,0,1,558.86,231.358Z" transform="translate(-556.469 -228.719)" fill="#87180e"/>
        <path id="패스_1144" data-name="패스 1144" d="M569.365,231.489a2.96,2.96,0,0,1-1.151.276,2.569,2.569,0,0,1-1.108-.245.558.558,0,0,0-.553.954,3.081,3.081,0,0,0,.7.373,6.006,6.006,0,0,1-3.609,6.384c-3.211,1.318-4.962-.908-5.77-2.426a.606.606,0,0,0-.972-.127.667.667,0,0,0-.063.9,6.766,6.766,0,0,0,4.377,2.354,6.943,6.943,0,0,0,5.965-2.1,8.121,8.121,0,0,0,1.915-4.91,4.324,4.324,0,0,0,.693-.239.579.579,0,0,0,.326-.629l-.036-.194A.508.508,0,0,0,569.365,231.489Z" transform="translate(-556.696 -227.762)" fill="#87180e"/>
        <path id="패스_1145" data-name="패스 1145" d="M561.338,230.5h0a.346.346,0,0,0,.02-.466c-.513-.586-1.042-.754-1.443-.528-.571.325-.664,1.327.013,2.676s1.509,1.83,2.08,1.505c.535-.3.647-1.2.1-2.426a.306.306,0,0,0-.276-.187l-.294-.007A.329.329,0,0,1,561.338,230.5Z" transform="translate(-554.455 -229.413)" fill="#87180e"/>
      </g>
    </g>
    <path id="패스_1146" data-name="패스 1146" d="M563.749,269.614l-.221-.37-.111-.412c3.694-1.418,5.229-4.872,4.352-9.737a.424.424,0,0,1,.78-.3c2.568,4.219,6.016,5.79,9.722,4.406a9.157,9.157,0,0,0,5.735-6.306,7.206,7.206,0,0,0-.114-4.577c-1.046-2.722-3.773-4.23-5.877-5.019a.424.424,0,0,1-.27-.464.434.434,0,0,1,.4-.355,12.868,12.868,0,0,0,4.036-.738,8.438,8.438,0,0,0,1.462-.722,6.718,6.718,0,0,0,2.573-2.921,6.91,6.91,0,0,0,.515-1.7,9.265,9.265,0,0,0-1.568-7.077,9.884,9.884,0,0,0-1.891-1.971,6.812,6.812,0,0,0-3.824-1.449,7.746,7.746,0,0,0-3.1.529,12.647,12.647,0,0,0-3.479,2.109.424.424,0,0,1-.644-.526c1.039-1.949,2.076-4.845,1.108-7.565a7.879,7.879,0,0,0-4.239-4.285,9.025,9.025,0,0,0-7.155-.254,7.515,7.515,0,0,0-2.035,1.137c-3.027,2.435-2.812,6.033-2.288,8.9a.417.417,0,0,1-.341.493.424.424,0,0,1-.493-.341c-.566-3.093-.783-6.992,2.591-9.708a8.407,8.407,0,0,1,2.265-1.269,9.862,9.862,0,0,1,7.819.279,8.714,8.714,0,0,1,4.675,4.767,9.478,9.478,0,0,1-.437,6.705,12.138,12.138,0,0,1,2.355-1.231,8.565,8.565,0,0,1,3.44-.584,7.645,7.645,0,0,1,4.3,1.625,10.864,10.864,0,0,1,2.056,2.136,10.115,10.115,0,0,1,1.721,7.728,7.764,7.764,0,0,1-.576,1.9,7.565,7.565,0,0,1-2.9,3.289,9.043,9.043,0,0,1-1.557.778,12.743,12.743,0,0,1-2.673.667,9.43,9.43,0,0,1,4.816,4.832,8.045,8.045,0,0,1,.138,5.111,9.946,9.946,0,0,1-6.2,6.85c-3.643,1.358-7.13.154-9.8-3.287C569.111,265.042,567.313,268.245,563.749,269.614Zm-.221-.37.007,0Z" transform="translate(-537.979 -218.455)" fill="#87180e"/>
    <path id="패스_1147" data-name="패스 1147" d="M554.663,242.644c-.129.029-.256.053-.381.072a7.568,7.568,0,0,1-4.35-.544,7.945,7.945,0,0,1-1.692-1.039.423.423,0,1,1,.528-.662,7.153,7.153,0,0,0,1.512.928,6.741,6.741,0,0,0,3.864.482,8.989,8.989,0,0,0,1.606-.442,12.642,12.642,0,0,0,3.474-2.1.424.424,0,1,1,.54.653,13.474,13.474,0,0,1-3.717,2.243A10.393,10.393,0,0,1,554.663,242.644Z" transform="translate(-544.789 -201.554)" fill="#87180e"/>
    <path id="패스_1148" data-name="패스 1148" d="M554.313,234.294a.413.413,0,0,1-.237-.018c-2.229-.83-5.137-2.442-6.328-5.407a.423.423,0,1,1,.785-.316c1.077,2.676,3.77,4.158,5.84,4.93a.423.423,0,0,1-.06.811Z" transform="translate(-545.085 -210.459)" fill="#87180e"/>
  </g>
  <g id="그룹_392" data-name="그룹 392" transform="translate(86.499 64.567)">
    <path id="패스_1149" data-name="패스 1149" d="M602.451,252.243a18.433,18.433,0,1,1-16.865-19.873A18.435,18.435,0,0,1,602.451,252.243Z" transform="translate(-565.645 -232.308)" fill="#007cc2"/>
    <path id="패스_1150" data-name="패스 1150" d="M574.358,239.485a1.383,1.383,0,0,0,.825-1.73,1.369,1.369,0,0,0-1.731-.823c-3.493,1.4-4.965,5.05-5.186,8.575a1.4,1.4,0,0,0,1.1,1.572,1.365,1.365,0,0,0,1.572-1.1,10.31,10.31,0,0,1,1.022-4.236A4.925,4.925,0,0,1,574.358,239.485Z" transform="translate(-563.518 -228.616)" fill="#fffae8"/>
    <path id="패스_1151" data-name="패스 1151" d="M570.309,243.376a1.357,1.357,0,0,0-1.166,2.448A1.357,1.357,0,0,0,570.309,243.376Z" transform="translate(-563.41 -223.421)" fill="#fffae8"/>
    <g id="그룹_391" data-name="그룹 391" transform="translate(14.421 31.866)">
      <path id="패스_1152" data-name="패스 1152" d="M578,258.257c-.055-.41-.127-.818-.2-1.226-.127-.763-.263-1.525-.381-2.29-.136-.87-.25-1.746-.3-2.626-.027-.433-.025-.865-.053-1.3a1.157,1.157,0,0,0-.254-.861.357.357,0,0,0-.374-.038l-.032.02a.568.568,0,0,0-.08.067.307.307,0,0,0-.214.219q-.729,2.369-1.483,4.727-.37,1.159-.749,2.315a2.8,2.8,0,0,0-.277,1.052,1.188,1.188,0,0,0,.567.665,3.228,3.228,0,0,0,1.858.466,2.942,2.942,0,0,0,1.792-.544A.626.626,0,0,0,578,258.257Z" transform="translate(-573.599 -249.882)" fill="#007cc2"/>
    </g>
    <path id="패스_1153" data-name="패스 1153" d="M586.929,267.941a18.866,18.866,0,0,1-19.828-8.21.424.424,0,0,1,.713-.461,18.011,18.011,0,1,0,25.231-24.678.423.423,0,1,1,.475-.7,18.857,18.857,0,0,1-6.591,34.048Z" transform="translate(-564.516 -231.079)" fill="#87180e"/>
  </g>
  <g id="그룹_394" data-name="그룹 394" transform="translate(51.028 94.512)">
    <path id="패스_1154" data-name="패스 1154" d="M580.42,258.17a18.433,18.433,0,1,1-25.219-6.58A18.436,18.436,0,0,1,580.42,258.17Z" transform="translate(-546.083 -248.632)" fill="#e52f81"/>
    <path id="패스_1155" data-name="패스 1155" d="M551.946,259.173a1.385,1.385,0,0,0-.319-1.891,1.37,1.37,0,0,0-1.889.319c-2.058,3.15-1.164,6.986.68,10a1.394,1.394,0,0,0,1.8.654,1.364,1.364,0,0,0,.656-1.8,10.283,10.283,0,0,1-1.6-4.054A4.91,4.91,0,0,1,551.946,259.173Z" transform="translate(-544.072 -242.141)" fill="#fffae8"/>
    <path id="패스_1156" data-name="패스 1156" d="M552.012,263.576a1.356,1.356,0,0,0,.451,2.672A1.356,1.356,0,0,0,552.012,263.576Z" transform="translate(-542.146 -236.843)" fill="#fffae8"/>
    <g id="그룹_393" data-name="그룹 393" transform="translate(25.102 30.374)">
      <path id="패스_1157" data-name="패스 1157" d="M566.107,271.69c-.28-.3-.575-.6-.865-.892-.542-.551-1.091-1.1-1.626-1.655-.611-.635-1.208-1.286-1.759-1.974-.27-.339-.516-.694-.787-1.032-.194-.243-.377-.52-.7-.56a.355.355,0,0,0-.328.183l-.016.034a.533.533,0,0,0-.027.1.306.306,0,0,0-.049.3q.765,2.358,1.5,4.722.362,1.161.716,2.324a2.8,2.8,0,0,0,.377,1.021,1.193,1.193,0,0,0,.847.22,3.223,3.223,0,0,0,1.788-.687,2.934,2.934,0,0,0,1.155-1.474A.62.62,0,0,0,566.107,271.69Z" transform="translate(-559.927 -265.574)" fill="#e52f81"/>
    </g>
    <path id="패스_1158" data-name="패스 1158" d="M563.508,286.13a18.754,18.754,0,0,1-11.057-.979.424.424,0,1,1,.319-.785,18.011,18.011,0,1,0,6.48-34.694.423.423,0,1,1-.015-.847,18.867,18.867,0,0,1,4.272,37.305Z" transform="translate(-541.12 -248.823)" fill="#87180e"/>
  </g>
  <g id="그룹_396" data-name="그룹 396" transform="translate(47.474 128.701)">
    <g id="그룹_395" data-name="그룹 395" transform="translate(30.866 34.429)">
      <path id="패스_1159" data-name="패스 1159" d="M567.893,292.129c-.31-.274-.635-.533-.955-.8-.6-.49-1.2-.972-1.8-1.469-.676-.566-1.338-1.149-1.96-1.775-.3-.308-.589-.635-.894-.941-.219-.221-.432-.477-.758-.483a.358.358,0,0,0-.306.219l-.011.034a.605.605,0,0,0-.018.1.311.311,0,0,0-.016.308q1.014,2.258,2,4.531.484,1.115.962,2.234a2.756,2.756,0,0,0,.484.974,1.179,1.179,0,0,0,.865.127,3.218,3.218,0,0,0,1.7-.874,2.93,2.93,0,0,0,.992-1.59A.626.626,0,0,0,567.893,292.129Z" transform="translate(-561.146 -286.666)" fill="#e51723"/>
    </g>
    <path id="패스_1160" data-name="패스 1160" d="M575.374,306.927a5.936,5.936,0,0,0,4.8-3.57c1.646-3.866,4.1-10.859,3.924-17.844-.269-10.442-6.468-16.221-11.922-17.5-4.458-1.048-9.733,1.862-11.65,5.657a10.69,10.69,0,0,0-1.2,5.269.988.988,0,0,1-1.349.963,9.065,9.065,0,0,0-3.857-.56,10.87,10.87,0,0,0-9.74,8.011c-1.043,4.664.792,13.358,11.294,17.559C562.823,307.768,570.93,307.432,575.374,306.927Z" transform="translate(-544.123 -267.585)" fill="#e51723"/>
    <path id="패스_1161" data-name="패스 1161" d="M563.661,307.337c-.207.043-.415.078-.627.1a.422.422,0,0,1-.1-.839,5.546,5.546,0,0,0,4.453-3.316c1.529-3.59,4.069-10.662,3.89-17.666-.258-9.991-6.009-15.789-11.594-17.1a.424.424,0,1,1,.194-.825c5.9,1.389,11.978,7.461,12.247,17.906.185,7.166-2.4,14.366-3.957,18.022A6.375,6.375,0,0,1,563.661,307.337Z" transform="translate(-531.733 -267.678)" fill="#87180e"/>
    <path id="패스_1162" data-name="패스 1162" d="M549.093,280.113a1.384,1.384,0,0,0-.521-1.844,1.369,1.369,0,0,0-1.844.52c-1.708,3.351-.408,7.068,1.75,9.865a1.394,1.394,0,0,0,1.86.459,1.364,1.364,0,0,0,.46-1.86,10.28,10.28,0,0,1-2.023-3.859A4.929,4.929,0,0,1,549.093,280.113Z" transform="translate(-542.644 -259.2)" fill="#fffae8"/>
    <path id="패스_1163" data-name="패스 1163" d="M549.773,284.439a1.356,1.356,0,0,0,.734,2.609A1.356,1.356,0,0,0,549.773,284.439Z" transform="translate(-540.302 -254.094)" fill="#fffae8"/>
  </g>
  <g id="그룹_398" data-name="그룹 398" transform="translate(111.901 84.288)">
    <g id="그룹_397" data-name="그룹 397" transform="translate(9.909 34.282)">
      <path id="패스_1164" data-name="패스 1164" d="M589.43,270.584c.034-.411.049-.827.069-1.24.038-.772.065-1.547.112-2.317.051-.881.125-1.761.259-2.633.065-.428.158-.85.223-1.278a1.165,1.165,0,0,0-.065-.9.357.357,0,0,0-.357-.116l-.036.013a.413.413,0,0,0-.093.047.307.307,0,0,0-.256.17q-1.213,2.16-2.45,4.3-.609,1.052-1.224,2.1a2.793,2.793,0,0,0-.494.97,1.177,1.177,0,0,0,.414.769,3.223,3.223,0,0,0,1.717.85,2.936,2.936,0,0,0,1.867-.152A.626.626,0,0,0,589.43,270.584Z" transform="translate(-585.12 -262.091)" fill="#e51723"/>
    </g>
    <path id="패스_1165" data-name="패스 1165" d="M590.527,280.52a5.936,5.936,0,0,0,5.724,1.726c4.085-.979,11.168-3.169,16.673-7.474,8.228-6.433,9.178-14.854,6.96-20-1.811-4.207-7.291-6.711-11.483-5.991a10.691,10.691,0,0,0-4.943,2.176.987.987,0,0,1-1.577-.51,9.054,9.054,0,0,0-1.848-3.432A10.869,10.869,0,0,0,587.8,243.96c-4.368,1.94-10.259,8.591-7.381,19.53C582.377,270.939,587.474,277.25,590.527,280.52Z" transform="translate(-579.655 -243.184)" fill="#e51723"/>
    <path id="패스_1166" data-name="패스 1166" d="M591.528,277.684a6.377,6.377,0,0,1-6-1.88.424.424,0,1,1,.62-.578,5.549,5.549,0,0,0,5.314,1.6c3.8-.91,10.99-3.08,16.508-7.4,7.875-6.156,9.106-14.228,6.836-19.5a.424.424,0,1,1,.778-.335c2.4,5.568,1.139,14.069-7.092,20.5-5.645,4.413-12.97,6.627-16.834,7.554Z" transform="translate(-574.968 -238.178)" fill="#87180e"/>
    <path id="패스_1167" data-name="패스 1167" d="M588.943,247.947a1.355,1.355,0,1,0-.344-2.689c-3.708.624-5.92,3.882-6.883,7.282a1.4,1.4,0,0,0,.74,1.768,1.361,1.361,0,0,0,1.768-.74,10.29,10.29,0,0,1,1.9-3.922A4.928,4.928,0,0,1,588.943,247.947Z" transform="translate(-578.037 -241.511)" fill="#fffae8"/>
    <path id="패스_1168" data-name="패스 1168" d="M583.461,251.3a1.356,1.356,0,0,0-1.659,2.143A1.356,1.356,0,0,0,583.461,251.3Z" transform="translate(-578.331 -236.819)" fill="#fffae8"/>
  </g>
  <g id="그룹_400" data-name="그룹 400" transform="translate(76.971 102.105)">
    <path id="패스_1169" data-name="패스 1169" d="M597.256,271.261a18.433,18.433,0,1,1-18.608-18.25A18.434,18.434,0,0,1,597.256,271.261Z" transform="translate(-560.391 -253.011)" fill="#fbc600"/>
    <path id="패스_1170" data-name="패스 1170" d="M568.483,260.565a1.355,1.355,0,1,0-1.135-2.46c-3.351,1.708-4.482,5.481-4.383,9.013a1.4,1.4,0,0,0,1.239,1.463,1.365,1.365,0,0,0,1.465-1.237,10.274,10.274,0,0,1,.629-4.31A4.936,4.936,0,0,1,568.483,260.565Z" transform="translate(-558.302 -248.972)" fill="#fffae8"/>
    <path id="패스_1171" data-name="패스 1171" d="M565.1,264.634a1.356,1.356,0,0,0-.937,2.542A1.356,1.356,0,0,0,565.1,264.634Z" transform="translate(-558.018 -243.633)" fill="#fffae8"/>
    <g id="그룹_399" data-name="그룹 399" transform="translate(16.422 31.9)">
      <path id="패스_1172" data-name="패스 1172" d="M573.84,278.816c-.093-.4-.2-.8-.306-1.2-.2-.747-.4-1.494-.589-2.243-.214-.856-.408-1.717-.542-2.589-.068-.428-.105-.859-.171-1.285a1.176,1.176,0,0,0-.332-.836.362.362,0,0,0-.377,0l-.029.022a.541.541,0,0,0-.074.074.313.313,0,0,0-.194.239q-.506,2.423-1.044,4.841-.264,1.189-.535,2.375a2.788,2.788,0,0,0-.179,1.072,1.185,1.185,0,0,0,.625.611,3.231,3.231,0,0,0,1.893.293,2.933,2.933,0,0,0,1.735-.705A.63.63,0,0,0,573.84,278.816Z" transform="translate(-569.447 -270.604)" fill="#fbc600"/>
    </g>
    <path id="패스_1173" data-name="패스 1173" d="M581.251,289.033a18.871,18.871,0,0,1-18.843-6.8.424.424,0,0,1,.667-.524,18.011,18.011,0,1,0,22.874-26.879.424.424,0,1,1,.41-.742,18.858,18.858,0,0,1-5.108,34.946Z" transform="translate(-558.824 -252.177)" fill="#87180e"/>
  </g>
  <g id="그룹_402" data-name="그룹 402" transform="translate(110.791 143.538)">
    <g id="그룹_401" data-name="그룹 401" transform="translate(0 32.584)">
      <path id="패스_1174" data-name="패스 1174" d="M582.532,301.256c.221-.35.43-.709.64-1.066.392-.665.778-1.336,1.179-2,.457-.754.932-1.5,1.456-2.207.257-.348.539-.678.794-1.026a1.164,1.164,0,0,0,.361-.823.357.357,0,0,0-.263-.27l-.036-.005a.5.5,0,0,0-.105,0,.309.309,0,0,0-.3.031q-2.08,1.346-4.176,2.667-1.028.647-2.062,1.291c-.237.147-.747.372-.888.627a1.173,1.173,0,0,0,0,.874,3.232,3.232,0,0,0,1.123,1.55,2.938,2.938,0,0,0,1.723.738C582.26,301.635,582.391,301.477,582.532,301.256Z" transform="translate(-579.043 -293.831)" fill="#e52f81"/>
    </g>
    <path id="패스_1175" data-name="패스 1175" d="M581.53,309.5a5.935,5.935,0,0,0,4.259,4.2c4.069,1.039,11.356,2.4,18.232,1.162C614.3,313,619.069,306,619.508,300.41c.359-4.566-3.32-9.336-7.363-10.654a10.676,10.676,0,0,0-5.389-.379.988.988,0,0,1-1.157-1.189,9.068,9.068,0,0,0-.034-3.895,10.87,10.87,0,0,0-9.4-8.409c-4.769-.319-13.084,2.816-15.637,13.835C578.788,297.219,580.355,305.179,581.53,309.5Z" transform="translate(-578.465 -275.861)" fill="#e52f81"/>
    <path id="패스_1176" data-name="패스 1176" d="M604.413,304.27c-.3.065-.609.127-.923.183-7.057,1.271-14.566-.187-18.414-1.169a6.373,6.373,0,0,1-4.562-4.495.423.423,0,1,1,.816-.223,5.526,5.526,0,0,0,3.956,3.9c3.781.967,11.155,2.4,18.052,1.157,9.8-1.764,14.691-8.34,15.14-14.061a.423.423,0,1,1,.843.065C618.863,295.485,614.072,302.179,604.413,304.27Z" transform="translate(-577.858 -265.041)" fill="#87180e"/>
    <path id="패스_1177" data-name="패스 1177" d="M592.738,280.646a1.355,1.355,0,1,0,.95-2.538c-3.572-1.179-7.05.673-9.487,3.229a1.4,1.4,0,0,0-.17,1.911,1.365,1.365,0,0,0,1.91.17,10.321,10.321,0,0,1,3.506-2.587A4.933,4.933,0,0,1,592.738,280.646Z" transform="translate(-575.234 -274.329)" fill="#fffae8"/>
    <path id="패스_1178" data-name="패스 1178" d="M584.974,282.128a1.356,1.356,0,0,0-2.466,1.124A1.356,1.356,0,0,0,584.974,282.128Z" transform="translate(-576.332 -271.389)" fill="#fffae8"/>
  </g>
  <g id="그룹_404" data-name="그룹 404" transform="translate(105.113 115.005)">
    <path id="패스_1179" data-name="패스 1179" d="M609.516,289.354a18.434,18.434,0,1,1-4.141-25.733A18.438,18.438,0,0,1,609.516,289.354Z" transform="translate(-575.724 -260.125)" fill="#00994b"/>
    <path id="패스_1180" data-name="패스 1180" d="M588.761,265.788a1.384,1.384,0,0,0,1.6-1.053,1.368,1.368,0,0,0-1.054-1.6c-3.709-.615-6.861,1.75-8.877,4.651a1.4,1.4,0,0,0,.127,1.913,1.363,1.363,0,0,0,1.913-.125,10.312,10.312,0,0,1,3.066-3.1A4.933,4.933,0,0,1,588.761,265.788Z" transform="translate(-572.493 -257.757)" fill="#fffae8"/>
    <path id="패스_1181" data-name="패스 1181" d="M581.549,267.984a1.356,1.356,0,0,0-2.265,1.489A1.356,1.356,0,0,0,581.549,267.984Z" transform="translate(-573.356 -254.22)" fill="#fffae8"/>
    <g id="그룹_403" data-name="그룹 403" transform="translate(4.062 29.351)">
      <path id="패스_1182" data-name="패스 1182" d="M581.982,284.256c.167-.379.317-.767.469-1.151.285-.718.564-1.44.858-2.156.335-.814.691-1.623,1.1-2.4.2-.383.426-.753.626-1.137a1.161,1.161,0,0,0,.23-.868.363.363,0,0,0-.3-.227l-.038,0a.483.483,0,0,0-.1.015.307.307,0,0,0-.3.078q-1.847,1.648-3.715,3.277-.917.8-1.839,1.592c-.212.183-.682.484-.784.758a1.192,1.192,0,0,0,.142.861,3.222,3.222,0,0,0,1.349,1.36,2.916,2.916,0,0,0,1.815.462C581.774,284.673,581.877,284.5,581.982,284.256Z" transform="translate(-578.151 -276.312)" fill="#00994b"/>
    </g>
    <path id="패스_1183" data-name="패스 1183" d="M598.763,292.354a18.848,18.848,0,0,1-22.852-17.876.424.424,0,0,1,.847-.026,18.012,18.012,0,1,0,34.364-8.049.423.423,0,0,1,.208-.562.418.418,0,0,1,.56.207,18.841,18.841,0,0,1-13.128,26.306Z" transform="translate(-575.911 -255.508)" fill="#87180e"/>
  </g>
  <g id="그룹_411" data-name="그룹 411" transform="translate(71.241 129.956)">
    <g id="그룹_405" data-name="그룹 405" transform="translate(24.126 37.806)">
      <path id="패스_1184" data-name="패스 1184" d="M575.047,297.594c-.11-.411-.237-.819-.36-1.228-.232-.763-.469-1.523-.693-2.288-.254-.872-.484-1.752-.656-2.644-.085-.437-.14-.88-.225-1.316a1.207,1.207,0,0,0-.372-.849.374.374,0,0,0-.388.011l-.029.025a.428.428,0,0,0-.074.078.319.319,0,0,0-.19.252q-.43,2.516-.89,5.024-.229,1.232-.461,2.464a2.858,2.858,0,0,0-.145,1.109,1.218,1.218,0,0,0,.667.606,3.335,3.335,0,0,0,1.958.232,3.019,3.019,0,0,0,1.76-.792A.644.644,0,0,0,575.047,297.594Z" transform="translate(-570.536 -289.221)" fill="#fffae8"/>
    </g>
    <g id="그룹_410" data-name="그룹 410" transform="translate(0 0.423)">
      <g id="그룹_408" data-name="그룹 408">
        <g id="그룹_406" data-name="그룹 406">
          <path id="패스_1185" data-name="패스 1185" d="M569.05,277.952h0a13.7,13.7,0,0,0-4.205-.615,7.989,7.989,0,0,0-3.184.751,7.236,7.236,0,0,0-3.153,2.988,10.533,10.533,0,0,0-1.026,2.656,9.7,9.7,0,0,0,1.342,7.461,7.605,7.605,0,0,0,1.2,1.447,7.16,7.16,0,0,0,3.725,1.806,9.356,9.356,0,0,0,1.741.105,13.225,13.225,0,0,0,4.107-.9h0l13.345-8.319Z" transform="translate(-557.231 -261.504)" fill="#fffae8"/>
          <path id="패스_1186" data-name="패스 1186" d="M571.411,281.744h0Z" transform="translate(-545.699 -257.918)" fill="#fffae8"/>
          <path id="패스_1187" data-name="패스 1187" d="M579.484,292.179l-.531-15.349c-.732-3.338-2.123-6.562-5.847-7.635a7.676,7.676,0,0,0-2.433-.277,9.434,9.434,0,0,0-6.816,3.137,8.291,8.291,0,0,0-2.363,5.9c.167,3.015,2.285,5.371,4.1,6.85l13.893,7.378Z" transform="translate(-553.772 -268.354)" fill="#fffae8"/>
          <path id="패스_1188" data-name="패스 1188" d="M589.491,293.874l.054,0a8.726,8.726,0,0,0,1.646-.223,7.142,7.142,0,0,0,3.588-2.062,7.447,7.447,0,0,0,1.1-1.527,9.688,9.688,0,0,0,.823-7.535h0a10.425,10.425,0,0,0-1.209-2.58,7.232,7.232,0,0,0-3.351-2.761,8.24,8.24,0,0,0-3.273-.526,13.329,13.329,0,0,0-4.11.9l-13.344,8.319v0l13.885,7.373h0A13.347,13.347,0,0,0,589.491,293.874Z" transform="translate(-545.699 -262.057)" fill="#fffae8"/>
          <path id="패스_1189" data-name="패스 1189" d="M571.953,297.376c1.112,4.994,4.035,7.751,8.212,7.632l.053,0a9.539,9.539,0,0,0,7.744-4.308,7.64,7.64,0,0,0,1.44-4.629c-.123-3.077-2.316-5.485-4.105-6.952l-13.885-7.372Z" transform="translate(-545.699 -257.918)" fill="#fffae8"/>
          <path id="패스_1190" data-name="패스 1190" d="M579.017,281.744l-13.345,8.319c-1.679,1.581-3.7,4.136-3.612,7.218a7.65,7.65,0,0,0,1.757,4.517,9.555,9.555,0,0,0,8.042,3.759l.074,0c4.139-.161,6.866-3.121,7.626-8.179h0l-.542-15.632Z" transform="translate(-553.305 -257.918)" fill="#fffae8"/>
          <path id="패스_1191" data-name="패스 1191" d="M584.993,284.109h0c1.712-1.6,3.659-4.1,3.616-7.12a8.294,8.294,0,0,0-2.764-5.719,9.453,9.453,0,0,0-7-2.662,8.023,8.023,0,0,0-2.426.448c-3.637,1.329-4.8,4.642-5.3,8.023h0l.531,15.349Z" transform="translate(-545.937 -268.604)" fill="#fffae8"/>
        </g>
        <g id="그룹_407" data-name="그룹 407" transform="translate(15.054 13.78)">
          <path id="패스_1192" data-name="패스 1192" d="M586.842,285.945c.16,5.545-4.482,10.176-10.366,10.344s-10.78-4.19-10.939-9.737,4.484-10.176,10.366-10.344S586.684,280.4,586.842,285.945Z" transform="translate(-565.533 -276.203)" fill="#fbc600"/>
        </g>
      </g>
      <g id="그룹_409" data-name="그룹 409" transform="translate(19.155 18.062)">
        <path id="패스_1193" data-name="패스 1193" d="M571.129,279.988h0a.347.347,0,0,0,.169-.435c-.3-.72-.745-1.05-1.2-.963-.644.121-1.053,1.042-.848,2.538s.84,2.216,1.485,2.092c.6-.114,1-.93.878-2.265a.308.308,0,0,0-.2-.265l-.278-.1A.33.33,0,0,1,571.129,279.988Z" transform="translate(-566.652 -278.555)" fill="#87180e"/>
        <path id="패스_1194" data-name="패스 1194" d="M581.654,282.122a2.939,2.939,0,0,1-1.178-.111,2.56,2.56,0,0,1-.972-.587.557.557,0,0,0-.829.725,2.929,2.929,0,0,0,.546.58,6.01,6.01,0,0,1-5.471,4.885c-3.465.216-4.408-2.457-4.684-4.154a.607.607,0,0,0-.879-.433.67.67,0,0,0-.35.836,6.757,6.757,0,0,0,3.389,3.635,6.934,6.934,0,0,0,6.323-.071,8.12,8.12,0,0,0,3.394-4.032,4.32,4.32,0,0,0,.733,0,.578.578,0,0,0,.51-.491l.029-.2A.509.509,0,0,0,581.654,282.122Z" transform="translate(-567.795 -276.352)" fill="#87180e"/>
        <path id="패스_1195" data-name="패스 1195" d="M573.75,279.978h0a.346.346,0,0,0,.169-.435c-.3-.72-.743-1.05-1.2-.965-.644.123-1.053,1.045-.848,2.54s.84,2.216,1.485,2.092c.6-.114,1-.93.88-2.265a.311.311,0,0,0-.2-.265l-.278-.1A.328.328,0,0,1,573.75,279.978Z" transform="translate(-564.522 -278.565)" fill="#87180e"/>
      </g>
    </g>
    <path id="패스_1196" data-name="패스 1196" d="M585.506,316.068a10.811,10.811,0,0,1-1.885.236c-3.888.114-6.8-2.147-8.22-6.263-1.126,4.208-3.849,6.664-7.674,6.812a.457.457,0,0,1-.477-.4.4.4,0,0,1,.365-.441l.045,0c3.96-.158,6.524-2.932,7.258-7.821a.424.424,0,0,1,.833-.029c1.073,4.821,3.839,7.414,7.788,7.3A9.153,9.153,0,0,0,591,311.334a7.213,7.213,0,0,0,1.364-4.372c-.116-2.914-2.212-5.22-3.949-6.642a.423.423,0,0,1,.39-.732,12.841,12.841,0,0,0,4.06.6,8.227,8.227,0,0,0,1.616-.214,6.7,6.7,0,0,0,3.376-1.938,7,7,0,0,0,1.034-1.438,9.271,9.271,0,0,0,.791-7.206,9.876,9.876,0,0,0-1.159-2.475,6.786,6.786,0,0,0-3.151-2.6,7.766,7.766,0,0,0-3.1-.5,12.763,12.763,0,0,0-3.975.878.424.424,0,0,1-.441-.705c1.612-1.51,3.523-3.918,3.481-6.805a7.88,7.88,0,0,0-2.635-5.422A9.032,9.032,0,0,0,582,269.222a7.6,7.6,0,0,0-2.29.422c-3.648,1.333-4.6,4.807-5.028,7.686a.423.423,0,0,1-.838-.123c.459-3.111,1.507-6.874,5.574-8.359a8.453,8.453,0,0,1,2.553-.473,9.857,9.857,0,0,1,7.313,2.78,8.715,8.715,0,0,1,2.894,6.018,9.479,9.479,0,0,1-2.571,6.208,12.052,12.052,0,0,1,2.626-.41,8.62,8.62,0,0,1,3.445.555,7.644,7.644,0,0,1,3.549,2.919,10.811,10.811,0,0,1,1.258,2.687,10.11,10.11,0,0,1-.854,7.867,7.758,7.758,0,0,1-1.157,1.612,7.57,7.57,0,0,1-3.8,2.185,9.7,9.7,0,0,1-1.726.236,12.837,12.837,0,0,1-2.743-.229,9.434,9.434,0,0,1,3,6.123,8.066,8.066,0,0,1-1.512,4.885A9.941,9.941,0,0,1,585.506,316.068Z" transform="translate(-549.083 -268.37)" fill="#87180e"/>
    <path id="패스_1197" data-name="패스 1197" d="M567.008,288.685a11.807,11.807,0,0,1-2.027.263,9.7,9.7,0,0,1-1.828-.109,7.6,7.6,0,0,1-3.942-1.915,8.066,8.066,0,0,1-1.269-1.527.424.424,0,0,1,.714-.459,7.134,7.134,0,0,0,1.132,1.366,6.741,6.741,0,0,0,3.505,1.7,8.8,8.8,0,0,0,1.663.1,12.668,12.668,0,0,0,3.967-.874.423.423,0,0,1,.3.792A15.593,15.593,0,0,1,567.008,288.685Z" transform="translate(-556.706 -255.054)" fill="#87180e"/>
    <path id="패스_1198" data-name="패스 1198" d="M565.868,281.351a.417.417,0,0,1-.357-.085c-1.844-1.5-4.078-3.965-4.254-7.155a.417.417,0,0,1,.4-.446.425.425,0,0,1,.446.4c.158,2.881,2.23,5.15,3.942,6.546a.424.424,0,0,1-.177.742Z" transform="translate(-553.958 -264.066)" fill="#87180e"/>
  </g>
</svg>
