<svg xmlns="http://www.w3.org/2000/svg" width="200" height="127.017" viewBox="0 0 200 127.017">
  <g id="그룹_286" data-name="그룹 286" transform="translate(0 -0.001)">
    <path id="패스_856" data-name="패스 856" d="M4451.01,2435.276c-2.312-10.238-13.283-15.593-23.479-16.032a21.8,21.8,0,0,0-12.053-21.089c-7.863-3.886-18.551-3.977-26.443.333-2.289-8.336-9.668-15.875-24.422-15.615-12.123.213-21.629,8.674-23.057,16.538-3.223-7.066-18.111-14.245-32.746-10.41-15.5,4.058-22.418,14.91-23.127,24.629-3.514-.74-11.152-.533-16.686,1.3-8.326,2.756-13.395,8.923-16.1,18.1-2.4,8.133,1.639,17.49,8.633,23.829a22.1,22.1,0,0,0,14.148,5.084c-3.137,3.042-3.916,11.742-2.834,16.088,1.955,7.835,8.127,14.111,15.488,17.343,12.611,5.537,31.809,1.268,38.129-9.969,3.045,12.1,17.25,19.806,30.783,20.777,14.307,1.027,29.8-6.416,32.713-19.172a23.51,23.51,0,0,0,6.412,3.428c6.7,2.352,14.125,1.106,20.346-1.984,8.615-4.278,13.584-14.13,12.506-23.785,6.738.466,15.4-4.646,18.73-9.748C4450.9,2450.414,4452.691,2442.721,4451.01,2435.276Z" transform="translate(-4252.051 -2381.861)" fill="#fff6d8"/>
    <g id="그룹_274" data-name="그룹 274" transform="translate(0 0)">
      <path id="패스_857" data-name="패스 857" d="M4528.205,2381.03c-9.535,4.347-16.932,8.206-23.049,16.536-1.8-11.537,12.9-20.676,23.049-16.536Z" transform="translate(-4415.648 -2380.017)" fill="#2b2523"/>
      <path id="패스_858" data-name="패스 858" d="M4666.412,2415.793c-9.9-.246-16.549-.292-26.441.336,6.2-7.95,19.986-7.951,26.441-.336Z" transform="translate(-4502.986 -2399.501)" fill="#2b2523"/>
      <path id="패스_859" data-name="패스 859" d="M4252.618,2525.014c-2.816,13.451,9.02,28.122,22.775,27.5a1.422,1.422,0,0,1,.99,2.432c-7.377,11.246,1.184,26.779,13.262,30.628,11.279,4.162,27.846,1.241,34.3-9.432a2.569,2.569,0,0,1,4.7.627c7.619,23.247,50.98,26.307,58.719,1.672a2.369,2.369,0,0,1,3.74-1.336c7,5.513,16.729,5.355,24.561,1.518,7.865-3.684,12.754-12.954,11.871-21.849a1.394,1.394,0,0,1,1.5-1.517c14.8.492,24.656-13.945,21.686-27.991,4.51,14.693-6.082,30.736-21.881,30.788l1.494-1.553c1.338,9.938-3.6,20.738-12.895,25.63-8.914,4.93-20.9,5.313-29.2-1.239l3.752-1.365c-8.711,29.985-59.7,27.363-68.293-1.51l4.7.626c-4.152,7-11.432,10.665-18.512,12.4-14.316,3.83-31.629-2.191-37.662-16.488-2.8-7.056-2.711-15.288,2.178-21.641l.986,2.433c-14.7.01-27.027-16.319-22.775-30.331Z" transform="translate(-4251.768 -2473.849)" fill="#2b2523"/>
      <path id="패스_860" data-name="패스 860" d="M4369.211,2400.062c-10.576,6.922-17.984,12.813-23.123,24.629-3.473-13.212,10.379-26.012,23.123-24.629Z" transform="translate(-4312.455 -2392.92)" fill="#2b2523"/>
    </g>
    <g id="그룹_285" data-name="그룹 285" transform="translate(27.038 75.556)">
      <g id="그룹_275" data-name="그룹 275">
        <path id="패스_861" data-name="패스 861" d="M4332.5,2604.79c2.592-1.795,5.059-3.765,7.643-5.576a2.93,2.93,0,0,0,1.252-1.63,2.805,2.805,0,0,0-.275-2.1,2.737,2.737,0,0,0-1.629-1.256,2.707,2.707,0,0,0-2.105.274c-2.582,1.809-5.045,3.781-7.641,5.577a2.905,2.905,0,0,0-1.252,1.628,2.728,2.728,0,0,0,4.008,3.08Z" transform="translate(-4328.394 -2594.139)" fill="#2b2523"/>
      </g>
      <g id="그룹_276" data-name="그룹 276" transform="translate(0.323 8.721)">
        <path id="패스_862" data-name="패스 862" d="M4333.408,2631.886c3.586-2.6,7.078-5.324,10.664-7.925a2.951,2.951,0,0,0,1.254-1.629,2.8,2.8,0,0,0-.275-2.1,2.762,2.762,0,0,0-3.734-.979c-3.586,2.6-7.076,5.325-10.664,7.925a2.922,2.922,0,0,0-1.248,1.629,2.725,2.725,0,0,0,4,3.08Z" transform="translate(-4329.31 -2618.853)" fill="#2b2523"/>
      </g>
      <g id="그룹_277" data-name="그룹 277" transform="translate(6.901 16.129)">
        <path id="패스_863" data-name="패스 863" d="M4352.609,2652.132c1.59-1.271,3.18-2.537,4.787-3.793l1.242-.967.365-.284c.371-.29-.391.3-.131.1.2-.152.4-.306.6-.459q1.166-.894,2.35-1.767a2.965,2.965,0,0,0,1.254-1.629,2.755,2.755,0,0,0-.277-2.1c-.732-1.141-2.5-1.88-3.729-.979-3.52,2.573-6.916,5.312-10.324,8.025a2.732,2.732,0,0,0-.8,1.93,2.782,2.782,0,0,0,.8,1.928,2.752,2.752,0,0,0,1.932.8,3.17,3.17,0,0,0,1.93-.8Z" transform="translate(-4347.951 -2639.847)" fill="#2b2523"/>
      </g>
      <g id="그룹_278" data-name="그룹 278" transform="translate(16.243 21.453)">
        <path id="패스_864" data-name="패스 864" d="M4379.082,2666.45c2.8-2.224,5.488-4.581,8.242-6.859a2.732,2.732,0,0,0,.8-1.928,2.774,2.774,0,0,0-.8-1.929,2.737,2.737,0,0,0-1.93-.8,3.1,3.1,0,0,0-1.928.8c-2.754,2.277-5.443,4.636-8.244,6.858a2.732,2.732,0,0,0-.8,1.931,2.781,2.781,0,0,0,.8,1.927,2.737,2.737,0,0,0,1.93.8,3.149,3.149,0,0,0,1.93-.8Z" transform="translate(-4374.426 -2654.934)" fill="#2b2523"/>
      </g>
      <g id="그룹_279" data-name="그룹 279" transform="translate(28.942 22.736)">
        <path id="패스_865" data-name="패스 865" d="M4415.068,2669.251q3.513-3.009,7.018-6.021a2.729,2.729,0,0,0-1.926-4.657,3.055,3.055,0,0,0-1.928.8q-3.519,3.013-7.023,6.021a2.754,2.754,0,0,0-.8,1.928,2.782,2.782,0,0,0,.8,1.929,2.749,2.749,0,0,0,1.928.8,3.049,3.049,0,0,0,1.932-.8Z" transform="translate(-4410.412 -2658.571)" fill="#2b2523"/>
      </g>
      <g id="그룹_280" data-name="그룹 280" transform="translate(53.3 14.834)">
        <path id="패스_866" data-name="패스 866" d="M4484.1,2645.445c1.82-1.47,3.473-3.14,5.291-4.61a2.727,2.727,0,0,0-1.93-4.655c-.24.034-.482.064-.725.1a2.7,2.7,0,0,0-1.2.7c-1.818,1.469-3.473,3.142-5.291,4.609a2.726,2.726,0,0,0-.8,1.928,2.781,2.781,0,0,0,.8,1.93,2.734,2.734,0,0,0,1.93.8l.725-.1a2.752,2.752,0,0,0,1.2-.7Z" transform="translate(-4479.443 -2636.177)" fill="#2b2523"/>
      </g>
      <g id="그룹_281" data-name="그룹 281" transform="translate(58.102 19.054)">
        <path id="패스_867" data-name="패스 867" d="M4497.707,2661.263c3.295-2.727,6.393-5.682,9.611-8.5a2.747,2.747,0,0,0,0-3.856,2.8,2.8,0,0,0-3.861,0c-3.219,2.815-6.311,5.771-9.605,8.5a2.728,2.728,0,0,0,1.928,4.656,3.1,3.1,0,0,0,1.928-.8Z" transform="translate(-4493.055 -2648.136)" fill="#2b2523"/>
      </g>
      <g id="그룹_282" data-name="그룹 282" transform="translate(66.776 24.599)">
        <path id="패스_868" data-name="패스 868" d="M4522.285,2676.848c3.023-2.745,5.934-5.616,8.959-8.365a2.745,2.745,0,0,0,0-3.857,2.79,2.79,0,0,0-3.857,0c-3.021,2.749-5.932,5.62-8.963,8.368a2.747,2.747,0,0,0,0,3.854,2.791,2.791,0,0,0,3.861,0Z" transform="translate(-4517.634 -2663.851)" fill="#2b2523"/>
      </g>
      <g id="그룹_283" data-name="그룹 283" transform="translate(77.616 27.816)">
        <path id="패스_869" data-name="패스 869" d="M4553,2685.88c2.885-2.729,5.686-5.547,8.57-8.279a2.749,2.749,0,0,0,0-3.856,2.784,2.784,0,0,0-3.857,0c-2.885,2.73-5.687,5.55-8.57,8.28a2.75,2.75,0,0,0,0,3.855,2.784,2.784,0,0,0,3.857,0Z" transform="translate(-4548.354 -2672.968)" fill="#2b2523"/>
      </g>
      <g id="그룹_284" data-name="그룹 284" transform="translate(90.851 28.719)">
        <path id="패스_870" data-name="패스 870" d="M4590.516,2686.63c2.393-2.021,4.619-4.26,6.836-6.467a2.726,2.726,0,0,0-3.854-3.857c-2.219,2.209-4.443,4.445-6.834,6.467a2.722,2.722,0,0,0-.8,1.929,2.767,2.767,0,0,0,.8,1.929,2.717,2.717,0,0,0,1.924.8,3.039,3.039,0,0,0,1.928-.8Z" transform="translate(-4585.861 -2675.526)" fill="#2b2523"/>
      </g>
    </g>
  </g>
</svg>
