<svg xmlns="http://www.w3.org/2000/svg" width="198.996" height="200.006" viewBox="0 0 198.996 200.006">
  <path id="Shape_1" data-name="Shape 1" d="M99.5,175.586c.048,7.387.025,15.5,0,24.416C99.475,191.086,99.451,182.973,99.5,175.586Zm-74.927-74.6c67.96-.442,74.484-6.942,74.928-74.584.444,67.637,6.981,74.141,74.928,74.584-67.966.443-74.485,6.946-74.928,74.6C99.056,107.935,92.523,101.428,24.572,100.984Zm149.856,0c7.43-.048,15.6-.024,24.57,0-5.182.014-10.084.028-14.742.028Q179.138,101.012,174.428,100.984ZM0,100.984c8.978-.024,17.136-.048,24.57,0q-4.716.031-9.829.028Q7.765,101.012,0,100.984ZM153.677,76.511c.021,3.262.011,6.849,0,10.788C153.666,83.36,153.655,79.772,153.677,76.511ZM120.635,43.647c29.967-.195,32.845-3.053,33.042-32.864.2,29.809,3.08,32.669,33.041,32.864-29.968.195-32.845,3.052-33.041,32.863C153.48,46.7,150.6,43.842,120.635,43.647Zm66.083,0c3.272-.021,6.871-.011,10.821,0q-3.418.009-6.487.012Q188.8,43.66,186.718,43.647Zm-76.9,0c3.952-.011,7.547-.021,10.821,0q-2.08.014-4.334.012Q113.231,43.66,109.814,43.647ZM99.5,1.966c.025,8.922.049,17.043,0,24.434C99.451,19.009,99.475,10.888,99.5,1.966ZM153.677,0c.011,3.939.022,7.526,0,10.787C153.655,7.522,153.666,3.935,153.677,0Z" transform="translate(-0.002 0.004)" fill="#fff"/>
</svg>
