<svg xmlns="http://www.w3.org/2000/svg" width="177.174" height="200.001" viewBox="0 0 177.174 200.001">
  <g id="그룹_317" data-name="그룹 317" transform="translate(0)">
    <g id="그룹_313" data-name="그룹 313" transform="translate(1.672 38.927)">
      <path id="패스_938" data-name="패스 938" d="M3608.316,2474.774c-.211-4.283-1.574-9.145-5.484-10.9-4.782-2.147-12.2,1.046-16.3-2.216-2.844-2.265-2.839-6.533-2.326-10.131,1.664-11.762,8-22.275,10.879-33.8s3.857-23.809.184-35.109c-4.848-14.916-17.684-26.278-36.862-33.8-17.465-7.157-36.87-4.711-49.847,4.1-9.829,6.673-16.587,16.974-21.384,27.847s-6.237,23.061-12.134,33.378c-1.8,3.153-4.416,6.527-8.049,6.572-5.237.063-9.336-7.073-14.425-8.309-4.165-1.01-8.223,2-11.016,5.246-6.987,8.136-9.268,20.444-5.011,30.287a29.63,29.63,0,0,0,5.372,8.025c6.831,7.532,17,10.892,22.8,12.274,0,0,17.678,14.937,31,12.588,17.215-3.036,24.211-24.24,24.211-24.24s-6.68,19.528,1.679,30.87c13.736,18.645,36.233,11.924,36.233,11.924,5.563,2.567,16.875,7.268,26.885,5.507,3.188-.56,5.318-1.835,8.151-3.393C3602.276,2496.321,3608.849,2485.483,3608.316,2474.774Z" transform="translate(-3434.398 -2344.622)" fill="#ffdc00"/>
      <path id="패스_939" data-name="패스 939" d="M3531.351,2705.534c-4.132-2.333-11.513-1.423-14.119,2.54-.179,2.134,2.415,5.745,3.689,7.466,1.825,2.464,3.409,4.721,4.946,6.8,5.694,4.133,17.936,11.866,27.8,10.126a23.043,23.043,0,0,0,3.893-1.083c-6.639-2.44-13.1-11.683-16.609-16.808A27.366,27.366,0,0,0,3531.351,2705.534Z" transform="translate(-3492.351 -2596.268)" fill="#ff9ac9"/>
      <path id="패스_940" data-name="패스 940" d="M3769.167,2814.572c.967-5.325-4.35-10.085-9.045-10.774a27.421,27.421,0,0,0-13.125,1.25c-5.928,1.9-17.213,5.037-23.119,3.035.1.142.174.3.279.44,13.736,18.643,36.234,11.923,36.234,11.923C3762.382,2819.655,3768,2816.368,3769.167,2814.572Z" transform="translate(-3636.947 -2665.696)" fill="#ff9ac9"/>
      <path id="패스_941" data-name="패스 941" d="M3872.348,2832.493c3.186-.562,5.314-1.837,8.148-3.395a30.747,30.747,0,0,0,13.727-16.262c-16.01,17.45-48.764,14.147-48.764,14.147C3851.023,2829.553,3862.336,2834.253,3872.348,2832.493Z" transform="translate(-3722.018 -2672.235)" fill="#ff9ac9"/>
      <path id="패스_942" data-name="패스 942" d="M3436.052,2620.936a28.783,28.783,0,0,0,.535,20.335,29.592,29.592,0,0,0,5.374,8.025c6.831,7.531,17,10.89,22.8,12.274C3464.758,2661.57,3438.1,2644.629,3436.052,2620.936Z" transform="translate(-3434.441 -2537.961)" fill="#ff9ac9"/>
    </g>
    <path id="패스_943" data-name="패스 943" d="M3742.044,2548.075a17.167,17.167,0,1,1-10.676-21.8A17.168,17.168,0,0,1,3742.044,2548.075Z" transform="translate(-3624.608 -2432.145)" fill="#fff"/>
    <path id="패스_944" data-name="패스 944" d="M3759.457,2573.31a4.591,4.591,0,1,1-2.854-5.83A4.589,4.589,0,0,1,3759.457,2573.31Z" transform="translate(-3653.921 -2461.455)" fill="#2b2523"/>
    <path id="패스_945" data-name="패스 945" d="M3549.5,2629.007c-5.6-5.865-14.205-12.757-22.565-8.784-12,6.517-17.272,25.46-8.434,36.351,5.469,6.268,13.958,10.52,22.039,12.712,15.622,4.151,27.322-8.646,32.646-22.131-2.941,11.575-11.183,23.772-23.875,25.67-9.445,1.313-18.712-2.683-26.527-7.625-3.9-2.636-7.734-5.967-9.841-10.36-4.855-10.238-2.1-22.944,5.383-31.169,10.538-12.264,23.221-5.965,31.175,5.337Z" transform="translate(-3485.989 -2496.271)" fill="#2b2523"/>
    <path id="패스_946" data-name="패스 946" d="M3483.283,2464.951c-4.175,11.453-5.115,23.708-11.146,34.581-4.089,7.624-10.26,9.339-16.961,3.459-4.507-3.761-7.95-7.083-13.5-2.456a27.288,27.288,0,0,0-8.583,14.173c-5.011,19.433,10.563,32.693,27.729,37.719-11.936-1.977-24.272-8.357-29.57-19.854-3.935-8.788-2.91-19.326,1.913-27.55,2.491-4.133,5.835-8.255,10.653-9.932,5.175-2.05,10.089,1.936,13.6,5.153,2.21,1.881,4.489,3.437,6.6,2.9,9.727-3.684,13.559-28.653,19.263-38.192Z" transform="translate(-3428.831 -2389.89)" fill="#2b2523"/>
    <path id="패스_947" data-name="패스 947" d="M3845.946,2358.808c32.9,11.368,46.945,35.041,38.443,69.156-2.947,12.106-9.223,22.342-10.871,34.31-2.162,15.44,12.422,5.064,19.592,11.331a12.738,12.738,0,0,1,3.881,7.237c2.475,12.737-5.08,25.891-16.3,31.717-10.143,4.883-22.309,3.568-32.135-1.424l-3.182-1.761c12.371,6.392,29.338,7.417,39.855-2.9,6.584-6.245,10.49-15.98,8.547-24.928a9.48,9.48,0,0,0-2.863-5.316c-1.389-1.205-3.43-1.42-5.73-1.384-4.908.287-12.318,1.021-14.629-4.931-1.969-5.359-.4-10.355.781-15.477,2.723-9.587,7.309-18.2,9.611-27.329,8.8-33.107-4.271-55-35-68.3Z" transform="translate(-3720.287 -2315.62)" fill="#2b2523"/>
    <path id="패스_948" data-name="패스 948" d="M3740.778,2714.269c8.445-2.564,20.322-3.092,25.361,5.724,7.322,14.23-1.078,34.973-16.975,38.729-9.355,1.71-18.867-.287-27.416-4.165-15.836-7.34-17.2-26.134-10.809-40.475-4.061,13.92-2.674,31.2,12.215,37.5,7.73,3.226,17.043,5.07,25.2,3.473,13.666-3.184,21.111-21.381,15.631-33.885-4.17-8.267-15.186-8.093-23.211-6.9Z" transform="translate(-3623.721 -2563.19)" fill="#2b2523"/>
    <path id="패스_949" data-name="패스 949" d="M3804.149,2265.172c1.389-7.117-2.871-12.342-9.666-15.888a1.85,1.85,0,0,1-.932-1.267,2.6,2.6,0,0,1,.566-1.733c3.113-5.225,2.719-12.068-.064-17.475s-9.309-10.477-16.732-13.818a8.137,8.137,0,0,1-4.1,11.041c-2.221.831-4.668.612-7.031.44-6.041-.44-12.332-2.046-19.26-.287-5.65,1.438-11.375,4.762-14.357,11.15-2.561,5.487-2.957,11.518,1.072,17.477a34.754,34.754,0,0,0,7.4,7.124c13.387,9.109,25.668,14.051,41.7,16.342,3.084.441,8.553.478,11.473-.6C3799.917,2275.583,3803.065,2270.718,3804.149,2265.172Z" transform="translate(-3639.998 -2214.992)" fill="#e4222f"/>
    <path id="패스_950" data-name="패스 950" d="M3731.518,2237.336c-4.623,11.139,1.76,19.47,11.176,24.927a96.147,96.147,0,0,0,40.5,14.331c7.516.757,14.313-.962,17.223-8.621,3.3-7.757-.717-13.658-7.664-17.337a3.239,3.239,0,0,1-1.641-3.6c.727-1.863,1.721-2.871,2.193-4.745,2.549-8.2-1.814-16.645-8.4-21.652a51.439,51.439,0,0,0-8.631-5.646c6.5,2.571,12.775,6.3,16.873,12.2,3.979,5.937,4.535,14.451.809,20.567-.01.055.008.008,0-.021.051.192.35.278.5.369,11.109,5.3,13.951,16.257,6.516,26.158-4.225,5.651-11.541,6.73-18.105,6a90.26,90.26,0,0,1-41.512-15.954c-9.537-6.261-15.936-15.864-9.834-26.978Z" transform="translate(-3638.948 -2214.992)" fill="#2b2523"/>
    <path id="패스_951" data-name="패스 951" d="M3729.866,2528.441c19.029,5.041,16.455,31.964-2.52,35-13.469,2.276-25.209-11.652-19.283-24.32-3.115,13.462,10.266,25.457,22.963,19.3,12.658-6.246,11.391-24.187-1.16-29.972Z" transform="translate(-3623.109 -2434.314)" fill="#2b2523"/>
    <path id="패스_952" data-name="패스 952" d="M3749.771,2457.521h0a1.449,1.449,0,0,0,1.3-1.459c-.109-3.259-1.373-5.208-3.27-5.534-2.707-.466-5.664,2.537-7.057,8.7s.037,9.918,2.742,10.383c2.537.437,5.289-2.179,6.773-7.582a1.3,1.3,0,0,0-.4-1.333l-.934-.8A1.372,1.372,0,0,1,3749.771,2457.521Z" transform="translate(-3646.698 -2379.764)" fill="#2b2523"/>
    <path id="패스_953" data-name="패스 953" d="M3816.875,2474.85h0a1.451,1.451,0,0,0,1.3-1.459c-.109-3.259-1.373-5.209-3.271-5.534-2.705-.465-5.662,2.536-7.055,8.7s.037,9.918,2.742,10.383c2.537.436,5.289-2.178,6.771-7.583a1.289,1.289,0,0,0-.4-1.331l-.934-.8A1.374,1.374,0,0,1,3816.875,2474.85Z" transform="translate(-3693.65 -2391.89)" fill="#2b2523"/>
    <g id="그룹_314" data-name="그룹 314" transform="translate(48.027 88.323)">
      <path id="패스_954" data-name="패스 954" d="M3612.63,2515.565l7.791-2.74a1.879,1.879,0,1,0-1-3.623q-3.9,1.368-7.793,2.741a1.879,1.879,0,1,0,1,3.622Z" transform="translate(-3603.79 -2509.115)" fill="#2b2523"/>
      <path id="패스_955" data-name="패스 955" d="M3601.958,2543.894q5.543-1.9,11.082-3.8a1.879,1.879,0,0,0-1-3.623q-5.543,1.906-11.082,3.8a1.879,1.879,0,1,0,1,3.622Z" transform="translate(-3596.323 -2528.193)" fill="#2b2523"/>
      <path id="패스_956" data-name="패스 956" d="M3591.153,2576.454l10.938-3.834a1.879,1.879,0,1,0-1-3.622l-10.937,3.834a1.879,1.879,0,1,0,1,3.622Z" transform="translate(-3588.763 -2550.954)" fill="#2b2523"/>
    </g>
    <g id="그룹_315" data-name="그룹 315" transform="translate(7.753 118.021)">
      <path id="패스_957" data-name="패스 957" d="M3464.675,2614.408l7.644-2.688a1.879,1.879,0,1,0-1-3.622l-7.643,2.687a1.88,1.88,0,0,0,1,3.624Z" transform="translate(-3459.991 -2608.009)" fill="#2b2523"/>
      <path id="패스_958" data-name="패스 958" d="M3457.04,2644.984q4.717-1.617,9.435-3.238a1.879,1.879,0,1,0-1-3.622l-9.436,3.238a1.879,1.879,0,1,0,1,3.622Z" transform="translate(-3454.648 -2629.022)" fill="#2b2523"/>
    </g>
    <g id="그룹_316" data-name="그룹 316" transform="translate(32.54 133.819)">
      <path id="패스_959" data-name="패스 959" d="M3547.025,2667.017q3.825-1.343,7.643-2.688a1.879,1.879,0,0,0-1-3.623q-3.823,1.345-7.643,2.688a1.879,1.879,0,0,0,1,3.624Z" transform="translate(-3542.4 -2660.618)" fill="#2b2523"/>
      <path id="패스_960" data-name="패스 960" d="M3585.771,2749.06q3.829-1.345,7.645-2.689a1.879,1.879,0,1,0-1-3.622q-3.817,1.345-7.641,2.688a1.879,1.879,0,0,0,1,3.623Z" transform="translate(-3569.51 -2718.024)" fill="#2b2523"/>
      <path id="패스_961" data-name="패스 961" d="M3539.579,2697.3q5.544-1.9,11.083-3.8a1.879,1.879,0,1,0-1-3.622l-11.083,3.8a1.88,1.88,0,0,0,1,3.624Z" transform="translate(-3537.188 -2681.031)" fill="#2b2523"/>
      <path id="패스_962" data-name="패스 962" d="M3556.169,2724.51l11.083-3.8a1.88,1.88,0,0,0-1-3.625l-11.083,3.8a1.879,1.879,0,0,0,1,3.623Z" transform="translate(-3548.798 -2700.066)" fill="#2b2523"/>
    </g>
  </g>
</svg>
