<svg xmlns="http://www.w3.org/2000/svg" width="200" height="149.429" viewBox="0 0 200 149.429">
  <g id="그룹_296" data-name="그룹 296" transform="translate(0)">
    <g id="그룹_290" data-name="그룹 290" transform="translate(105.325 0)">
      <path id="패스_879" data-name="패스 879" d="M6284.578,2611.339s48.57-18.148,43.141-60.044C6327.719,2551.295,6279.012,2552.8,6284.578,2611.339Z" transform="translate(-6284.135 -2549.66)" fill="#008a40"/>
      <path id="패스_880" data-name="패스 880" d="M6297.049,2577.682c1.344-17.06,19.4-27.969,35.039-29.945a3.56,3.56,0,0,1,4.07,3.876c-1.07,10.069-2.652,21.128-8.562,29.922-2.047,2.923-4.883,5.572-8.262,6.516,9.6-9.829,8-24.348,9.707-37.111l4.145,3.86c-14.773,2.55-28.781,8.885-36.137,22.883Z" transform="translate(-6291.197 -2547.688)" fill="#2b2523"/>
    </g>
    <g id="그룹_291" data-name="그룹 291" transform="translate(0 93.818)">
      <path id="패스_881" data-name="패스 881" d="M6120.631,2755.416s-51.168-8.343-67.242,30.727C6053.389,2786.143,6096.424,2809,6120.631,2755.416Z" transform="translate(-6052.658 -2754.669)" fill="#008a40"/>
      <path id="패스_882" data-name="패스 882" d="M6099.332,2786.488c-9.633,14.139-30.73,14.656-45.289,8.609a3.564,3.564,0,0,1-1.609-5.384c5.93-8.21,12.793-17.022,22.281-21.729,3.227-1.523,7.008-2.412,10.41-1.562-13.211,3.776-19.035,17.169-26.848,27.409l-1.676-5.409c14.082,5.116,29.391,6.566,42.73-1.936Z" transform="translate(-6051.771 -2760.915)" fill="#2b2523"/>
    </g>
    <g id="그룹_292" data-name="그룹 292" transform="translate(129.984 90.699)">
      <path id="패스_883" data-name="패스 883" d="M6338.543,2752.7s29.594,42.573,68.844,26.947C6407.387,2779.648,6393.887,2732.828,6338.543,2752.7Z" transform="translate(-6338.543 -2747.787)" fill="#008a40"/>
      <path id="패스_884" data-name="패스 884" d="M6403.764,2752.465c16.855-2.911,31.891,11.883,37.68,26.552a3.559,3.559,0,0,1-2.754,4.9c-10.023,1.457-21.129,2.65-31.109-.892-3.34-1.265-6.605-3.361-8.355-6.4,11.9,6.865,25.57,1.73,38.363.229l-2.715,4.967c-6.129-13.679-15.734-25.685-31.109-29.355Z" transform="translate(-6371.717 -2750.143)" fill="#2b2523"/>
    </g>
    <g id="그룹_295" data-name="그룹 295" transform="translate(22.288 17.779)">
      <g id="그룹_293" data-name="그룹 293" transform="translate(1.368 0.185)">
        <path id="패스_885" data-name="패스 885" d="M6281.66,2658.718s8.238-19.786,19.145-26.273c10.891-6.492,20.16-5,25.723-.672,6.219,4.839,12.723,18.059-3.555,28.821a41.443,41.443,0,0,1-32.723,5.709Z" transform="translate(-6201.113 -2609.584)" fill="#1487c9"/>
        <path id="패스_886" data-name="패스 886" d="M6301.936,2709.479s15.211-11.936,33.8-12.108c16.266-.151,24.484,9.646,23.73,17.56s-12.254,19-28.34,14.859-28.871-17.422-28.871-17.422Z" transform="translate(-6212.199 -2647.488)" fill="#1487c9"/>
        <path id="패스_887" data-name="패스 887" d="M6295.668,2740.666s16.766,2.4,27.383,9.856,18.273,19.791,8.836,29.65-26.754,5.254-33.535-7.623a93.012,93.012,0,0,1-8.9-23.983Z" transform="translate(-6205.372 -2671.159)" fill="#1487c9"/>
        <path id="패스_888" data-name="패스 888" d="M6254.164,2637.8s12.008-17.457,13.531-29.124-7.137-21.36-17.215-21.363-17.273,7.94-17.613,20.357,9.266,27.679,9.266,27.679Z" transform="translate(-6174.431 -2587.317)" fill="#1487c9"/>
        <path id="패스_889" data-name="패스 889" d="M6193.2,2646.788s-7.012-14.625-11.312-21.084-16.8-14.2-27.742-8.116-10.977,19.376-4.363,27.964,25.871,17.519,33.363,17.708Z" transform="translate(-6126.551 -2602.66)" fill="#1487c9"/>
        <path id="패스_890" data-name="패스 890" d="M6158.182,2707.444s-15.66-10.354-29.051-10.451-23.84,5.355-25.1,16.648,14.8,21.567,24.566,20.729c10.254-.878,26.027-7.529,33.453-16.4Z" transform="translate(-6103.96 -2647.28)" fill="#1487c9"/>
        <path id="패스_891" data-name="패스 891" d="M6244.6,2764.648s-9.574,14.332-9.555,26.986c.031,11.451,9.609,23.338,22.094,22.581,12.18-.739,18.957-12.865,16.3-23.089s-10.395-22.531-13.664-26.317Z" transform="translate(-6175.631 -2684.269)" fill="#1487c9"/>
        <path id="패스_892" data-name="패스 892" d="M6188.824,2744.187s-14.418,6.7-24.215,14.245-14.465,21.645-5.355,30.852,23.309,4.864,29.02-3.593,10.848-28.228,10.918-33.1Z" transform="translate(-6131.515 -2673.083)" fill="#1487c9"/>
      </g>
      <path id="패스_893" data-name="패스 893" d="M6259.357,2708.707c-2.109,11.362-14.727,18.547-28.18,16.051s-22.652-13.726-20.547-25.089,14.719-18.549,28.176-16.052S6261.467,2697.346,6259.357,2708.707Z" transform="translate(-6160.748 -2639.511)" fill="#ffdc00"/>
      <g id="그룹_294" data-name="그룹 294">
        <path id="패스_894" data-name="패스 894" d="M6230.3,2613.929c-11.715-21.184,22.254-38.785,33.551-17.094,4.359,10.417.492,23.415-8.2,29.735a33.722,33.722,0,0,0,4.25-18.453c-1.254-23.229-32.52-15.456-29.605,5.812Z" transform="translate(-6170.344 -2586.911)" fill="#2b2523"/>
        <path id="패스_895" data-name="패스 895" d="M6297.26,2643.135c5.027-18.411,39.273-24.24,43.434-2.364,1.3,6.056-.68,13.688-6.3,16.262,3.27-4.832,2.543-10.273.859-14.746-6.465-14.96-28.453-8.235-37.988.849Z" transform="translate(-6208.279 -2608.66)" fill="#2b2523"/>
        <path id="패스_896" data-name="패스 896" d="M6187.521,2637.86c-3.223-6.692-7.289-12.677-12.652-16.545-10.156-7.727-26.836-5.468-27.449,9.411-.473,6.493,1.023,13.62,6.648,18.662-7.6-2.463-11.906-10.946-12.3-18.7-1.738-21.077,23.93-26.988,36.758-13.655a30.948,30.948,0,0,1,9,20.826Z" transform="translate(-6123.213 -2599.494)" fill="#2b2523"/>
        <path id="패스_897" data-name="패스 897" d="M6145.879,2697.676c-12.7-3.163-30.461-4.924-36.891,8.133-4.449,8.422,4.48,18.959,13.316,21.286a31.431,31.431,0,0,0,10.879,1.748,24.268,24.268,0,0,1-23.176-2.394,19.045,19.045,0,0,1,1.531-33.289c11.133-6.036,25.012-2.291,34.34,4.516Z" transform="translate(-6100.942 -2643.343)" fill="#2b2523"/>
        <path id="패스_898" data-name="패스 898" d="M6314.809,2775.91c4.34,5.439,9.754,10.618,16.949,10.943,14.9,1.391,17.691-17.451,7.633-25.834-4.777-4.62-11.77-7.19-19.242-8.429,11.273-3.076,25.973,2.053,30.836,13.9,9.691,28.478-28.844,37.131-36.176,9.424Z" transform="translate(-6217.868 -2677.015)" fill="#2b2523"/>
        <path id="패스_899" data-name="패스 899" d="M6328.053,2698.762c5.348-5.09,13.289-6.712,20.4-7.2,7.125-.611,15.855.437,22.125,6.618,6.262,6.155,6.5,16.745,1.383,23.565-4.883,6.694-13.738,8.081-21.047,6.2,6.984-1.191,13.75-4.082,16.27-9.219,2.621-5.249,2.156-11.854-1.762-15.466-8.844-7.852-25.848-7.643-37.367-4.5Z" transform="translate(-6225.114 -2644.045)" fill="#2b2523"/>
        <path id="패스_900" data-name="패스 900" d="M6168.541,2762.9c-7.348,4.338-15.012,9.191-16.969,16.233-4.211,16.666,15.3,25.66,27.668,15.292,6.137-4.591,10.051-12.268,11.965-20.673,1.1,8.529-1.332,18.229-8.258,24.936-33.1,26.957-58.969-28.957-14.406-35.788Z" transform="translate(-6124.912 -2683.13)" fill="#2b2523"/>
        <path id="패스_901" data-name="패스 901" d="M6236.285,2805.89c4.086,27.394,36.613,22.34,34.254-4.338,0-3.013-1.172-5.976-2.535-9.085,5.742,4.146,7.68,11.963,7.332,18.883-2.227,29.723-46.551,23.811-39.051-5.46Z" transform="translate(-6174.468 -2699.296)" fill="#2b2523"/>
      </g>
      <path id="패스_902" data-name="패스 902" d="M6216.611,2731.286c15.6,16.958,44.625,12.552,45.816-12.814,2.906,5.231,2.5,12.274-.562,17.906-9.484,18.616-39.965,14.527-45.254-5.092Z" transform="translate(-6164.182 -2658.84)" fill="#2b2523"/>
      <path id="패스_903" data-name="패스 903" d="M6215.984,2689.285c-2.613-17.966,23.215-22.764,33.426-11.458-13.531.3-25.508-.468-33.426,11.458Z" transform="translate(-6163.74 -2633.291)" fill="#2b2523"/>
    </g>
  </g>
</svg>
