<svg id="그룹_625" data-name="그룹 625" xmlns="http://www.w3.org/2000/svg" width="200" height="182.987" viewBox="0 0 200 182.987">
  <path id="패스_1489" data-name="패스 1489" d="M985.307,402.069c-11.892-5.247-20.576-11.736-22.8-15.27-.9-1.432-2.577-4.193-3.624-5.52-2.076-2.632-9.067-5.226-15.367-.1a17.624,17.624,0,0,0-5.944,9.249c-3.136,12.076,1.2,25.342,9.953,34.24,10.044,10.214,28.73,16.513,46.521,17.953l12.2-18.605Z" transform="translate(-934.271 -293.288)" fill="#ffda00"/>
  <path id="패스_1490" data-name="패스 1490" d="M947.527,442.44c7.174,7.3,18.764,12.581,31.281,15.538a13.876,13.876,0,0,1,3.462-2,18.235,18.235,0,0,1,1.8-.547c-9.985-2.66-23.821-10.435-31.159-18.029-9.088-9.4-14.474-22.828-13.281-33.975a17.576,17.576,0,0,0-2.057,4.774C934.438,420.276,938.777,433.543,947.527,442.44Z" transform="translate(-934.271 -311.058)" fill="#ff9ac9"/>
  <path id="패스_1491" data-name="패스 1491" d="M979.835,397.529c-8.8-3.488-18.121-7.26-24.323-14.907-.464-.656-2.879-4.089-3.288-4.684-4.808-4.838-12.811-1.63-15.913,3.732-5.8,10.145-2.642,23.728,3.858,32.919,11.1,14.892,30.8,20.342,48.405,23.5-18.55-.531-39.76-5.441-51.859-20.977-7.752-10.5-11.171-26.128-3.941-37.818,4.771-7.636,17.229-11.048,22.7-2.366l2.522,4.111c5.177,7.376,14.028,12,21.842,16.494Z" transform="translate(-928.799 -288.749)" fill="#1226aa"/>
  <path id="패스_1492" data-name="패스 1492" d="M1443.974,401.7c-2.615-2.142-6.344-4.022-12.88-.954-5.732,2.691-8.73,3.02-16.461-.059-8.165-3.251-15.512-5.677-20.417-13.482l-6.857,45.261c12.055,7.146,26.83,9.153,37.532,8.289,8.571-.692,16.57-5.226,20.792-11.3C1451.152,421.582,1452.384,408.584,1443.974,401.7Z" transform="translate(-1252.259 -299.612)" fill="#ffda00"/>
  <path id="패스_1493" data-name="패스 1493" d="M1534.117,476.885a3.612,3.612,0,0,0-3.751-1.634c-1.768.482-2.578,2.46-3.278,4.154-2.6,6.289-7.171,13.127-18.26,18.162-.008,0-.011.009-.019.014a19.375,19.375,0,0,1,.017,5.287c.574-.028,1.181-.032,1.734-.076,8.571-.692,16.571-5.226,20.793-11.3a24.914,24.914,0,0,0,3.753-8.7c.028-.581.046-1.159.045-1.728A7.421,7.421,0,0,0,1534.117,476.885Z" transform="translate(-1337.927 -361.653)" fill="#ff9ac9"/>
  <path id="패스_1494" data-name="패스 1494" d="M1394.216,387.2c3.706,5.115,9.174,8.162,15.038,10.145,5.812,1.852,11.862,5.074,17.027,3.383,2.984-.9,5.673-2.873,8.917-3.382,7.489-1.572,14.1,4.911,16.112,11.622a25.683,25.683,0,0,1-2.6,19.79c-12.934,20.927-43.932,15.144-61.35,3.7,19.028,9.217,55.245,13.283,60.189-13.916,1.47-7.389-2.976-18.275-11.7-17.309-3,.441-5.6,2.213-8.667,2.882-6.9,1.678-12.823-2.277-18.78-4.745-5.667-2.636-11.367-6.466-14.185-12.173Z" transform="translate(-1252.259 -299.611)" fill="#1226aa"/>
  <path id="패스_1495" data-name="패스 1495" d="M1174.128,237c-1.429-10.124-2.737-18.516-6.655-25.739-10.132-18.688-32.521-26.5-53.373-20.936-18.445,4.918-30.622,18.429-34.06,37.2-1.57,8.564,1.357,18.387,2.657,27,1.868,12.38,10.206,33.117,17.907,45.462l75.181,8.79,1.335-61.681C1175.3,244.475,1174.573,240.152,1174.128,237Z" transform="translate(-1035.163 -159.499)" fill="#ffda00"/>
  <path id="패스_1496" data-name="패스 1496" d="M1097.424,297.866c-15.982-23.49-31.4-53.853-21.777-82.99,6.375-20.456,30-28.115,49.432-28.9a42.42,42.42,0,0,1,42.925,35.3c2.281,9.316.295,20.068,7.12,27.706-7.579-6.888-6.393-18.185-9.279-27.213a39.922,39.922,0,0,0-40.733-31.522c-17.69,1.129-39.336,7.5-45.446,26.056-9.667,28.063,4.395,57.093,17.758,81.565Z" transform="translate(-1030.283 -157.656)" fill="#1226aa"/>
  <path id="패스_1497" data-name="패스 1497" d="M1224.274,341.088c-1.112-2.553-4.705-7.687-13.042-4.337-2.745,1.1-5.137,2.964-7.848,4.15-2.236.978-4.691,1.524-6.681,2.953a9.143,9.143,0,0,0-3.687,8.31,11.4,11.4,0,0,0,8.617,10.052c6.222,1.5,12.012-.362,17.046-4.266C1224.44,353.481,1226.894,347.1,1224.274,341.088Z" transform="translate(-1115.132 -263.249)" fill="#fff"/>
  <path id="패스_1498" data-name="패스 1498" d="M1199.077,356.231c10.763,11.734,37-5.3,25.969-19.058a8.816,8.816,0,0,0-6.206-2.415,8.52,8.52,0,0,1,7.563.663c7.552,4.942,6.061,16.328-.2,21.682-6.856,7.1-22.363,9.785-27.13-.872Z" transform="translate(-1119.448 -262.205)" fill="#1226aa"/>
  <path id="패스_1499" data-name="패스 1499" d="M1240.723,371.72a2.3,2.3,0,0,0-2.154.071,17.233,17.233,0,0,1-4.017,2.188,5.832,5.832,0,0,0-2,.966,1.863,1.863,0,0,0-.153,2.733c1.313,1.353,3.65.474,5.227-.239,2.311-1.047,3.11-1.844,3.752-2.873A1.921,1.921,0,0,0,1240.723,371.72Z" transform="translate(-1142.584 -288.527)" fill="#1226aa"/>
  <path id="패스_1500" data-name="패스 1500" d="M1162.983,115.087c-2.057-5.5-7.632-7.276-14.419-6.805a1.668,1.668,0,0,1-1.277-.474,1.934,1.934,0,0,1-.324-1.44c.1-4.938-3.207-9.485-7.726-12.017s-11.768-3.23-18.953-2.347a6.173,6.173,0,0,1,1.691,9.371,15.583,15.583,0,0,1-5.22,3.32c-4.842,2.288-10.393,3.88-14.952,8.066-3.722,3.416-6.667,8.163-6.158,13.848a13.047,13.047,0,0,0,8.5,11.589,32.588,32.588,0,0,0,8.826,1.736,90.607,90.607,0,0,0,39.282-6.625c2.567-1.019,6.795-3.342,8.572-5.336C1164.3,124.079,1164.586,119.374,1162.983,115.087Z" transform="translate(-1046.449 -91.128)" fill="#ea0029"/>
  <path id="패스_1501" data-name="패스 1501" d="M1095.784,125.384c1.235,9.918,11.363,12.511,19.907,11.921a94.392,94.392,0,0,0,38.032-8.278c3.366-1.731,6.913-3.969,7.833-7.871,1.147-4.633-.921-10.362-6.1-11.618a21.3,21.3,0,0,0-6.546-.681,3.37,3.37,0,0,1-3.07-1.453c-.748-1.417-.395-1.913-.448-3.054a11.058,11.058,0,0,0-1.779-5.479c-4.851-7.586-14.742-8.3-23.188-8.093a40.084,40.084,0,0,1,8.953-.848c9.344-.524,19.87,6.14,19.408,15.541l-.162-.205c.043-.009-.13-.01.047-.023,5.981-.649,13.1.768,16.01,6.834,6.934,15.765-9.556,22.412-21.953,25.533-13.315,3.168-46.417,8.169-46.943-12.227Z" transform="translate(-1046.587 -89.902)" fill="#1226aa"/>
  <path id="패스_1502" data-name="패스 1502" d="M1086.618,549.894a12.563,12.563,0,0,1-6.347,6.526c-3.3,1.506-7.114,1.559-10.5,2.874a14.518,14.518,0,0,0-9.146,13.879c.309,5.433,3.7,11.226,8.01,14.675,9.143,7.319,26.209,8.971,37.533,5.308,17.4-5.626,24.928-23.36,25.047-34.913Z" transform="translate(-1021.773 -414.373)" fill="#ffda00"/>
  <path id="패스_1503" data-name="패스 1503" d="M1114.411,648.422c10.833-3.5,17.837-11.7,21.613-20.18-7.287,7.059-16.868,12.528-27.99,13.2a35.244,35.244,0,0,1-19.589-4.654c-2.822-1.526-5.717-3.2-8.92-3.39-3.112-.182-6.567,1.6-7.233,4.6a22.275,22.275,0,0,0,4.587,5.116C1086.021,650.432,1103.087,652.084,1114.411,648.422Z" transform="translate(-1030.017 -469.638)" fill="#ff9ac9"/>
  <path id="패스_1504" data-name="패스 1504" d="M1082.18,549.894c-1.635,6.006-8.293,8.463-13.682,9.6A13.589,13.589,0,0,0,1058.205,570c-1.509,10.615,8.877,19.416,18.618,21.739,21.774,5.366,46.73-7.721,49.829-31.106.4,25.848-27.54,41.4-50.978,35.463-14.74-2.987-29.616-22.178-15.991-34.889,4.5-4.51,11.244-3.507,16.524-5.638a12.841,12.841,0,0,0,5.972-5.679Z" transform="translate(-1017.334 -414.373)" fill="#1226aa"/>
  <path id="패스_1505" data-name="패스 1505" d="M1358.512,511.851a14.524,14.524,0,0,0-13-10.368c-3.627-.2-7.269.926-10.874.515a12.568,12.568,0,0,1-8.057-4.242l-30.393,23.9c3.691,10.949,16.657,20.633,28.543,21.254s24.276-4.839,30.7-14.626C1358.466,523.672,1359.9,517.113,1358.512,511.851Z" transform="translate(-1187.953 -377.596)" fill="#ffda00"/>
  <path id="패스_1506" data-name="패스 1506" d="M1409.04,565.359a22.673,22.673,0,0,0,3.2-8,9.793,9.793,0,0,0-.559-4.223c-.619-1.435-1.736-2.881-3.332-2.815a6.257,6.257,0,0,0-4.321,2.535c-3.181,3.77-3.334,5.911-5.361,9.159a36.885,36.885,0,0,1-26.482,16.876,27.033,27.033,0,0,0,6.157,1.1C1390.224,580.608,1402.614,575.148,1409.04,565.359Z" transform="translate(-1241.552 -414.672)" fill="#ff9ac9"/>
  <path id="패스_1507" data-name="패스 1507" d="M1326.586,497.757a12.913,12.913,0,0,0,6.894,3.441c5.35.722,10.695-2.274,16.224-.366,16.728,5.308,12.967,27.1,1.2,35.8-18.453,15.349-47.542,8.4-54.712-14.972,9.325,19.577,35.216,25.55,51.838,11.495,9.544-6.8,13.747-24.478.72-29.533-4.808-2.075-10.407.259-15.53-1.259a12.2,12.2,0,0,1-6.635-4.6Z" transform="translate(-1187.953 -377.596)" fill="#1226aa"/>
  <path id="패스_1508" data-name="패스 1508" d="M1174.59,305.747h0a1.271,1.271,0,0,0,.07-1.709c-1.884-2.149-3.826-2.769-5.295-1.936-2.093,1.188-2.43,4.864.05,9.817s5.535,6.7,7.629,5.516c1.961-1.114,2.377-4.414.38-8.9a1.131,1.131,0,0,0-1.011-.682l-1.081-.026A1.2,1.2,0,0,1,1174.59,305.747Z" transform="translate(-1097.297 -239.333)" fill="#1226aa"/>
  <path id="패스_1509" data-name="패스 1509" d="M1229.708,280.9h0a1.269,1.269,0,0,0,.069-1.708c-1.884-2.15-3.825-2.77-5.293-1.937-2.093,1.188-2.431,4.865.049,9.816s5.536,6.7,7.629,5.516c1.962-1.113,2.376-4.415.38-8.9a1.133,1.133,0,0,0-1.01-.682l-1.082-.025A1.2,1.2,0,0,1,1229.708,280.9Z" transform="translate(-1136.176 -221.805)" fill="#1226aa"/>
</svg>
