<svg xmlns="http://www.w3.org/2000/svg" width="200" height="157.772" viewBox="0 0 200 157.772">
  <g id="그룹_273" data-name="그룹 273" transform="translate(0 0.001)">
    <path id="패스_794" data-name="패스 794" d="M2602.475,2434.026c-7.452-3.979-15.311-8.075-26.966-8.267-1.951-.033-3.126.686-3.355,1.861a3.134,3.134,0,0,0,1.475,3.189,65.477,65.477,0,0,1,19.047,18.236c5.644,8.314,8.7,17.691,11.407,27.286,2.8,9.942,5.505,20.156,11.019,29.009,4.737,7.606,11.7,14.167,20.391,16.871,9.018,2.8,19.719.323,26.174-6.917,1.168-1.309,2.228-2.162,2.208-3.576-.008-.635-.46-1.68-2.35-2.113-21.166-4.844-20.7-20.869-26.089-36.141C2631.282,2461.692,2618.647,2442.666,2602.475,2434.026Z" transform="translate(-2572.085 -2387.938)" fill="#008a40"/>
    <path id="패스_795" data-name="패스 795" d="M2572.1,2432.054a3.171,3.171,0,0,0,1.9,3.228q1.775,1.044,3.49,2.2a64.949,64.949,0,0,1,6.55,5.045c8.439,7.241,14.406,17.12,18,27.574,6.865,19.889,9.553,44.524,30.624,54.818a26.494,26.494,0,0,0,15.8,2.276c-10.96,3.144-22.612-2.521-29.825-10.817-15.109-16.831-14.227-41.381-25.509-60.209a66.128,66.128,0,0,0-16.068-18.1c-1.818-1.782-5.585-2.884-4.957-6.011Z" transform="translate(-2572.034 -2392.371)" fill="#0b6930"/>
    <path id="패스_796" data-name="패스 796" d="M2572.1,2432.054a3.171,3.171,0,0,0,1.9,3.228q1.775,1.044,3.49,2.2a64.949,64.949,0,0,1,6.55,5.045c8.439,7.241,14.406,17.12,18,27.574,6.865,19.889,9.553,44.524,30.624,54.818a26.494,26.494,0,0,0,15.8,2.276c-10.96,3.144-22.612-2.521-29.825-10.817-15.109-16.831-14.227-41.381-25.509-60.209a66.128,66.128,0,0,0-16.068-18.1c-1.818-1.782-5.585-2.884-4.957-6.011Z" transform="translate(-2572.034 -2392.371)" fill="#2b2523"/>
    <path id="패스_797" data-name="패스 797" d="M2833.011,2698.158c8.137-15.683,19.577-55.854,19.577-55.854h-11.75c-1.083,5.781-13.87,38.281-23.125,55.854Z" transform="translate(-2744.993 -2540.386)" fill="#008a40"/>
    <path id="패스_798" data-name="패스 798" d="M2869.393,2698.158c6.7-18.225,12.255-37.875,19.578-55.854a214.267,214.267,0,0,1-10.024,35.706c-2.668,6.912-5.488,13.916-9.554,20.148Z" transform="translate(-2781.375 -2540.386)" fill="#2b2523"/>
    <path id="패스_799" data-name="패스 799" d="M2957.965,2408.186a61.631,61.631,0,0,1,24.988-19.963c7.484-3.35,11.289-7.73,12.648-10.663s3.137-3.87,5.2-3.594c2.669.358,4.724,4.617-.873,15.808-5.514,11.027-12.423,15.006-17.657,20.52s-10.582,15.632-13.958,26.312c-3.419,10.818-10.259,26.52-29.593,37.3-17.6,9.818-29.661,7.573-33.988,6.945s-5.444-6.63.628-7.329,20.1-3.908,28.335-15.494S2947.042,2423.4,2957.965,2408.186Z" transform="translate(-2803.729 -2351.444)" fill="#008a40"/>
    <path id="패스_800" data-name="패스 800" d="M3009.333,2374.077c6.414,1.592.57,14.386-1.345,18.083a46.144,46.144,0,0,1-5.67,8.355c-4.288,5.1-9.845,8.8-13.631,14.281a83.33,83.33,0,0,0-10.5,22.02c-6.487,22.125-22.738,37.882-45.038,43.762a44.121,44.121,0,0,1-19.882.384,45.75,45.75,0,0,0,19.544-1.636c20.163-6.328,35.558-20.772,42.116-40.968,2.782-8.806,6.4-17.43,11.9-24.92,3.886-5.467,9.756-9.183,14.209-14.07a45.62,45.62,0,0,0,5.834-7.837c2.12-3.58,8.436-15.489,2.47-17.455Z" transform="translate(-2812.261 -2351.554)" fill="#2b2523"/>
    <g id="그룹_265" data-name="그룹 265" transform="translate(80.55 117.324)">
      <g id="그룹_259" data-name="그룹 259" transform="translate(8.412 6.193)">
        <path id="패스_801" data-name="패스 801" d="M2874.572,2720.329q2.531-1.28,5.042-2.6a1.333,1.333,0,0,0,.474-1.807,1.352,1.352,0,0,0-1.807-.476q-2.514,1.321-5.042,2.6a1.331,1.331,0,0,0-.474,1.808,1.352,1.352,0,0,0,1.807.473Z" transform="translate(-2872.585 -2715.278)" fill="#2b2523"/>
      </g>
      <g id="그룹_260" data-name="그룹 260" transform="translate(10.779)">
        <path id="패스_802" data-name="패스 802" d="M2882.569,2699.406q2.531-1.282,5.042-2.6a1.332,1.332,0,0,0,.473-1.807,1.35,1.35,0,0,0-1.807-.474q-2.511,1.32-5.042,2.6a1.329,1.329,0,0,0-.473,1.808,1.353,1.353,0,0,0,1.807.474Z" transform="translate(-2880.582 -2694.355)" fill="#2b2523"/>
      </g>
      <g id="그룹_261" data-name="그룹 261" transform="translate(6.199 12.511)">
        <path id="패스_803" data-name="패스 803" d="M2867.094,2741.671q2.531-1.28,5.041-2.6a1.331,1.331,0,0,0,.475-1.806,1.35,1.35,0,0,0-1.808-.474q-2.511,1.319-5.041,2.6a1.331,1.331,0,0,0-.474,1.808,1.351,1.351,0,0,0,1.807.473Z" transform="translate(-2865.108 -2736.62)" fill="#2b2523"/>
      </g>
      <g id="그룹_262" data-name="그룹 262" transform="translate(3.977 18.704)">
        <path id="패스_804" data-name="패스 804" d="M2859.588,2762.594q2.528-1.281,5.041-2.6a1.332,1.332,0,0,0,.473-1.807,1.348,1.348,0,0,0-1.806-.473q-2.512,1.318-5.043,2.6a1.329,1.329,0,0,0-.473,1.806,1.353,1.353,0,0,0,1.808.475Z" transform="translate(-2857.6 -2757.543)" fill="#2b2523"/>
      </g>
      <g id="그룹_263" data-name="그룹 263" transform="translate(1.839 24.59)">
        <path id="패스_805" data-name="패스 805" d="M2852.364,2782.481q2.531-1.28,5.042-2.6a1.331,1.331,0,0,0,.473-1.806,1.35,1.35,0,0,0-1.806-.474q-2.512,1.321-5.042,2.6a1.328,1.328,0,0,0-.474,1.806,1.353,1.353,0,0,0,1.807.474Z" transform="translate(-2850.377 -2777.43)" fill="#2b2523"/>
      </g>
      <g id="그룹_264" data-name="그룹 264" transform="translate(0 30.522)">
        <path id="패스_806" data-name="패스 806" d="M2846.151,2802.52q2.531-1.281,5.041-2.6a1.332,1.332,0,0,0,.474-1.808,1.352,1.352,0,0,0-1.807-.474q-2.512,1.32-5.041,2.6a1.331,1.331,0,0,0-.475,1.807,1.353,1.353,0,0,0,1.808.475Z" transform="translate(-2844.165 -2797.469)" fill="#2b2523"/>
      </g>
    </g>
    <g id="그룹_272" data-name="그룹 272" transform="translate(36.206 0)">
      <path id="패스_807" data-name="패스 807" d="M2934.955,2346.538s20-1.961,21.607-20.444c1.815-20.825-23.071-28.305-34.962-20.941-10.167,6.294-12.089,15.725-11.6,25.919" transform="translate(-2846.119 -2301.087)" fill="#fff6d8"/>
      <path id="패스_808" data-name="패스 808" d="M2800.925,2332.348c-.087-4.614-.516-21.475-14.289-26.777-12.334-4.748-31.272,3.647-33,20.839-1.191,11.852,10.409,22.035,22.309,22.035" transform="translate(-2736.029 -2302.402)" fill="#fff6d8"/>
      <path id="패스_809" data-name="패스 809" d="M2737.19,2439.423c-3.988-2.187-15.087-10.217-27.736-2.958-10.355,5.943-14.479,21.8-7.479,33.256,7.934,12.987,27.561,13.6,38.708-1.124" transform="translate(-2697.272 -2393.381)" fill="#fff6d8"/>
      <path id="패스_810" data-name="패스 810" d="M2984.595,2436.619c6.063-3.745,12.882-7.594,22.342-5.834s18.367,10.779,12.978,27.389-29.012,22.663-39.474,5.447" transform="translate(-2895.759 -2391.168)" fill="#fff6d8"/>
      <path id="패스_811" data-name="패스 811" d="M2783.586,2544.859c-6.857.59-21.427,7.584-21.707,21.708s11.879,26.288,29.7,22.548c16.392-3.44,18.877-20.767,14.611-33.867" transform="translate(-2741.888 -2471.786)" fill="#fff6d8"/>
      <path id="패스_812" data-name="패스 812" d="M2898.622,2549.277c-1.1,8.509-2.861,22.027,9.053,29.494s32.191-1.113,35.161-16.182-10.313-22.068-19.181-26.269" transform="translate(-2837.601 -2465.773)" fill="#fff6d8"/>
      <path id="패스_813" data-name="패스 813" d="M2762.724,2582.607c-4.516,10.173.3,23.122,10.155,28.032,5.2,2.719,11.366,3.012,17.075,1.918,10.414-1.982,15.7-10.877,16.051-21.006a40.863,40.863,0,0,0-1.19-11.59,34.748,34.748,0,0,1,2.487,11.6c.508,11.161-5.323,21.22-16.814,23.533-6.257,1.294-13.073.871-18.759-2.291-10.416-5.447-15.3-20-9-30.194Z" transform="translate(-2740.515 -2496.496)" fill="#2b2523"/>
      <path id="패스_814" data-name="패스 814" d="M2908.805,2572.209a19.8,19.8,0,0,0,18.948,8.164c10.328-1.31,20.737-9.076,21.839-19.923,1.648-12.022-8.972-19-18.211-24.128,9.542,3.488,20.426,10.093,20.774,21.432,1.357,21.832-32.307,35.022-43.35,14.456Z" transform="translate(-2845.328 -2465.774)" fill="#2b2523"/>
      <path id="패스_815" data-name="패스 815" d="M2873.117,2425.935a28.741,28.741,0,0,1-28.336,26.8,25.024,25.024,0,0,1-25.258-26.8,28.746,28.746,0,0,1,28.339-26.8A25.023,25.023,0,0,1,2873.117,2425.935Z" transform="translate(-2782.441 -2369.198)" fill="#ffda00"/>
      <path id="패스_816" data-name="패스 816" d="M2870.312,2425.9c-.244,20.453-22.907,34.548-41.17,24.88-22.253-12.43-15.662-44.668,7.974-50.875a28.945,28.945,0,0,1,7.939-.8,29.2,29.2,0,0,0-24.581,16.589c-7.245,15.538,1.411,33.462,18.836,35.64,15.356,1.723,29.344-10.209,31-25.433Z" transform="translate(-2779.635 -2369.162)" fill="#2b2523"/>
      <path id="패스_817" data-name="패스 817" d="M2994.479,2434.3c5.805-4.434,12.929-7.918,20.484-7.139,6.211.4,12.408,3.816,15.372,9.42,3.083,5.5,2.827,12.307,1.04,18.113-2.5,10.078-12.847,17.635-23,16.925,9.91-.952,18.49-8.041,20.677-17.573,1.349-4.96,1.579-10.377-.424-15.106-3.988-9.117-15.368-11.666-24.273-8.928a54.346,54.346,0,0,0-9.878,4.287Z" transform="translate(-2905.642 -2388.847)" fill="#2b2523"/>
      <path id="패스_818" data-name="패스 818" d="M2948.625,2337.414c5.858-5.453,7.806-13.985,5.788-21.545-2.032-7.5-8.84-12.683-16.2-14.443-9.9-2.618-19.309.763-24.806,9.475-3.129,5.091-3.858,11.128-4.013,17.07-.716-5.976-.387-12.449,2.509-17.927,5.531-10.067,16.016-13.972,26.955-11.178,8.106,1.972,15.76,8.049,17.547,16.5,1.791,8.055-.948,17.285-7.78,22.05Z" transform="translate(-2845.517 -2297.987)" fill="#2b2523"/>
      <path id="패스_819" data-name="패스 819" d="M2797.354,2321.4c-1.931-8.265-6.963-16.126-15.552-18.17-11.995-2.836-25.85,4.887-29.073,16.924-4.124,12.912,7.9,24.729,20.394,25.517-13.767.791-26.941-12.089-22.812-26.165,2.215-8.933,9.878-15.837,18.62-18.189,14.934-4.136,26.923,4.977,28.425,20.083Z" transform="translate(-2733.205 -2299.629)" fill="#2b2523"/>
      <path id="패스_820" data-name="패스 820" d="M2718.982,2433.265a21.393,21.393,0,0,0-19.193,11.307c-4.219,7.992-4.01,18.434,1.482,25.746a20.249,20.249,0,0,0,15.95,7.912c7.91.111,15.362-3.979,20.542-9.921-6.74,10.632-21.415,15.7-32.646,8.879-19.848-12.225-10.515-46.945,13.865-43.921Z" transform="translate(-2694.353 -2393.092)" fill="#2b2523"/>
      <g id="그룹_266" data-name="그룹 266" transform="translate(3.766 59.065)">
        <path id="패스_821" data-name="패스 821" d="M2711.429,2517.173q2.607-1.874,5.212-3.75a1.446,1.446,0,0,0,.608-.79,1.355,1.355,0,0,0-.134-1.019,1.338,1.338,0,0,0-1.807-.474q-2.606,1.878-5.213,3.752a1.418,1.418,0,0,0-.6.79,1.32,1.32,0,0,0,1.939,1.492Z" transform="translate(-2708.743 -2506.976)" fill="#2b2523"/>
        <path id="패스_822" data-name="패스 822" d="M2716.424,2530.213q3.382-2.476,6.763-4.952a1.353,1.353,0,0,0,.473-1.807,1.335,1.335,0,0,0-1.807-.475l-6.763,4.952a1.352,1.352,0,0,0-.473,1.808,1.336,1.336,0,0,0,1.807.475Z" transform="translate(-2712.254 -2515.31)" fill="#2b2523"/>
        <path id="패스_823" data-name="패스 823" d="M2725.982,2542.518q3.419-2.643,6.751-5.393a1.325,1.325,0,0,0,0-1.868,1.357,1.357,0,0,0-1.868,0q-3.331,2.75-6.75,5.394a1.323,1.323,0,0,0,0,1.868,1.363,1.363,0,0,0,1.868,0Z" transform="translate(-2718.799 -2523.828)" fill="#2b2523"/>
        <path id="패스_824" data-name="패스 824" d="M2737.39,2554.208q1.518-1.266,3.075-2.487l.384-.3.107-.082c-.1.079.09-.069.108-.084.256-.2.515-.393.774-.59q.8-.606,1.612-1.2a1.355,1.355,0,0,0,.474-1.809,1.335,1.335,0,0,0-1.807-.473q-3.379,2.471-6.6,5.153a1.326,1.326,0,0,0,0,1.868,1.358,1.358,0,0,0,1.87,0Z" transform="translate(-2726.83 -2532.353)" fill="#2b2523"/>
        <path id="패스_825" data-name="패스 825" d="M2754.74,2561.132q2.995-2.254,5.8-4.74a1.332,1.332,0,0,0,0-1.869,1.35,1.35,0,0,0-1.869,0q-1.315,1.172-2.676,2.292c-.449.366-.9.73-1.353,1.087-.111.087-.222.172-.333.26-.055.043-.109.088-.166.129.089-.065.132-.1.018-.014q-.375.289-.752.573a1.445,1.445,0,0,0-.608.79,1.321,1.321,0,0,0,1.94,1.492Z" transform="translate(-2739.234 -2537.389)" fill="#2b2523"/>
        <path id="패스_826" data-name="패스 826" d="M2776.547,2564.631l4.742-3.866a1.322,1.322,0,0,0-.935-2.256,1.508,1.508,0,0,0-.933.388q-2.373,1.932-4.742,3.866a1.322,1.322,0,0,0-.388.934,1.342,1.342,0,0,0,.388.934,1.324,1.324,0,0,0,.933.387,1.516,1.516,0,0,0,.935-.387Z" transform="translate(-2754.396 -2540.459)" fill="#2b2523"/>
        <path id="패스_827" data-name="패스 827" d="M2709.061,2502.746q1.984-1.371,3.964-2.742a1.426,1.426,0,0,0,.607-.791,1.322,1.322,0,0,0-1.942-1.491l-3.962,2.744a1.414,1.414,0,0,0-.609.789,1.358,1.358,0,0,0,.134,1.018,1.337,1.337,0,0,0,1.807.473Z" transform="translate(-2707.076 -2497.531)" fill="#2b2523"/>
      </g>
      <g id="그룹_267" data-name="그룹 267" transform="translate(67.81 94.508)">
        <path id="패스_828" data-name="패스 828" d="M2925.427,2623.191q2.3-1.711,4.584-3.458a1.461,1.461,0,0,0,.607-.789,1.323,1.323,0,0,0-.923-1.625,1.269,1.269,0,0,0-1.017.133q-2.277,1.746-4.586,3.456a1.437,1.437,0,0,0-.6.79,1.352,1.352,0,0,0,.132,1.019,1.338,1.338,0,0,0,1.808.474Z" transform="translate(-2923.443 -2617.273)" fill="#2b2523"/>
        <path id="패스_829" data-name="패스 829" d="M2928.434,2636.629q3.22-2.486,6.357-5.078a1.325,1.325,0,0,0,0-1.869,1.358,1.358,0,0,0-1.869,0q-3.138,2.591-6.356,5.078a1.322,1.322,0,0,0,0,1.868,1.36,1.36,0,0,0,1.868,0Z" transform="translate(-2925.37 -2625.748)" fill="#2b2523"/>
        <path id="패스_830" data-name="패스 830" d="M2938.223,2648.093c1.11-.85,2.208-1.713,3.308-2.578q.765-.6,1.529-1.206c.275-.216.55-.43.825-.645l.39-.3c.065-.05.132-.1.2-.153.183-.141-.238.185.078-.06a1.448,1.448,0,0,0,.608-.79,1.356,1.356,0,0,0-.133-1.018,1.334,1.334,0,0,0-1.807-.474q-1.693,1.3-3.365,2.631l-1.517,1.2q-.4.315-.806.627l-.191.149c-.165.126.146-.113-.019.014l-.43.33a1.451,1.451,0,0,0-.607.791,1.351,1.351,0,0,0,.133,1.017,1.334,1.334,0,0,0,1.808.474Z" transform="translate(-2932.45 -2633.742)" fill="#2b2523"/>
        <path id="패스_831" data-name="패스 831" d="M2951.156,2657.287q3-2.251,5.8-4.74a1.328,1.328,0,0,0,0-1.868,1.35,1.35,0,0,0-1.869,0q-1.314,1.173-2.675,2.292-.671.551-1.354,1.088c-.11.086-.22.172-.33.259-.056.043-.11.086-.167.128.09-.064.133-.1.019-.014-.25.193-.5.384-.755.574a1.452,1.452,0,0,0-.607.789,1.354,1.354,0,0,0,.133,1.018,1.334,1.334,0,0,0,1.808.473Z" transform="translate(-2941.555 -2640.527)" fill="#2b2523"/>
        <path id="패스_832" data-name="패스 832" d="M2972.363,2660.362q2.37-1.934,4.743-3.868a1.318,1.318,0,0,0,.387-.933,1.354,1.354,0,0,0-.387-.935,1.33,1.33,0,0,0-.935-.386,1.522,1.522,0,0,0-.934.386q-2.371,1.932-4.744,3.867a1.331,1.331,0,0,0-.385.934,1.319,1.319,0,0,0,1.321,1.322,1.519,1.519,0,0,0,.934-.387Z" transform="translate(-2956.295 -2643.296)" fill="#2b2523"/>
      </g>
      <g id="그룹_268" data-name="그룹 268" transform="translate(21.218 17.406)">
        <path id="패스_833" data-name="패스 833" d="M2768.289,2377.866q2.77-2.228,5.539-4.457a1.325,1.325,0,0,0,0-1.869,1.36,1.36,0,0,0-1.87,0q-2.766,2.23-5.538,4.457a1.326,1.326,0,0,0,0,1.868,1.36,1.36,0,0,0,1.869,0Z" transform="translate(-2766.034 -2366.912)" fill="#2b2523"/>
        <path id="패스_834" data-name="패스 834" d="M2775.2,2390.945q3.283-2.721,6.524-5.493a1.328,1.328,0,0,0,0-1.869,1.353,1.353,0,0,0-1.868,0q-3.239,2.774-6.524,5.494a1.325,1.325,0,0,0,0,1.868,1.359,1.359,0,0,0,1.868,0Z" transform="translate(-2770.9 -2375.389)" fill="#2b2523"/>
        <path id="패스_835" data-name="패스 835" d="M2786.346,2402.46q3.273-2.823,6.452-5.748a1.334,1.334,0,0,0,0-1.868,1.349,1.349,0,0,0-1.87,0q-3.18,2.925-6.45,5.748a1.325,1.325,0,0,0,0,1.868,1.355,1.355,0,0,0,1.868,0Z" transform="translate(-2778.748 -2383.315)" fill="#2b2523"/>
        <path id="패스_836" data-name="패스 836" d="M2800.806,2411.8c1.993-1.776,3.939-3.6,5.932-5.379a1.328,1.328,0,0,0,0-1.868,1.351,1.351,0,0,0-1.868,0c-1.993,1.776-3.939,3.6-5.932,5.378a1.331,1.331,0,0,0,0,1.869,1.354,1.354,0,0,0,1.868,0Z" transform="translate(-2788.928 -2390.156)" fill="#2b2523"/>
        <path id="패스_837" data-name="패스 837" d="M2816.637,2421.078c1.76-1.625,3.505-3.262,5.2-4.951a1.321,1.321,0,0,0-1.868-1.868c-1.7,1.688-3.445,3.327-5.2,4.949a1.333,1.333,0,0,0,0,1.87,1.351,1.351,0,0,0,1.869,0Z" transform="translate(-2800.074 -2396.983)" fill="#2b2523"/>
        <path id="패스_838" data-name="패스 838" d="M2768.4,2362.032q1.89-1.492,3.786-2.983a1.319,1.319,0,0,0,.386-.935,1.322,1.322,0,0,0-1.321-1.322c-.117.016-.234.033-.351.048a1.312,1.312,0,0,0-.583.341q-1.894,1.492-3.787,2.982a1.324,1.324,0,0,0-.386.934,1.351,1.351,0,0,0,.386.935,1.328,1.328,0,0,0,.935.386q.176-.022.351-.047a1.306,1.306,0,0,0,.583-.339Z" transform="translate(-2766.115 -2356.792)" fill="#2b2523"/>
      </g>
      <g id="그룹_269" data-name="그룹 269" transform="translate(23.274 89.412)">
        <path id="패스_839" data-name="패스 839" d="M2776.884,2619.446q2.608-1.872,5.211-3.75a1.421,1.421,0,0,0,.606-.791,1.321,1.321,0,0,0-1.94-1.492q-2.6,1.879-5.212,3.751a1.442,1.442,0,0,0-.607.791,1.35,1.35,0,0,0,.134,1.017,1.333,1.333,0,0,0,1.807.474Z" transform="translate(-2774.331 -2609.323)" fill="#2b2523"/>
        <path id="패스_840" data-name="패스 840" d="M2780.986,2632.257q3.222-2.39,6.4-4.829a1.452,1.452,0,0,0,.607-.79,1.356,1.356,0,0,0-.133-1.018,1.333,1.333,0,0,0-1.807-.474q-3.182,2.438-6.4,4.829a1.353,1.353,0,0,0-.472,1.807,1.333,1.333,0,0,0,1.806.474Z" transform="translate(-2777.213 -2617.579)" fill="#2b2523"/>
        <path id="패스_841" data-name="패스 841" d="M2789.412,2644.039q3.42-2.643,6.751-5.394a1.328,1.328,0,0,0,0-1.868,1.357,1.357,0,0,0-1.869,0q-3.331,2.751-6.749,5.393a1.322,1.322,0,0,0,0,1.869,1.361,1.361,0,0,0,1.867,0Z" transform="translate(-2782.962 -2625.644)" fill="#2b2523"/>
        <path id="패스_842" data-name="패스 842" d="M2801.339,2654.748q1.518-1.266,3.075-2.485.191-.151.385-.3c.017-.015.21-.162.107-.082s.09-.071.108-.084q.386-.3.774-.591.8-.606,1.611-1.2a1.353,1.353,0,0,0,.474-1.807,1.335,1.335,0,0,0-1.808-.474q-3.376,2.473-6.6,5.153a1.326,1.326,0,0,0,0,1.868,1.356,1.356,0,0,0,1.869,0Z" transform="translate(-2791.357 -2633.479)" fill="#2b2523"/>
        <path id="패스_843" data-name="패스 843" d="M2816.135,2662.961q2.994-2.251,5.8-4.741a1.33,1.33,0,0,0,0-1.868,1.352,1.352,0,0,0-1.868,0q-1.314,1.174-2.677,2.293c-.446.367-.9.729-1.351,1.087l-.333.26c-.055.043-.11.088-.167.13.09-.066.131-.1.02-.014q-.376.289-.756.573a1.455,1.455,0,0,0-.608.789,1.354,1.354,0,0,0,.135,1.018,1.334,1.334,0,0,0,1.807.475Z" transform="translate(-2801.963 -2639.425)" fill="#2b2523"/>
        <path id="패스_844" data-name="패스 844" d="M2836.518,2667.156l4.741-3.867a1.331,1.331,0,0,0,.388-.934,1.348,1.348,0,0,0-.388-.934,1.327,1.327,0,0,0-.935-.386,1.516,1.516,0,0,0-.934.386l-4.742,3.867a1.323,1.323,0,0,0-.387.933,1.343,1.343,0,0,0,.387.935,1.327,1.327,0,0,0,.935.387,1.531,1.531,0,0,0,.935-.387Z" transform="translate(-2816.122 -2642.984)" fill="#2b2523"/>
        <path id="패스_845" data-name="패스 845" d="M2859.827,2666.8q2.157-1.758,4.318-3.516a1.322,1.322,0,0,0,.387-.934,1.342,1.342,0,0,0-.387-.934,1.324,1.324,0,0,0-.934-.386,1.5,1.5,0,0,0-.933.386l-4.321,3.516a1.323,1.323,0,0,0-.387.935,1.344,1.344,0,0,0,.387.933,1.329,1.329,0,0,0,.935.387,1.514,1.514,0,0,0,.935-.387Z" transform="translate(-2832.532 -2642.984)" fill="#2b2523"/>
        <path id="패스_846" data-name="패스 846" d="M2774.965,2605.27l3.963-2.742a1.423,1.423,0,0,0,.607-.79,1.322,1.322,0,0,0-1.94-1.493l-3.963,2.745a1.407,1.407,0,0,0-.606.79,1.32,1.32,0,0,0,1.94,1.49Z" transform="translate(-2772.98 -2600.056)" fill="#2b2523"/>
      </g>
      <g id="그룹_270" data-name="그룹 270" transform="translate(91.913 55.684)">
        <path id="패스_847" data-name="패스 847" d="M3006.862,2506.243q2.517-1.551,5.035-3.107a1.322,1.322,0,1,0-1.335-2.281q-2.515,1.555-5.035,3.107a1.322,1.322,0,1,0,1.335,2.281Z" transform="translate(-3004.87 -2496.365)" fill="#2b2523"/>
        <path id="패스_848" data-name="패스 848" d="M3009.745,2519.817c2.167-1.439,4.348-2.859,6.494-4.33a1.321,1.321,0,0,0-1.332-2.282c-2.148,1.472-4.328,2.892-6.5,4.331a1.321,1.321,0,1,0,1.334,2.281Z" transform="translate(-3006.9 -2505.052)" fill="#2b2523"/>
        <path id="패스_849" data-name="패스 849" d="M3023.872,2530.254q3-2,5.938-4.09a1.353,1.353,0,0,0,.474-1.808,1.336,1.336,0,0,0-1.808-.474q-2.935,2.091-5.938,4.09a1.321,1.321,0,0,0,1.334,2.281Z" transform="translate(-3016.845 -2512.567)" fill="#2b2523"/>
        <path id="패스_850" data-name="패스 850" d="M3035.79,2540.995q3.191-2.12,6.31-4.344a1.351,1.351,0,0,0,.474-1.807,1.336,1.336,0,0,0-1.807-.474q-3.12,2.223-6.31,4.345a1.321,1.321,0,1,0,1.333,2.28Z" transform="translate(-3025.237 -2519.949)" fill="#2b2523"/>
        <path id="패스_851" data-name="패스 851" d="M3052.085,2550.919q2.907-1.934,5.755-3.961a1.355,1.355,0,0,0,.474-1.809,1.336,1.336,0,0,0-1.807-.473q-2.844,2.025-5.756,3.962a1.321,1.321,0,0,0,1.334,2.281Z" transform="translate(-3036.708 -2527.204)" fill="#2b2523"/>
        <path id="패스_852" data-name="패스 852" d="M3008.749,2490.623l3.465-2.052a1.321,1.321,0,1,0-1.332-2.282q-1.731,1.027-3.467,2.052a1.322,1.322,0,0,0,1.334,2.282Z" transform="translate(-3006.199 -2486.111)" fill="#2b2523"/>
      </g>
      <g id="그룹_271" data-name="그룹 271" transform="translate(45.334 41.171)">
        <path id="패스_853" data-name="패스 853" d="M2930.191,2440.79h0a.851.851,0,0,1-.379-1.082c.787-1.746,1.908-2.521,3.012-2.275,1.571.352,2.507,2.641,1.886,6.3s-2.234,5.376-3.806,5.023c-1.474-.329-2.385-2.364-1.983-5.627a.757.757,0,0,1,.513-.634l.688-.227A.806.806,0,0,0,2930.191,2440.79Z" transform="translate(-2904.756 -2437.297)" fill="#2b2523"/>
        <path id="패스_854" data-name="패스 854" d="M2848.9,2480.222a7.347,7.347,0,0,0,2.892-.264,6.3,6.3,0,0,0,2.39-1.439,1.369,1.369,0,0,1,2.032,1.787,7.219,7.219,0,0,1-1.343,1.422c.786,3.227,3.729,11.408,13.4,12.032,8.511.547,10.84-6.009,11.529-10.175a1.491,1.491,0,0,1,2.162-1.061,1.647,1.647,0,0,1,.856,2.054,16.618,16.618,0,0,1-8.343,8.911,17.054,17.054,0,0,1-15.531-.213c-3.659-1.905-7.063-6.422-8.311-9.927a10.384,10.384,0,0,1-1.8-.013,1.416,1.416,0,0,1-1.251-1.21l-.067-.48A1.245,1.245,0,0,1,2848.9,2480.222Z" transform="translate(-2847.511 -2466.017)" fill="#2b2523"/>
        <path id="패스_855" data-name="패스 855" d="M2890.334,2440.481h0a.851.851,0,0,1-.378-1.082c.786-1.746,1.908-2.521,3.009-2.274,1.574.351,2.509,2.641,1.888,6.3s-2.234,5.376-3.8,5.025c-1.474-.329-2.384-2.364-1.984-5.628a.761.761,0,0,1,.513-.634l.688-.227A.806.806,0,0,0,2890.334,2440.481Z" transform="translate(-2876.697 -2437.08)" fill="#2b2523"/>
      </g>
    </g>
  </g>
</svg>
