<svg id="그룹_427" data-name="그룹 427" xmlns="http://www.w3.org/2000/svg" width="200.268" height="100.001" viewBox="0 0 200.268 100.001">
  <g id="그룹_426" data-name="그룹 426" transform="translate(0 0)">
    <g id="그룹_423" data-name="그룹 423">
      <g id="그룹_420" data-name="그룹 420">
        <g id="그룹_417" data-name="그룹 417">
          <g id="그룹_414" data-name="그룹 414">
            <g id="그룹_413" data-name="그룹 413">
              <path id="패스_1199" data-name="패스 1199" d="M632.592,414.643c0-55.084-44.816-98.477-99.9-98.477s-99.9,43.392-99.9,98.477V415.7h7.363v-1.055c0-50.946,41.589-91.256,92.536-91.256s92.537,40.31,92.537,91.256V415.7h7.365Z" transform="translate(-432.557 -315.932)" fill="#ed313e"/>
              <path id="패스_1200" data-name="패스 1200" d="M632.893,416h-7.832v-1.289c0-50.188-41.406-91.022-92.3-91.022s-92.3,40.833-92.3,91.022V416h-7.832v-1.289a97.346,97.346,0,0,1,29.363-70.062,101.737,101.737,0,0,1,141.542,0,97.341,97.341,0,0,1,29.363,70.062Zm-7.363-.468h6.9v-.821c0-54.17-44.71-98.242-99.668-98.242s-99.666,44.072-99.666,98.242v.821h6.9v-.821a90.222,90.222,0,0,1,27.234-64.9,94.061,94.061,0,0,1,131.073,0,90.22,90.22,0,0,1,27.234,64.9Z" transform="translate(-432.625 -316)" fill="#af232f"/>
            </g>
          </g>
          <g id="그룹_416" data-name="그룹 416" transform="translate(7.363 7.222)">
            <g id="그룹_415" data-name="그룹 415">
              <path id="패스_1201" data-name="패스 1201" d="M530.547,321.285c-50.946,0-92.536,40.31-92.536,91.256V413.6h7.327v-1.055c0-46.828,38.38-84.073,85.209-84.073s85.211,37.245,85.211,84.073V413.6h7.327v-1.055C623.084,361.6,581.494,321.285,530.547,321.285Z" transform="translate(-437.777 -321.052)" fill="#ff5f00"/>
              <path id="패스_1202" data-name="패스 1202" d="M623.386,413.9h-7.793v-1.289c0-46.229-38.121-83.839-84.978-83.839s-84.975,37.61-84.975,83.839V413.9h-7.795v-1.289a90.223,90.223,0,0,1,27.234-64.9,94.061,94.061,0,0,1,131.073,0,90.22,90.22,0,0,1,27.234,64.9Zm-7.326-.468h6.858v-.821c0-50.188-41.406-91.022-92.3-91.022s-92.3,40.833-92.3,91.022v.821h6.858v-.821a83.14,83.14,0,0,1,25.114-59.763,86.423,86.423,0,0,1,120.66,0,83.141,83.141,0,0,1,25.114,59.763Z" transform="translate(-437.845 -321.12)" fill="#bf4d18"/>
            </g>
          </g>
        </g>
        <g id="그룹_419" data-name="그룹 419" transform="translate(14.69 14.405)">
          <g id="그룹_418" data-name="그룹 418">
            <path id="패스_1203" data-name="패스 1203" d="M528.414,326.377c-46.829,0-85.209,37.245-85.209,84.073v1.055h7.332V410.45c0-42.707,35.17-76.882,77.877-76.882s77.879,34.175,77.879,76.882v1.055h7.332V410.45C613.625,363.622,575.244,326.377,528.414,326.377Z" transform="translate(-442.971 -326.144)" fill="#ffc31c"/>
            <path id="패스_1204" data-name="패스 1204" d="M613.693,411.807h-7.332a.233.233,0,0,1-.234-.234v-1.055c0-42.264-34.83-76.649-77.644-76.649s-77.643,34.385-77.643,76.649v1.055a.233.233,0,0,1-.234.234h-7.332a.234.234,0,0,1-.234-.234v-1.055a83.139,83.139,0,0,1,25.114-59.763,86.422,86.422,0,0,1,120.66,0,83.138,83.138,0,0,1,25.114,59.763v1.055A.234.234,0,0,1,613.693,411.807Zm-7.1-.468h6.865v-.821c0-46.229-38.121-83.839-84.978-83.839s-84.975,37.61-84.975,83.839v.821h6.864v-.821c0-42.522,35.041-77.116,78.111-77.116S606.595,368,606.595,410.518Z" transform="translate(-443.039 -326.212)" fill="#e4a324"/>
          </g>
        </g>
      </g>
      <g id="그룹_422" data-name="그룹 422" transform="translate(22.022 21.594)">
        <g id="그룹_421" data-name="그룹 421">
          <path id="패스_1205" data-name="패스 1205" d="M526.28,331.475c-42.707,0-77.877,34.176-77.877,76.883v1.054h7.334v-1.054c0-38.648,31.9-69.694,70.543-69.694s70.545,31.046,70.545,69.694v1.054h7.333v-1.054C604.158,365.651,568.988,331.475,526.28,331.475Z" transform="translate(-448.169 -331.241)" fill="#309345"/>
          <path id="패스_1206" data-name="패스 1206" d="M604.226,409.715h-7.334a.235.235,0,0,1-.234-.234v-1.054c0-38.3-31.54-69.461-70.31-69.461s-70.31,31.16-70.31,69.461v1.054a.233.233,0,0,1-.233.234h-7.334a.235.235,0,0,1-.234-.234v-1.054c0-42.523,35.04-77.118,78.111-77.118s78.112,34.594,78.112,77.118v1.054A.234.234,0,0,1,604.226,409.715Zm-7.1-.468h6.865v-.819c0-42.265-34.83-76.651-77.644-76.651s-77.643,34.385-77.643,76.651v.819h6.865v-.819c0-38.558,31.751-69.928,70.777-69.928s70.779,31.37,70.779,69.928Z" transform="translate(-448.237 -331.309)" fill="#134f27"/>
        </g>
      </g>
    </g>
    <g id="그룹_425" data-name="그룹 425" transform="translate(29.356 28.784)">
      <g id="그룹_424" data-name="그룹 424">
        <path id="패스_1207" data-name="패스 1207" d="M524.146,336.572c-38.647,0-70.543,31.045-70.543,69.694v1.054h7.269v-1.054c0-34.5,28.776-62.568,63.275-62.568s63.276,28.068,63.276,62.568v1.054h7.269v-1.054C594.69,367.618,562.794,336.572,524.146,336.572Z" transform="translate(-453.368 -336.338)" fill="#a380b9"/>
        <path id="패스_1208" data-name="패스 1208" d="M594.758,407.622h-7.27a.233.233,0,0,1-.233-.234v-1.054c0-34.371-28.281-62.333-63.042-62.333s-63.041,27.962-63.041,62.333v1.054a.234.234,0,0,1-.234.234H453.67a.234.234,0,0,1-.234-.234v-1.054c0-38.558,31.751-69.928,70.778-69.928s70.779,31.37,70.779,69.928v1.054A.234.234,0,0,1,594.758,407.622Zm-7.036-.468h6.8v-.82c0-38.3-31.541-69.461-70.311-69.461S453.9,368.033,453.9,406.334v.82h6.8v-.82a61.932,61.932,0,0,1,18.769-44.388,63.557,63.557,0,0,1,89.478,0,61.938,61.938,0,0,1,18.769,44.388Z" transform="translate(-453.436 -336.406)" fill="#73549b"/>
      </g>
    </g>
  </g>
</svg>
