<svg id="그룹_548" data-name="그룹 548" xmlns="http://www.w3.org/2000/svg" width="200" height="183.776" viewBox="0 0 200 183.776">
  <path id="패스_1351" data-name="패스 1351" d="M676.574,633.4a33.118,33.118,0,0,0-1.8-10.7l-.029-.094C669.1,604.04,655.5,601,647.277,601s-16.217,2.736-21.652,5.143l-.088-.087c-3.779,1.714-7.368,3.319-10.9,4.844,4.523-3.59,8.8-6.748,12.722-9.338l.212-.167c6.763-5.092,18.114-15.663,18.2-29.18.065-7.171-3.027-14.05-9.228-20.522a38.8,38.8,0,0,0-6.631-5.762,30.2,30.2,0,0,0-8.273-3.487,41.231,41.231,0,0,0-11.4-1.765c-16.705,0-27.619,12.817-29.968,35.155h-.1c-.613,6.7-1.327,13.035-2.043,18.9-1.254-7.47-2.079-14.254-2.488-20.068v-.248c-2.735-21.44-13.649-33.74-29.866-33.74a46.737,46.737,0,0,0-17.26,3.808,10.427,10.427,0,0,0-1.357.714,12.651,12.651,0,0,0-1.226.8c-10.593,8.156-15.882,17.114-15.677,26.6.277,13.7,12.008,24.358,19.376,29.676l-.065.072c5.6,3.918,10.723,7.7,15.494,11.2-7.141-2.64-13.452-5.31-18.74-7.856l-.27-.117c-4.968-2.072-12.6-4.567-20.295-4.567-8.47,0-22.557,3.2-27.9,23.016a31.109,31.109,0,0,0-1.27,8.053,35.484,35.484,0,0,0,1.437,9.66c5.457,19.31,19.346,22.432,27.729,22.432,8.192,0,16.173-2.751,21.615-5.159l.051.125c6.223-2.809,12.052-5.391,17.538-7.719-5.88,4.815-11.366,8.936-16.217,12.16l-.226.176c-6.8,5.136-18.2,15.691-18.252,29.181-.052,9.33,5.193,18.172,15.663,26.247l.51.35s.27.168.766.446c.54.292.81.459.81.459l.5.227a46.284,46.284,0,0,0,17.26,3.8c16.72,0,27.612-12.781,30-35.111h.059q.984-10.067,2.057-18.937a198.692,198.692,0,0,1,2.517,20.112l.029.226c2.743,21.44,13.612,33.71,29.8,33.71a46.3,46.3,0,0,0,17.282-3.8l.54-.262.729-.423c.591-.314.875-.475.875-.475l.467-.328c10.578-8.178,15.823-17.151,15.64-26.606-.262-13.714-12.029-24.335-19.332-29.646l.03-.11c-4.29-2.984-8.3-5.931-12.146-8.768,4.523,1.844,8.7,3.668,12.329,5.441l.233.1c4.99,2.094,12.627,4.582,20.39,4.582,7.988,0,21.039-2.868,26.963-20.047a38.288,38.288,0,0,0,2.312-10.3Z" transform="translate(-476.586 -540.676)" fill="#fff"/>
  <g id="그룹_547" data-name="그룹 547" transform="translate(62.473 54.223)">
    <path id="패스_1352" data-name="패스 1352" d="M565.246,576.035a36.448,36.448,0,0,0-11.833-18.048,43.686,43.686,0,0,0-35.132-9.228,42.545,42.545,0,0,0-17.165,7.105,39.915,39.915,0,0,0-7.31,6.631c-.16.219-.321.416-.481.613a36.506,36.506,0,0,0-6.31,11.271,35.879,35.879,0,0,0-1.744,8.382c-.117,1.284-.117,2.5-.117,3.749a33.77,33.77,0,0,0,3.932,16.312,37.719,37.719,0,0,0,13.474,14.663,42.913,42.913,0,0,0,21.3,6.755,46.6,46.6,0,0,0,8.834-.488,42.694,42.694,0,0,0,13.919-4.706,38.584,38.584,0,0,0,14.772-13.962,34.6,34.6,0,0,0,5.223-18.865c.007-.306,0-.643,0-.956A34.565,34.565,0,0,0,565.246,576.035Z" transform="translate(-485.149 -548.109)" fill="#ffd200"/>
  </g>
</svg>
