<svg xmlns="http://www.w3.org/2000/svg" width="200" height="197.124" viewBox="0 0 200 197.124">
  <g id="그룹_250" data-name="그룹 250" transform="translate(0)">
    <g id="그룹_246" data-name="그룹 246" transform="translate(1.737 2.138)">
      <path id="패스_756" data-name="패스 756" d="M2625.257,250.939h0a49.5,49.5,0,0,0-14.321-5.581,28.925,28.925,0,0,0-11.834.061,26.134,26.134,0,0,0-13.536,7.978,37.711,37.711,0,0,0-5.776,8.531,35.07,35.07,0,0,0-1.325,27.388,27.281,27.281,0,0,0,3.056,6.07,25.9,25.9,0,0,0,11.66,9.391,33.849,33.849,0,0,0,6.052,1.781,47.8,47.8,0,0,0,15.213.154h0l53.792-18.5Z" transform="translate(-2576.31 -193.326)" fill="#fff"/>
      <path id="패스_757" data-name="패스 757" d="M2909.785,402.35v0h0Z" transform="translate(-2811.366 -306.127)" fill="#fff6e1"/>
      <path id="패스_758" data-name="패스 758" d="M2772.542,166.334l10.58-54.536c.131-12.362-2.158-24.851-14.412-31.657a27.839,27.839,0,0,0-8.355-2.956,34.132,34.132,0,0,0-26.566,5.53c-5.107,3.573-11.529,9.748-13.112,18.871-1.86,10.762,3.693,20.787,8.886,27.473l42.978,37.276Z" transform="translate(-2676.355 -76.513)" fill="#fff"/>
      <path id="패스_759" data-name="패스 759" d="M2967.027,395.18l.2.04a31.272,31.272,0,0,0,5.982.546,25.862,25.862,0,0,0,14.323-4.352,26.849,26.849,0,0,0,5.094-4.491,35.027,35.027,0,0,0,9.016-25.894l0,0a37.437,37.437,0,0,0-2.168-10.074,26.145,26.145,0,0,0-9.567-12.451,29.7,29.7,0,0,0-11.11-4.508,47.983,47.983,0,0,0-15.224-.147L2909.79,352.34v0l42.957,37.257h0A48.317,48.317,0,0,0,2967.027,395.18Z" transform="translate(-2804.875 -254.787)" fill="#fff"/>
      <path id="패스_760" data-name="패스 760" d="M2870.7,457.894c-.133,18.5,7.93,30.6,22.753,33.565l.188.038a34.533,34.533,0,0,0,30.793-8.9,27.627,27.627,0,0,0,8.827-15.145c2.065-10.948-3.707-21.217-8.827-27.836l-42.959-37.257Z" transform="translate(-2780.827 -299.732)" fill="#fff"/>
      <path id="패스_761" data-name="패스 761" d="M2718.379,402.352l-53.794,18.5c-7.2,4.206-16.4,11.573-18.584,22.513a27.684,27.684,0,0,0,2.531,17.345,34.554,34.554,0,0,0,25.287,19.775l.265.053c14.724,2.79,26.738-5.43,33.521-22.642h0l10.775-55.539Z" transform="translate(-2626.451 -299.73)" fill="#fff"/>
      <path id="패스_762" data-name="패스 762" d="M2963.574,177.063h0c7.338-4.272,16.226-11.489,18.524-22.166,1.941-9.04-1.7-17.174-5.1-22.4a34.176,34.176,0,0,0-22.52-15.061,29,29,0,0,0-8.91-.389c-13.9,1.732-20.692,12.463-25.2,23.977h0l-10.58,54.536Z" transform="translate(-2804.876 -105.737)" fill="#fff"/>
    </g>
    <g id="그룹_247" data-name="그룹 247" transform="translate(0 0)">
      <path id="패스_763" data-name="패스 763" d="M2620.692,246.026c-6.9-2.7-14.049-4.777-20.954-4.22-18.113,1.335-28.661,21.559-25.842,38.228a34.289,34.289,0,0,0,3.059,10.439,26.507,26.507,0,0,1-5.433-9.886c-8.79-31.107,22.467-56,49.17-34.56Z" transform="translate(-2570.01 -186.813)" fill="#1226aa"/>
      <path id="패스_764" data-name="패스 764" d="M2818.541,106.179c-1.59-11.565-4.716-23.873-15.646-29.5-10.46-5.452-22.993-4.724-33.69.416,9.18-9.1,24.517-10.858,36.1-4.759,12.109,6.243,15.884,21.464,13.235,33.842Z" transform="translate(-2709.085 -68.756)" fill="#1226aa"/>
      <path id="패스_765" data-name="패스 765" d="M2753.873,267.13" transform="translate(-2699.668 -208.648)" fill="none" stroke="#3c479c" stroke-linecap="round" stroke-linejoin="round" stroke-width="1.5"/>
      <path id="패스_766" data-name="패스 766" d="M3065.627,435.957c10.542,4.256,22.893,6.672,32.737.251,9.235-6.286,14.861-17.8,14.959-29.092a55.016,55.016,0,0,0-.968-9.808,28.14,28.14,0,0,1,3.365,10.34c3.541,28.294-25.3,48.417-50.094,28.308Z" transform="translate(-2916.017 -298.311)" fill="#1226aa"/>
      <path id="패스_767" data-name="패스 767" d="M2869.286,603.83c1,7.931,2.982,15.772,7.515,21.722,9.262,12.087,27.905,12.741,40.346,5.135,6.5-3.925,12.182-9.588,14.7-17.3a24.128,24.128,0,0,1-3.907,11.548c-20,28.679-64.586,16.049-58.652-21.1Z" transform="translate(-2777.765 -443.53)" fill="#1226aa"/>
      <path id="패스_768" data-name="패스 768" d="M2870.7,603.831" transform="translate(-2782.055 -443.531)" fill="none" stroke="#3c479c" stroke-linecap="round" stroke-linejoin="round" stroke-width="1.5"/>
      <path id="패스_769" data-name="패스 769" d="M2658.519,469.453c-10.127,7.891-19.33,19.337-15.969,32.589,2.978,12.856,12.809,22.859,25.47,27.1a31.141,31.141,0,0,1-19.273-7.693c-19-16.975-13.866-43.027,9.772-51.992Z" transform="translate(-2618.649 -346.196)" fill="#1226aa"/>
      <path id="패스_770" data-name="패스 770" d="M3057.581,175.582c5.925-4.659,11.321-9.964,14.317-16.341,9.32-20.687-11.144-43.5-32.325-43.677,7.434-1.853,15.64-.149,22.49,3.787,23.825,15.119,22.357,45.694-4.482,56.231Z" transform="translate(-2897.145 -102.118)" fill="#1226aa"/>
      <line id="선_14" data-name="선 14" transform="translate(111.485 40.022)" fill="none"/>
    </g>
    <path id="패스_771" data-name="패스 771" d="M2846.484,314.2c-3.941,19.674-24.059,32.234-44.932,28.052s-34.6-23.521-30.657-43.2,24.059-32.233,44.932-28.051S2850.427,294.526,2846.484,314.2Z" transform="translate(-2708.519 -208.295)" fill="#ffda00"/>
    <path id="패스_772" data-name="패스 772" d="M2813.328,273.114c44.283,7.195,44.3,67.3-.313,74.022-29.369,4.821-57.048-26.2-42.021-53.857-12.232,31.427,22.58,59.722,51.671,45.961,31.491-14.9,23.192-57.927-9.336-66.126Z" transform="translate(-2705.962 -210.214)" fill="#1226aa"/>
    <g id="그룹_249" data-name="그룹 249" transform="translate(76.524 75.689)">
      <g id="그룹_248" data-name="그룹 248">
        <path id="패스_773" data-name="패스 773" d="M2879.295,326.249h0a1.253,1.253,0,0,0,1.053-1.315c-.239-2.8-1.417-4.427-3.067-4.623-2.351-.278-4.765,2.44-5.687,7.814s.477,8.545,2.828,8.824c2.2.262,4.46-2.115,5.5-6.838a1.115,1.115,0,0,0-.4-1.13l-.842-.65A1.186,1.186,0,0,1,2879.295,326.249Z" transform="translate(-2858.128 -320.292)" fill="#1226aa"/>
        <path id="패스_774" data-name="패스 774" d="M2872.524,398.593a10.8,10.8,0,0,1-3.86-1.831,9.25,9.25,0,0,1-2.567-3.2,2.013,2.013,0,0,0-3.709,1.436,10.643,10.643,0,0,0,1.134,2.643c-2.723,4.055-10.929,13.853-24.6,9.809-12.021-3.557-11.911-13.786-10.751-19.882a2.192,2.192,0,0,0-2.448-2.559,2.419,2.419,0,0,0-2.221,2.4,24.424,24.424,0,0,0,7,16.527,25.076,25.076,0,0,0,21.538,7.579c6.014-.776,13-5.284,16.5-9.488a15.1,15.1,0,0,0,2.489.893,2.089,2.089,0,0,0,2.342-1.033l.335-.629A1.832,1.832,0,0,0,2872.524,398.593Z" transform="translate(-2823.505 -367.162)" fill="#1226aa"/>
        <path id="패스_775" data-name="패스 775" d="M2939.509,341.95h0a1.251,1.251,0,0,0,1.053-1.315c-.239-2.8-1.417-4.427-3.066-4.623-2.354-.279-4.766,2.44-5.687,7.814s.477,8.546,2.826,8.824c2.205.262,4.46-2.115,5.5-6.838a1.116,1.116,0,0,0-.4-1.129l-.842-.651A1.185,1.185,0,0,1,2939.509,341.95Z" transform="translate(-2901.744 -331.664)" fill="#1226aa"/>
      </g>
      <path id="패스_776" data-name="패스 776" d="M2884.5,394.163a4.632,4.632,0,0,1,2.836-7.224c3.229-.821,6.485,2.141,5.576,5.308a15.721,15.721,0,0,0-3.11-.694c-2.345.1-3.138,1.017-5.3,2.61Z" transform="translate(-2867.055 -368.466)" fill="#1226aa"/>
    </g>
  </g>
</svg>
