<svg id="그룹_624" data-name="그룹 624" xmlns="http://www.w3.org/2000/svg" width="198.42" height="200.001" viewBox="0 0 198.42 200.001">
  <g id="그룹_622" data-name="그룹 622" transform="translate(0 0)">
    <g id="그룹_551" data-name="그룹 551" transform="translate(47.599 115.406)">
      <g id="그룹_549" data-name="그룹 549" transform="translate(6.705)">
        <path id="패스_1353" data-name="패스 1353" d="M507.6,674.331c2.47,5.8,3.671,15.157,3.625,26.912-.016,4.448-1.439,11.818-4.635,20.172-5.672,14.822-7.941,16.326-14.073,20.728-3.341,2.052-6.745,2.1-9.341-.39a6.213,6.213,0,0,1,0-9.034c5.816-4.358,9.023-7.474,13.6-22.545a58.265,58.265,0,0,0,2.138-20.255,72.42,72.42,0,0,0-6.406-26.67" transform="translate(-480.762 -662.785)" fill="#309345"/>
        <path id="패스_1354" data-name="패스 1354" d="M488.005,744.373a6.92,6.92,0,0,1-4.889-2.022,6.676,6.676,0,0,1,0-9.706c5.707-4.28,8.875-7.2,13.48-22.342a58.013,58.013,0,0,0,2.115-20.1,71.591,71.591,0,0,0-6.362-26.5.464.464,0,1,1,.846-.382,72.508,72.508,0,0,1,6.443,26.841,58.769,58.769,0,0,1-2.151,20.412c-4.681,15.389-8.11,18.537-13.771,22.78a5.754,5.754,0,0,0,.044,8.329c2.341,2.248,5.453,2.368,8.776.329l.182-.131c5.924-4.254,8.142-5.845,13.7-20.368,2.864-7.487,4.584-14.966,4.605-20.009.046-11.864-1.195-21.108-3.588-26.73a.464.464,0,1,1,.855-.362c2.442,5.737,3.708,15.106,3.662,27.1-.021,5.146-1.764,12.749-4.667,20.335-5.657,14.781-7.937,16.418-14.025,20.79l-.21.15A9.727,9.727,0,0,1,488.005,744.373Z" transform="translate(-481.025 -663.048)" fill="#134f27"/>
      </g>
      <g id="그룹_550" data-name="그룹 550" transform="translate(0 6.858)">
        <path id="패스_1355" data-name="패스 1355" d="M514.991,694.031a23.339,23.339,0,0,0-.846-6.614c-2.073-6.715-8.481-11.765-12.367-14.578-3.618-2.617-11.405-5.822-15.018-6.615l-8.442,5.343c3.426,1.36,10.547,5.769,13.66,8.931,3.343,3.394,8.788,9.4,9.669,16.351a23.31,23.31,0,0,1-.311,6.657" transform="translate(-477.855 -665.758)" fill="#309345"/>
        <path id="패스_1356" data-name="패스 1356" d="M501.6,704.235a.447.447,0,0,1-.143-.023.466.466,0,0,1-.3-.586,22.994,22.994,0,0,0,.293-6.457c-.833-6.583-5.843-12.332-9.54-16.084-2.961-3.01-10.017-7.439-13.5-8.824a.46.46,0,0,1-.291-.388.467.467,0,0,1,.214-.436l8.442-5.345a.46.46,0,0,1,.348-.06,54.113,54.113,0,0,1,15.189,6.694c4.4,3.187,10.492,8.19,12.537,14.818a23.552,23.552,0,0,1,.865,6.813.466.466,0,1,1-.922-.129,23.116,23.116,0,0,0-.828-6.411c-1.964-6.362-7.9-11.232-12.2-14.34-3.387-2.451-10.916-5.624-14.661-6.5l-7.531,4.769c3.8,1.72,10.125,5.771,13,8.684,3.789,3.846,8.928,9.756,9.8,16.621a23.466,23.466,0,0,1-.33,6.858A.469.469,0,0,1,501.6,704.235Z" transform="translate(-478.117 -666.022)" fill="#134f27"/>
      </g>
    </g>
    <g id="그룹_554" data-name="그룹 554" transform="translate(113.139 115.404)">
      <g id="그룹_552" data-name="그룹 552" transform="translate(0.002)">
        <path id="패스_1357" data-name="패스 1357" d="M510.367,674.331c-2.47,5.8-3.671,15.157-3.623,26.912.016,4.448,1.439,11.818,4.635,20.172,5.673,14.822,7.942,16.326,14.071,20.728,3.344,2.052,6.747,2.1,9.344-.39a6.213,6.213,0,0,0,0-9.034c-5.815-4.358-9.023-7.474-13.6-22.545a58.246,58.246,0,0,1-2.135-20.255,72.413,72.413,0,0,1,6.406-26.67" transform="translate(-506.277 -662.784)" fill="#309345"/>
        <path id="패스_1358" data-name="패스 1358" d="M530.479,744.376a9.636,9.636,0,0,1-5.009-1.573l-.237-.168c-6.09-4.372-8.368-6.009-14.025-20.791-2.9-7.586-4.646-15.186-4.667-20.335-.046-11.991,1.22-21.362,3.662-27.1a.464.464,0,1,1,.855.362c-2.393,5.622-3.634,14.866-3.588,26.73.021,5.043,1.741,12.523,4.6,20.009,5.557,14.522,7.773,16.114,13.7,20.368l.212.15c3.291,2.018,6.408,1.9,8.748-.348a5.746,5.746,0,0,0,0-8.364c-5.617-4.208-9.046-7.356-13.727-22.745a58.86,58.86,0,0,1-2.154-20.412,72.556,72.556,0,0,1,6.445-26.841.464.464,0,1,1,.846.383,71.629,71.629,0,0,0-6.364,26.5,57.976,57.976,0,0,0,2.117,20.1c4.6,15.143,7.773,18.062,13.439,22.307a6.671,6.671,0,0,1,.042,9.74A6.924,6.924,0,0,1,530.479,744.376Z" transform="translate(-506.54 -663.048)" fill="#134f27"/>
      </g>
      <g id="그룹_553" data-name="그룹 553" transform="translate(0 6.859)">
        <path id="패스_1359" data-name="패스 1359" d="M506.774,694.031a23.349,23.349,0,0,1,.846-6.614c2.073-6.715,8.481-11.765,12.367-14.578,3.618-2.617,11.4-5.822,15.018-6.615l8.442,5.343c-3.426,1.36-10.547,5.769-13.66,8.931-3.346,3.394-8.788,9.4-9.671,16.351a23.368,23.368,0,0,0,.314,6.657" transform="translate(-506.276 -665.758)" fill="#309345"/>
        <path id="패스_1360" data-name="패스 1360" d="M520.694,704.235a.469.469,0,0,1-.443-.323,23.484,23.484,0,0,1-.33-6.858c.869-6.862,6.007-12.772,9.8-16.621,2.87-2.915,9.2-6.966,13-8.684l-7.531-4.769c-3.745.874-11.274,4.047-14.661,6.5-4.293,3.108-10.231,7.978-12.2,14.34a23.147,23.147,0,0,0-.828,6.411.466.466,0,1,1-.923.129,23.568,23.568,0,0,1,.863-6.813c2.045-6.63,8.138-11.631,12.539-14.818a54.117,54.117,0,0,1,15.189-6.694.463.463,0,0,1,.348.06l8.442,5.345a.467.467,0,0,1,.215.436.46.46,0,0,1-.291.388c-3.482,1.383-10.538,5.815-13.5,8.824-3.7,3.752-8.7,9.5-9.537,16.084a23.009,23.009,0,0,0,.293,6.457.466.466,0,0,1-.3.586A.449.449,0,0,1,520.694,704.235Z" transform="translate(-506.54 -666.022)" fill="#134f27"/>
      </g>
    </g>
    <g id="그룹_555" data-name="그룹 555" transform="translate(89.476 118.881)">
      <path id="패스_1361" data-name="패스 1361" d="M496.48,664.756v70.8a9.271,9.271,0,1,0,18.54,0v-70.8Z" transform="translate(-496.014 -664.292)" fill="#309345"/>
      <path id="패스_1362" data-name="패스 1362" d="M506.014,745.674a9.809,9.809,0,0,1-9.736-9.86v-70.8a.465.465,0,0,1,.466-.463h18.539a.464.464,0,0,1,.464.463v70.8A9.809,9.809,0,0,1,506.014,745.674Zm-8.806-80.19v70.33a8.806,8.806,0,1,0,17.61,0v-70.33Z" transform="translate(-496.278 -664.555)" fill="#134f27"/>
    </g>
    <g id="그룹_556" data-name="그룹 556" transform="translate(71.762 127.933)">
      <path id="패스_1363" data-name="패스 1363" d="M509.008,668.682a114.99,114.99,0,0,1,1.875,34.423c-.989,10.224-3.357,23.936-5.479,29.257-1.448,3.632-4.045,6.837-8.186,7.017a7.95,7.95,0,0,1-8.421-7.4c.019-3.4,2.361-6.611,3.655-8.172,3.214-3.876,3.938-9.86,5.387-21.83A109.454,109.454,0,0,0,498,677.341" transform="translate(-488.334 -668.218)" fill="#309345"/>
      <path id="패스_1364" data-name="패스 1364" d="M497.116,740.114a8.409,8.409,0,0,1-8.52-7.849c.016-3.293,2.054-6.431,3.761-8.49,3.127-3.77,3.846-9.722,5.283-21.579a109.56,109.56,0,0,0,.164-24.543.464.464,0,0,1,.413-.51.457.457,0,0,1,.51.413,110.221,110.221,0,0,1-.164,24.745c-1.457,12.046-2.188,18.088-5.49,22.071-1.61,1.941-3.533,4.884-3.547,7.877a7.511,7.511,0,0,0,7.935,6.931c4.284-.187,6.595-3.761,7.778-6.726,2.142-5.382,4.494-19.31,5.444-29.129a114.452,114.452,0,0,0-1.865-34.284.464.464,0,1,1,.908-.187,115.365,115.365,0,0,1,1.882,34.559c-.957,9.883-3.334,23.928-5.507,29.384-1.815,4.552-4.87,7.148-8.6,7.31C497.372,740.112,497.243,740.114,497.116,740.114Z" transform="translate(-488.596 -668.481)" fill="#134f27"/>
    </g>
    <g id="그룹_557" data-name="그룹 557" transform="translate(103.669 127.933)">
      <path id="패스_1365" data-name="패스 1365" d="M505.042,668.682a114.918,114.918,0,0,0-1.875,34.423c.989,10.224,3.355,23.936,5.477,29.257,1.448,3.632,4.044,6.837,8.186,7.017a7.952,7.952,0,0,0,8.423-7.4c-.018-3.4-2.363-6.611-3.657-8.172-3.214-3.876-3.939-9.86-5.384-21.83a109.331,109.331,0,0,1-.164-24.638" transform="translate(-502.17 -668.218)" fill="#309345"/>
      <path id="패스_1366" data-name="패스 1366" d="M517.458,740.114c-.127,0-.256,0-.385-.009-3.729-.161-6.782-2.758-8.6-7.31-2.172-5.453-4.552-19.5-5.509-29.384a115.351,115.351,0,0,1,1.882-34.559.465.465,0,0,1,.911.187,114.35,114.35,0,0,0-1.868,34.284c.95,9.823,3.3,23.751,5.447,29.129,1.183,2.965,3.491,6.539,7.775,6.726a7.486,7.486,0,0,0,7.939-6.957c-.019-2.967-1.939-5.91-3.549-7.851-3.3-3.983-4.033-10.024-5.49-22.063a110.3,110.3,0,0,1-.164-24.752.457.457,0,0,1,.51-.413.464.464,0,0,1,.413.51,109.2,109.2,0,0,0,.164,24.537c1.434,11.864,2.154,17.816,5.281,21.586,1.709,2.059,3.745,5.2,3.763,8.467A8.414,8.414,0,0,1,517.458,740.114Z" transform="translate(-502.433 -668.481)" fill="#134f27"/>
    </g>
    <g id="그룹_558" data-name="그룹 558" transform="translate(11.578 32.803)">
      <path id="패스_1367" data-name="패스 1367" d="M644.521,685.875c0,2.668-1.965,5.11-2.509,7.679s.263,5.6-.786,8.048c-1.022,2.377-3.759,3.869-5.225,6.115-1.4,2.149-1.663,5.288-3.445,7.294-1.7,1.914-4.745,2.527-6.761,4.294-1.921,1.683-2.938,4.665-5.124,6.2-2.089,1.471-5.2,1.409-7.508,2.735-2.216,1.271-3.758,4.01-6.166,5.135-2.315,1.086-5.37.507-7.845,1.448-2.393.911-4.317,3.387-6.846,4.155-2.451.743-5.4-.251-7.967.353-2.5.586-4.716,2.795-7.31,3.24-2.529.434-5.338-.913-7.951-.62-2.555.284-5.006,2.223-7.63,2.366-2.569.143-5.214-1.512-7.84-1.512s-5.267,1.656-7.836,1.512c-2.622-.142-5.075-2.082-7.628-2.366-2.613-.293-5.421,1.054-7.953.62-2.594-.445-4.812-2.654-7.31-3.24-2.569-.6-5.516.392-7.969-.353-2.53-.768-4.451-3.244-6.844-4.155-2.479-.941-5.532-.362-7.847-1.446-2.407-1.127-3.95-3.867-6.168-5.14-2.313-1.324-5.419-1.261-7.506-2.732-2.186-1.538-3.205-4.52-5.126-6.2-2.015-1.769-5.064-2.38-6.761-4.294-1.782-2.006-2.043-5.147-3.445-7.3-1.467-2.244-4.2-3.738-5.223-6.113-1.049-2.447-.245-5.483-.789-8.048s-2.507-5.008-2.507-7.676,1.962-5.106,2.507-7.676-.261-5.6.789-8.048c1.021-2.377,3.759-3.869,5.225-6.115,1.4-2.149,1.663-5.287,3.445-7.3,1.7-1.912,4.746-2.523,6.763-4.291,1.919-1.686,2.938-4.663,5.121-6.2,2.089-1.469,5.2-1.409,7.508-2.732,2.216-1.271,3.759-4.008,6.164-5.135,2.317-1.084,5.37-.507,7.849-1.45,2.391-.908,4.314-3.385,6.844-4.153,2.451-.745,5.4.252,7.967-.35,2.5-.588,4.713-2.8,7.31-3.242,2.529-.431,5.338.913,7.951.62,2.555-.286,5.009-2.223,7.63-2.365,2.569-.143,5.214,1.512,7.838,1.512s5.271-1.656,7.838-1.512c2.624.143,5.075,2.079,7.628,2.365,2.615.293,5.424-1.053,7.953-.62,2.594.445,4.813,2.654,7.31,3.24,2.567.6,5.516-.392,7.967.353,2.53.768,4.455,3.245,6.848,4.153,2.474.943,5.53.365,7.845,1.45,2.407,1.128,3.953,3.865,6.168,5.135,2.313,1.326,5.419,1.264,7.508,2.735,2.186,1.541,3.2,4.517,5.124,6.2,2.015,1.769,5.064,2.38,6.761,4.294,1.782,2.006,2.041,5.147,3.445,7.294,1.464,2.246,4.2,3.74,5.223,6.117,1.049,2.444.245,5.481.789,8.045S644.521,683.211,644.521,685.875Z" transform="translate(-462.234 -626.963)" fill="#ebf5fc"/>
      <path id="패스_1368" data-name="패스 1368" d="M561.4,745.053a13.572,13.572,0,0,1-3.863-.777,9.362,9.362,0,0,0-7.326,0,12.491,12.491,0,0,1-4.2.768,12.711,12.711,0,0,1-4.178-1.245,12.732,12.732,0,0,0-3.475-1.125,13.131,13.131,0,0,0-3.719.332,12.345,12.345,0,0,1-4.261.286,12.6,12.6,0,0,1-4.033-1.732,12.912,12.912,0,0,0-3.3-1.515,13.336,13.336,0,0,0-3.724-.122,12.26,12.26,0,0,1-4.273-.238,12.665,12.665,0,0,1-3.816-2.249,12.926,12.926,0,0,0-3.06-1.916,13.361,13.361,0,0,0-3.659-.627,12.119,12.119,0,0,1-4.22-.837,12.614,12.614,0,0,1-3.5-2.825,13.178,13.178,0,0,0-2.7-2.329A13.815,13.815,0,0,0,490.6,727.7a12.019,12.019,0,0,1-4.061-1.549,12.555,12.555,0,0,1-3-3.491,13.565,13.565,0,0,0-2.167-2.744,14.276,14.276,0,0,0-3.092-1.87,11.833,11.833,0,0,1-3.71-2.463,12.314,12.314,0,0,1-2.129-4.243,14.445,14.445,0,0,0-1.356-3.108,15.252,15.252,0,0,0-2.338-2.569,11.6,11.6,0,0,1-2.924-3.616,11.842,11.842,0,0,1-.618-4.823,15.393,15.393,0,0,0-.2-3.309,15.561,15.561,0,0,0-1.144-3.078,8.715,8.715,0,0,1,0-9.387,11.23,11.23,0,0,0,1.344-6.39,11.821,11.821,0,0,1,.618-4.826,11.618,11.618,0,0,1,2.924-3.613,15.28,15.28,0,0,0,2.336-2.571,14.338,14.338,0,0,0,1.358-3.108,12.376,12.376,0,0,1,2.128-4.243,11.84,11.84,0,0,1,3.71-2.461,14.379,14.379,0,0,0,3.095-1.872,13.707,13.707,0,0,0,2.167-2.741,12.477,12.477,0,0,1,2.993-3.489,12,12,0,0,1,4.061-1.552,13.785,13.785,0,0,0,3.484-1.206,13.161,13.161,0,0,0,2.7-2.329,12.658,12.658,0,0,1,3.5-2.825,12.154,12.154,0,0,1,4.218-.834,13.468,13.468,0,0,0,3.662-.625,12.951,12.951,0,0,0,3.058-1.918,12.649,12.649,0,0,1,3.817-2.248,12.347,12.347,0,0,1,4.271-.237,13.343,13.343,0,0,0,3.726-.123,12.792,12.792,0,0,0,3.307-1.517,12.59,12.59,0,0,1,4.031-1.727,12.231,12.231,0,0,1,4.259.286,13.207,13.207,0,0,0,3.719.33,12.746,12.746,0,0,0,3.477-1.125,12.611,12.611,0,0,1,4.181-1.243,12.45,12.45,0,0,1,4.2.766,9.376,9.376,0,0,0,7.326,0,12.41,12.41,0,0,1,4.2-.766,12.615,12.615,0,0,1,4.178,1.243,12.732,12.732,0,0,0,3.475,1.125,13.214,13.214,0,0,0,3.722-.33,12.232,12.232,0,0,1,4.259-.286,12.611,12.611,0,0,1,4.031,1.727,12.841,12.841,0,0,0,3.307,1.517,13.266,13.266,0,0,0,3.726.123,12.348,12.348,0,0,1,4.271.237,12.652,12.652,0,0,1,3.816,2.248,13.013,13.013,0,0,0,3.06,1.918,13.484,13.484,0,0,0,3.662.625,12.164,12.164,0,0,1,4.218.834,12.632,12.632,0,0,1,3.5,2.827,13.3,13.3,0,0,0,2.7,2.33,13.861,13.861,0,0,0,3.482,1.2,12.1,12.1,0,0,1,4.063,1.552,12.572,12.572,0,0,1,3,3.49,13.51,13.51,0,0,0,2.167,2.742,14.389,14.389,0,0,0,3.095,1.872,11.789,11.789,0,0,1,3.705,2.462,12.27,12.27,0,0,1,2.131,4.24,14.244,14.244,0,0,0,1.358,3.108,15.066,15.066,0,0,0,2.336,2.571,11.634,11.634,0,0,1,2.924,3.616,11.864,11.864,0,0,1,.618,4.824,15.334,15.334,0,0,0,.2,3.309,15.529,15.529,0,0,0,1.143,3.079,8.718,8.718,0,0,1,0,9.389,11.2,11.2,0,0,0-1.342,6.387,11.891,11.891,0,0,1-.618,4.824,11.577,11.577,0,0,1-2.927,3.616,15.083,15.083,0,0,0-2.336,2.571,14.276,14.276,0,0,0-1.358,3.106,12.281,12.281,0,0,1-2.131,4.243,11.752,11.752,0,0,1-3.708,2.46,14.429,14.429,0,0,0-3.094,1.875,13.569,13.569,0,0,0-2.165,2.742,12.574,12.574,0,0,1-3,3.491,12.071,12.071,0,0,1-4.063,1.549,13.791,13.791,0,0,0-3.48,1.206,13.115,13.115,0,0,0-2.7,2.329,12.642,12.642,0,0,1-3.5,2.823,12.23,12.23,0,0,1-4.22.837,13.376,13.376,0,0,0-3.659.627,12.928,12.928,0,0,0-3.06,1.916,12.681,12.681,0,0,1-3.814,2.249,12.249,12.249,0,0,1-4.271.238,13.429,13.429,0,0,0-3.726.12,13.087,13.087,0,0,0-3.307,1.517,12.618,12.618,0,0,1-4.031,1.732,12.324,12.324,0,0,1-4.259-.288,13.187,13.187,0,0,0-3.719-.33,12.757,12.757,0,0,0-3.477,1.123,12.662,12.662,0,0,1-4.178,1.248C561.623,745.049,561.51,745.053,561.4,745.053Zm-23.774-3.348a7.19,7.19,0,0,1,.835.046,13.6,13.6,0,0,1,3.74,1.192,12,12,0,0,0,3.862,1.174,11.479,11.479,0,0,0,3.879-.729,10.23,10.23,0,0,1,7.865,0,11.389,11.389,0,0,0,3.881.729,12.01,12.01,0,0,0,3.865-1.174,13.583,13.583,0,0,1,3.738-1.192,13.781,13.781,0,0,1,3.989.339,11.5,11.5,0,0,0,3.936.283,11.971,11.971,0,0,0,3.726-1.619,13.785,13.785,0,0,1,3.558-1.616,14.026,14.026,0,0,1,3.989-.143,11.382,11.382,0,0,0,3.948-.2,11.973,11.973,0,0,0,3.523-2.1,13.8,13.8,0,0,1,3.29-2.046,14.163,14.163,0,0,1,3.918-.685,11.3,11.3,0,0,0,3.9-.749,11.926,11.926,0,0,0,3.226-2.632,14.114,14.114,0,0,1,2.906-2.488,14.486,14.486,0,0,1,3.72-1.3,11.21,11.21,0,0,0,3.751-1.408,11.83,11.83,0,0,0,2.755-3.247,14.511,14.511,0,0,1,2.329-2.923,14.923,14.923,0,0,1,3.293-2.006,10.981,10.981,0,0,0,3.427-2.246,11.622,11.622,0,0,0,1.949-3.934,15.27,15.27,0,0,1,1.455-3.306,15.949,15.949,0,0,1,2.476-2.737,10.793,10.793,0,0,0,2.712-3.307,11.048,11.048,0,0,0,.542-4.453,12.017,12.017,0,0,1,1.425-6.777,7.857,7.857,0,0,0,0-8.624,12.008,12.008,0,0,1-1.425-6.778,11.028,11.028,0,0,0-.542-4.45,10.733,10.733,0,0,0-2.71-3.307,15.943,15.943,0,0,1-2.476-2.737,15.246,15.246,0,0,1-1.455-3.311,11.63,11.63,0,0,0-1.949-3.932,10.966,10.966,0,0,0-3.426-2.246,15,15,0,0,1-3.293-2.006,14.59,14.59,0,0,1-2.329-2.926,11.9,11.9,0,0,0-2.755-3.246,11.253,11.253,0,0,0-3.754-1.409,14.523,14.523,0,0,1-3.717-1.3,14.111,14.111,0,0,1-2.905-2.486,11.962,11.962,0,0,0-3.231-2.634,11.33,11.33,0,0,0-3.895-.751,14.087,14.087,0,0,1-3.918-.682,13.734,13.734,0,0,1-3.29-2.045,11.971,11.971,0,0,0-3.526-2.1,11.392,11.392,0,0,0-3.948-.2,13.94,13.94,0,0,1-3.992-.145,13.737,13.737,0,0,1-3.556-1.614,11.931,11.931,0,0,0-3.726-1.621,11.539,11.539,0,0,0-3.937.285,10.133,10.133,0,0,1-7.727-.853,11.891,11.891,0,0,0-3.865-1.172,11.438,11.438,0,0,0-3.881.726,10.221,10.221,0,0,1-7.863,0,11.639,11.639,0,0,0-3.881-.726,11.887,11.887,0,0,0-3.865,1.172,10.134,10.134,0,0,1-7.727.853,11.657,11.657,0,0,0-3.936-.285,11.976,11.976,0,0,0-3.726,1.621,13.7,13.7,0,0,1-3.556,1.614,13.865,13.865,0,0,1-3.994.145,11.45,11.45,0,0,0-3.946.2,11.988,11.988,0,0,0-3.523,2.1,13.783,13.783,0,0,1-3.291,2.045,14.073,14.073,0,0,1-3.918.685,11.35,11.35,0,0,0-3.9.749,12.022,12.022,0,0,0-3.228,2.632,14.045,14.045,0,0,1-2.9,2.488,14.614,14.614,0,0,1-3.717,1.3,11.186,11.186,0,0,0-3.754,1.409,11.87,11.87,0,0,0-2.756,3.244,14.522,14.522,0,0,1-2.329,2.926,15.015,15.015,0,0,1-3.293,2.006,11,11,0,0,0-3.429,2.246,11.63,11.63,0,0,0-1.944,3.932,15.253,15.253,0,0,1-1.46,3.311,15.925,15.925,0,0,1-2.476,2.737,10.821,10.821,0,0,0-2.71,3.3,11.083,11.083,0,0,0-.542,4.45,12.067,12.067,0,0,1-1.425,6.78,7.86,7.86,0,0,0,0,8.626,12.059,12.059,0,0,1,1.425,6.777,11.072,11.072,0,0,0,.539,4.448,10.789,10.789,0,0,0,2.712,3.309,15.82,15.82,0,0,1,2.476,2.735,15.4,15.4,0,0,1,1.457,3.309,11.657,11.657,0,0,0,1.944,3.934,10.987,10.987,0,0,0,3.429,2.246,15.062,15.062,0,0,1,3.293,2,14.639,14.639,0,0,1,2.327,2.927,11.864,11.864,0,0,0,2.76,3.246,11.137,11.137,0,0,0,3.752,1.411,14.392,14.392,0,0,1,3.717,1.3,14.162,14.162,0,0,1,2.905,2.486,11.911,11.911,0,0,0,3.228,2.634,11.31,11.31,0,0,0,3.9.749,14.162,14.162,0,0,1,3.918.685,13.806,13.806,0,0,1,3.291,2.046,12.041,12.041,0,0,0,3.526,2.1,11.5,11.5,0,0,0,3.946.2,13.963,13.963,0,0,1,3.994.145,13.752,13.752,0,0,1,3.556,1.614,11.928,11.928,0,0,0,3.726,1.619,11.461,11.461,0,0,0,3.936-.283A17.773,17.773,0,0,1,537.623,741.705Z" transform="translate(-462.496 -627.226)" fill="#a2b8cb"/>
    </g>
    <g id="그룹_559" data-name="그룹 559" transform="translate(10.097 15.284)">
      <path id="패스_1369" data-name="패스 1369" d="M646.836,679.228c0,2.709-1.995,5.191-2.548,7.8s.265,5.693-.8,8.177c-1.038,2.417-3.821,3.937-5.311,6.215-1.425,2.184-1.69,5.375-3.5,7.416-1.725,1.944-4.824,2.567-6.874,4.363-1.948,1.711-2.984,4.739-5.2,6.3-2.124,1.494-5.281,1.432-7.63,2.779-2.253,1.289-3.819,4.072-6.265,5.216-2.354,1.1-5.458.517-7.974,1.474-2.432.924-4.388,3.442-6.957,4.222-2.493.756-5.488-.254-8.1.357-2.539.6-4.792,2.843-7.43,3.295-2.571.441-5.423-.929-8.08-.632-2.6.29-5.089,2.26-7.755,2.405-2.611.145-5.3-1.538-7.967-1.538s-5.354,1.683-7.962,1.538c-2.666-.145-5.158-2.115-7.752-2.405-2.656-.3-5.511,1.073-8.082.632-2.638-.452-4.891-2.7-7.43-3.293-2.608-.611-5.606.4-8.1-.358-2.571-.782-4.527-3.3-6.959-4.224-2.516-.957-5.62-.369-7.974-1.471-2.446-1.146-4.015-3.929-6.267-5.221-2.349-1.346-5.506-1.284-7.628-2.778-2.223-1.563-3.258-4.591-5.209-6.3-2.048-1.8-5.147-2.419-6.872-4.363-1.81-2.043-2.075-5.232-3.5-7.416-1.487-2.281-4.271-3.8-5.308-6.212-1.065-2.486-.247-5.573-.8-8.179s-2.548-5.092-2.548-7.8,1.995-5.19,2.548-7.8-.265-5.693.8-8.179c1.038-2.417,3.821-3.934,5.308-6.215,1.427-2.184,1.693-5.375,3.5-7.416,1.725-1.944,4.824-2.564,6.872-4.363,1.951-1.711,2.986-4.736,5.207-6.3,2.124-1.494,5.281-1.43,7.63-2.777,2.253-1.291,3.821-4.074,6.265-5.218,2.354-1.1,5.458-.517,7.974-1.473,2.432-.925,4.386-3.443,6.957-4.222,2.493-.757,5.486.256,8.1-.357,2.539-.595,4.792-2.844,7.43-3.293,2.571-.44,5.426.927,8.08.629,2.6-.291,5.089-2.257,7.755-2.405,2.61-.143,5.3,1.538,7.965,1.538s5.356-1.681,7.965-1.538c2.666.148,5.158,2.115,7.755,2.405,2.654.3,5.509-1.07,8.08-.629,2.638.449,4.891,2.7,7.43,3.293,2.608.611,5.605-.4,8.1.357,2.571.779,4.526,3.3,6.959,4.222,2.516.957,5.62.369,7.974,1.471,2.447,1.146,4.015,3.929,6.267,5.22,2.35,1.347,5.507,1.285,7.63,2.779,2.221,1.564,3.256,4.594,5.207,6.3,2.048,1.8,5.147,2.417,6.872,4.363,1.81,2.041,2.075,5.23,3.5,7.416,1.489,2.278,4.273,3.8,5.308,6.212,1.068,2.486.249,5.571.8,8.177S646.836,676.521,646.836,679.228Z" transform="translate(-461.59 -619.366)" fill="#ebf5fc"/>
      <path id="패스_1370" data-name="패스 1370" d="M562.357,739.355a13.846,13.846,0,0,1-3.922-.786,9.523,9.523,0,0,0-7.45,0,12.578,12.578,0,0,1-4.264.777,12.833,12.833,0,0,1-4.245-1.264,12.991,12.991,0,0,0-3.535-1.144,13.318,13.318,0,0,0-3.782.337,12.568,12.568,0,0,1-4.326.293,12.835,12.835,0,0,1-4.093-1.76,13.026,13.026,0,0,0-3.364-1.54,13.517,13.517,0,0,0-3.786-.125,12.465,12.465,0,0,1-4.34-.242,12.791,12.791,0,0,1-3.876-2.283,13.178,13.178,0,0,0-3.113-1.951,13.721,13.721,0,0,0-3.72-.636,12.352,12.352,0,0,1-4.284-.848,12.854,12.854,0,0,1-3.556-2.869,13.341,13.341,0,0,0-2.749-2.368,14.036,14.036,0,0,0-3.54-1.227,12.162,12.162,0,0,1-4.123-1.575,12.771,12.771,0,0,1-3.044-3.547,13.819,13.819,0,0,0-2.2-2.788,14.6,14.6,0,0,0-3.145-1.9,12.029,12.029,0,0,1-3.768-2.5,12.466,12.466,0,0,1-2.161-4.308,14.569,14.569,0,0,0-1.381-3.161,15.507,15.507,0,0,0-2.378-2.615,11.789,11.789,0,0,1-2.968-3.669,12.057,12.057,0,0,1-.627-4.9,11.349,11.349,0,0,0-1.365-6.493,8.847,8.847,0,0,1,0-9.537,11.353,11.353,0,0,0,1.365-6.5,12.064,12.064,0,0,1,.63-4.9,11.768,11.768,0,0,1,2.968-3.671,15.481,15.481,0,0,0,2.377-2.613,14.653,14.653,0,0,0,1.381-3.161,12.494,12.494,0,0,1,2.161-4.31,12.073,12.073,0,0,1,3.768-2.5,14.654,14.654,0,0,0,3.147-1.9,13.821,13.821,0,0,0,2.2-2.788,12.783,12.783,0,0,1,3.042-3.544,12.17,12.17,0,0,1,4.125-1.575,13.957,13.957,0,0,0,3.54-1.227,13.442,13.442,0,0,0,2.749-2.368,12.827,12.827,0,0,1,3.551-2.868,12.413,12.413,0,0,1,4.284-.849,13.72,13.72,0,0,0,3.722-.636,13.079,13.079,0,0,0,3.11-1.951,12.925,12.925,0,0,1,3.876-2.283,12.585,12.585,0,0,1,4.338-.242,13.426,13.426,0,0,0,3.788-.122,13.161,13.161,0,0,0,3.365-1.542,12.8,12.8,0,0,1,4.093-1.757,12.6,12.6,0,0,1,4.326.29,13.333,13.333,0,0,0,3.782.337,13.012,13.012,0,0,0,3.535-1.144,9.421,9.421,0,0,1,8.511-.487,9.5,9.5,0,0,0,7.45,0,9.417,9.417,0,0,1,8.509.487,13.007,13.007,0,0,0,3.535,1.144,13.318,13.318,0,0,0,3.782-.337,12.61,12.61,0,0,1,4.326-.29,12.836,12.836,0,0,1,4.1,1.757,13.108,13.108,0,0,0,3.362,1.542,13.5,13.5,0,0,0,3.786.122,12.542,12.542,0,0,1,4.34.242,12.9,12.9,0,0,1,3.876,2.283,13.167,13.167,0,0,0,3.111,1.951,13.731,13.731,0,0,0,3.724.636,12.353,12.353,0,0,1,4.282.849,12.82,12.82,0,0,1,3.555,2.87,13.528,13.528,0,0,0,2.747,2.369,14.086,14.086,0,0,0,3.542,1.225,12.249,12.249,0,0,1,4.125,1.575,12.755,12.755,0,0,1,3.042,3.547,13.885,13.885,0,0,0,2.2,2.787,14.6,14.6,0,0,0,3.147,1.905,11.949,11.949,0,0,1,3.764,2.5,12.55,12.55,0,0,1,2.165,4.31,14.582,14.582,0,0,0,1.379,3.161,15.468,15.468,0,0,0,2.375,2.613,11.777,11.777,0,0,1,2.97,3.669,12.063,12.063,0,0,1,.627,4.9,11.4,11.4,0,0,0,1.366,6.5,8.862,8.862,0,0,1,0,9.537,15.6,15.6,0,0,0-1.165,3.129,15.765,15.765,0,0,0-.2,3.364,12.092,12.092,0,0,1-.627,4.9,11.775,11.775,0,0,1-2.972,3.671,15.4,15.4,0,0,0-2.375,2.615,14.562,14.562,0,0,0-1.381,3.158,12.5,12.5,0,0,1-2.163,4.31,11.968,11.968,0,0,1-3.766,2.5,14.674,14.674,0,0,0-3.145,1.905,13.957,13.957,0,0,0-2.207,2.788,12.7,12.7,0,0,1-3.039,3.544A12.226,12.226,0,0,1,619,721.722a13.957,13.957,0,0,0-3.54,1.224,13.4,13.4,0,0,0-2.744,2.368,12.871,12.871,0,0,1-3.553,2.869,12.373,12.373,0,0,1-4.284.848,13.75,13.75,0,0,0-3.724.636,13.207,13.207,0,0,0-3.111,1.951,12.834,12.834,0,0,1-3.874,2.283,12.506,12.506,0,0,1-4.338.242,13.351,13.351,0,0,0-3.789.125,13.008,13.008,0,0,0-3.362,1.54,12.855,12.855,0,0,1-4.1,1.757,12.553,12.553,0,0,1-4.326-.29,13.387,13.387,0,0,0-3.779-.337,13.007,13.007,0,0,0-3.537,1.144,12.851,12.851,0,0,1-4.245,1.264C562.588,739.353,562.47,739.355,562.357,739.355Zm-7.649-2.474a14,14,0,0,1,4,.8,11.771,11.771,0,0,0,3.945.738,12.17,12.17,0,0,0,3.932-1.19,13.758,13.758,0,0,1,3.8-1.213,14.035,14.035,0,0,1,4.052.344,11.68,11.68,0,0,0,4,.29A12.161,12.161,0,0,0,582.22,735a13.879,13.879,0,0,1,3.613-1.642,14.37,14.37,0,0,1,4.056-.148,11.654,11.654,0,0,0,4.012-.2,12.1,12.1,0,0,0,3.581-2.133,14.039,14.039,0,0,1,3.344-2.078,14.366,14.366,0,0,1,3.98-.694,11.541,11.541,0,0,0,3.964-.763,12.184,12.184,0,0,0,3.281-2.677A14.233,14.233,0,0,1,615,722.141a14.716,14.716,0,0,1,3.777-1.321,11.361,11.361,0,0,0,3.817-1.434,12.048,12.048,0,0,0,2.8-3.3,14.826,14.826,0,0,1,2.366-2.972,15.313,15.313,0,0,1,3.346-2.036,11.193,11.193,0,0,0,3.486-2.285,11.856,11.856,0,0,0,1.979-4,15.449,15.449,0,0,1,1.48-3.362,16.23,16.23,0,0,1,2.513-2.779,11,11,0,0,0,2.758-3.364,11.238,11.238,0,0,0,.551-4.527,12.225,12.225,0,0,1,1.446-6.88,8,8,0,0,0,0-8.776,12.215,12.215,0,0,1-1.448-6.883,11.152,11.152,0,0,0-.551-4.524,10.944,10.944,0,0,0-2.756-3.364,16.054,16.054,0,0,1-2.514-2.779,15.5,15.5,0,0,1-1.48-3.362,11.843,11.843,0,0,0-1.981-4,11.173,11.173,0,0,0-3.484-2.283,15.341,15.341,0,0,1-3.344-2.039A14.671,14.671,0,0,1,625.4,642.9a12.053,12.053,0,0,0-2.8-3.3,11.332,11.332,0,0,0-3.816-1.434A14.718,14.718,0,0,1,615,636.843a14.264,14.264,0,0,1-2.952-2.525,12.111,12.111,0,0,0-3.284-2.677,11.478,11.478,0,0,0-3.962-.763,14.53,14.53,0,0,1-3.98-.694,14.063,14.063,0,0,1-3.341-2.08,12.2,12.2,0,0,0-3.586-2.133,11.582,11.582,0,0,0-4.015-.206,10.336,10.336,0,0,1-7.667-1.787,12.159,12.159,0,0,0-3.788-1.646,11.733,11.733,0,0,0-4,.288,10.257,10.257,0,0,1-7.847-.865,12.181,12.181,0,0,0-3.932-1.192,11.7,11.7,0,0,0-3.943.74,10.4,10.4,0,0,1-7.99,0,11.694,11.694,0,0,0-3.945-.74,12.151,12.151,0,0,0-3.929,1.192,10.282,10.282,0,0,1-7.852.867,11.777,11.777,0,0,0-4-.29,12.164,12.164,0,0,0-3.789,1.646,13.874,13.874,0,0,1-3.613,1.642,14.2,14.2,0,0,1-4.054.148,11.516,11.516,0,0,0-4.015.2,12.184,12.184,0,0,0-3.583,2.133,14.008,14.008,0,0,1-3.341,2.08,14.53,14.53,0,0,1-3.98.694,11.5,11.5,0,0,0-3.964.763,12.208,12.208,0,0,0-3.281,2.675,14.4,14.4,0,0,1-2.949,2.527,14.637,14.637,0,0,1-3.777,1.319,11.443,11.443,0,0,0-3.816,1.435,12.094,12.094,0,0,0-2.8,3.3,14.681,14.681,0,0,1-2.364,2.972,15.351,15.351,0,0,1-3.346,2.038,11.184,11.184,0,0,0-3.486,2.283,11.847,11.847,0,0,0-1.979,4,15.486,15.486,0,0,1-1.48,3.362,16.042,16.042,0,0,1-2.513,2.779,11,11,0,0,0-2.758,3.364,11.246,11.246,0,0,0-.551,4.526,12.225,12.225,0,0,1-1.448,6.885,8,8,0,0,0,0,8.772,12.214,12.214,0,0,1,1.448,6.885,11.222,11.222,0,0,0,.549,4.524,10.936,10.936,0,0,0,2.758,3.362,16.181,16.181,0,0,1,2.513,2.781,15.442,15.442,0,0,1,1.48,3.362,11.821,11.821,0,0,0,1.979,4,11.174,11.174,0,0,0,3.486,2.283,15.323,15.323,0,0,1,3.346,2.039,14.823,14.823,0,0,1,2.364,2.972,12.062,12.062,0,0,0,2.806,3.3,11.262,11.262,0,0,0,3.814,1.434,14.769,14.769,0,0,1,3.777,1.322,14.313,14.313,0,0,1,2.949,2.527,12.2,12.2,0,0,0,3.286,2.677,11.519,11.519,0,0,0,3.962.763,14.366,14.366,0,0,1,3.98.694,14.058,14.058,0,0,1,3.344,2.08,12.235,12.235,0,0,0,3.583,2.133,11.66,11.66,0,0,0,4.015.2,14.176,14.176,0,0,1,4.054.146A13.963,13.963,0,0,1,527.2,735a12.187,12.187,0,0,0,3.789,1.646,11.815,11.815,0,0,0,4-.288,13.938,13.938,0,0,1,4.052-.346,13.767,13.767,0,0,1,3.8,1.213,12.166,12.166,0,0,0,3.932,1.19,11.883,11.883,0,0,0,3.945-.738A13.949,13.949,0,0,1,554.709,736.881Z" transform="translate(-461.854 -619.628)" fill="#a2b8cb"/>
    </g>
    <g id="그룹_560" data-name="그룹 560" transform="translate(12.06 24.729)">
      <path id="패스_1371" data-name="패스 1371" d="M470.079,660.269c-5.292-6.185-6.763-21.406-7.167-30.424a5.64,5.64,0,0,1,6.766-5.8c8.836,1.78,23.631,5.569,28.923,11.753,7.741,9.049,7.635,21.865-.242,28.623S477.823,669.318,470.079,660.269Z" transform="translate(-462.443 -623.461)" fill="#309345"/>
      <path id="패스_1372" data-name="패스 1372" d="M487.307,669.212c-.507,0-1.019-.021-1.531-.06a23.482,23.482,0,0,1-15.786-8.315c-5.424-6.339-6.888-21.959-7.278-30.708a6.107,6.107,0,0,1,7.319-6.281c8.571,1.725,23.76,5.568,29.186,11.907,7.9,9.228,7.764,22.363-.293,29.278A17.687,17.687,0,0,1,487.307,669.212ZM468.8,624.653a5.181,5.181,0,0,0-5.163,5.435c.385,8.629,1.815,24.018,7.056,30.143h0a22.533,22.533,0,0,0,15.152,7.995,16.944,16.944,0,0,0,12.473-3.9c7.667-6.581,7.755-19.13.192-27.968-5.244-6.127-20.209-9.9-28.663-11.6A5.231,5.231,0,0,0,468.8,624.653Z" transform="translate(-462.705 -623.724)" fill="#134f27"/>
    </g>
    <g id="그룹_568" data-name="그룹 568" transform="translate(0 49.424)">
      <g id="그룹_561" data-name="그룹 561">
        <path id="패스_1373" data-name="패스 1373" d="M533.555,653.087c-4.3-6.434-12.376-8.576-21.383-2.532a15.868,15.868,0,0,0-2.567,2.225,17.717,17.717,0,0,0,.049-2.691c-.724-10.837-7.347-15.931-15.06-15.417s-13.6,6.448-12.878,17.285a15.808,15.808,0,0,0,.639,3.337,17.458,17.458,0,0,0-2.3-1.386c-9.731-4.794-17.447-1.6-20.857,5.354s-1.227,15.023,8.5,19.815a16.172,16.172,0,0,0,3.542,1.2,24.9,24.9,0,0,0-5.864,5.878c-5.965,9.069-3.763,17.135,2.7,21.4a13.06,13.06,0,0,0,15.549-.4c1.861,8.981,8.188,13.192,15.438,12.708,8.163-.547,14.391-6.821,13.626-18.288a15.3,15.3,0,0,0-.3-2.029,17.753,17.753,0,0,0,2.306,1.377c10.088,4.967,18.085,1.656,21.62-5.553s1.273-15.572-8.816-20.539c-.244-.12-.51-.223-.77-.332.362-.2.708-.413,1.033-.632C536.767,667.815,537.86,659.523,533.555,653.087Z" transform="translate(-457.202 -634.169)" fill="#f398c0"/>
        <path id="패스_1374" data-name="패스 1374" d="M498.2,720.622c-7.25,0-12.745-4.658-14.606-12.431a13.4,13.4,0,0,1-15.5.009c-7.338-4.84-8.449-13.492-2.829-22.04a24.064,24.064,0,0,1,5.207-5.4,15.429,15.429,0,0,1-2.7-1c-9.171-4.518-12.593-12.54-8.716-20.437a13.649,13.649,0,0,1,7.87-7.169c4-1.365,8.709-.812,13.609,1.6q.654.322,1.342.747a14.844,14.844,0,0,1-.348-2.25c-.68-10.213,4.545-17.191,13.312-17.779a13.525,13.525,0,0,1,10.5,3.577c2.956,2.8,4.7,7.04,5.052,12.272.03.485.039,1,.023,1.538a14.275,14.275,0,0,1,1.771-1.425c4.538-3.046,9.127-4.22,13.28-3.4a13.628,13.628,0,0,1,8.749,6.06c4.891,7.31,2.567,15.715-5.924,21.413-.09.063-.182.123-.277.183,9.468,4.681,13,12.975,8.988,21.14a14.122,14.122,0,0,1-8.149,7.425c-4.146,1.416-9.021.837-14.094-1.66-.473-.235-.959-.5-1.451-.809.055.365.092.7.113,1.015.719,10.789-4.8,18.161-14.059,18.78C498.97,720.608,498.58,720.622,498.2,720.622Zm-14.3-13.674a.461.461,0,0,1,.454.371c1.681,8.112,7.411,12.839,14.954,12.337,8.7-.583,13.875-7.566,13.192-17.792a14.021,14.021,0,0,0-.293-1.967.469.469,0,0,1,.2-.482.462.462,0,0,1,.524.007,17.31,17.31,0,0,0,2.246,1.34c4.849,2.389,9.475,2.947,13.384,1.616a13.208,13.208,0,0,0,7.614-6.954c3.766-7.674.39-15.491-8.6-19.921-.186-.09-.385-.173-.583-.254l-.159-.065a.465.465,0,0,1-.051-.834c.35-.2.687-.4,1-.611,8.022-5.385,10.247-13.285,5.67-20.128a12.736,12.736,0,0,0-8.161-5.666c-3.9-.768-8.251.358-12.579,3.261a15.461,15.461,0,0,0-2.488,2.16.464.464,0,0,1-.8-.362,16.807,16.807,0,0,0,.044-2.617c-.332-5-1.981-9.028-4.762-11.661a12.656,12.656,0,0,0-9.8-3.325c-8.2.549-13.091,7.139-12.447,16.789a15.648,15.648,0,0,0,.623,3.24.462.462,0,0,1-.175.507.468.468,0,0,1-.537,0,16.514,16.514,0,0,0-2.241-1.349c-4.674-2.3-9.136-2.841-12.9-1.559a12.732,12.732,0,0,0-7.335,6.7c-3.629,7.393-.373,14.926,8.292,19.194a15.728,15.728,0,0,0,3.438,1.16.464.464,0,0,1,.353.355.469.469,0,0,1-.178.47,24.272,24.272,0,0,0-5.753,5.758c-5.31,8.077-4.305,16.224,2.564,20.756a12.572,12.572,0,0,0,15.018-.387A.455.455,0,0,1,483.894,706.948Zm8.251-24.906a.479.479,0,0,1-.176-.035.472.472,0,0,1-.283-.35c-.088-.521-.187-1.019-.307-1.459a6.849,6.849,0,0,0-.547-1.352.466.466,0,0,1,.148-.594,6.938,6.938,0,0,0,2.945-6.109.464.464,0,0,1,.65-.454,6.922,6.922,0,0,0,6.616-.553.465.465,0,0,1,.72.337,6.958,6.958,0,0,0,1.939,4.126.463.463,0,0,1,.132.364.452.452,0,0,1-.189.337,7.217,7.217,0,0,0-2.887,4.85.463.463,0,0,1-.685.343,7.3,7.3,0,0,0-7.8.464A.482.482,0,0,1,492.144,682.042Zm-.312-3.267a7.219,7.219,0,0,1,.441,1.178c.074.268.138.553.2.853a8.252,8.252,0,0,1,7.623-.417,8.158,8.158,0,0,1,2.742-4.522,7.885,7.885,0,0,1-1.743-3.59,7.881,7.881,0,0,1-6.228.518A7.887,7.887,0,0,1,491.833,678.775Z" transform="translate(-457.475 -634.434)" fill="#e16faa"/>
      </g>
      <path id="패스_1375" data-name="패스 1375" d="M480.2,642.505" transform="translate(-427.797 -623.894)" fill="#fff" stroke="#a2b8cb" stroke-linecap="round" stroke-linejoin="round" stroke-width="0.8"/>
      <path id="패스_1376" data-name="패스 1376" d="M476.058,649.61" transform="translate(-433.208 -614.616)" fill="#fff" stroke="#a2b8cb" stroke-linecap="round" stroke-linejoin="round" stroke-width="0.8"/>
      <g id="그룹_562" data-name="그룹 562" transform="translate(43.293 18.145)">
        <path id="패스_1377" data-name="패스 1377" d="M485.1,642.505a39.769,39.769,0,0,0-6.143,8.935,35.012,35.012,0,0,0-2.513,8.029" transform="translate(-475.993 -642.039)" fill="#f398c0"/>
        <path id="패스_1378" data-name="패스 1378" d="M477.17,659.782l-.92-.148a35.5,35.5,0,0,1,2.555-8.142,39.945,39.945,0,0,1,6.217-9.042.465.465,0,0,1,.68.634,39.494,39.494,0,0,0-6.071,8.832A34.51,34.51,0,0,0,477.17,659.782Z" transform="translate(-476.25 -642.303)" fill="#e16faa"/>
      </g>
      <g id="그룹_563" data-name="그룹 563" transform="translate(47.223 41.094)">
        <path id="패스_1379" data-name="패스 1379" d="M478.156,654.549a32.044,32.044,0,0,1,5.723-2.092" transform="translate(-477.691 -651.992)" fill="#f398c0"/>
        <path id="패스_1380" data-name="패스 1380" d="M478.419,655.277a.465.465,0,0,1-.2-.883,32.754,32.754,0,0,1,5.813-2.126.464.464,0,1,1,.224.9,31.7,31.7,0,0,0-5.629,2.059A.463.463,0,0,1,478.419,655.277Z" transform="translate(-477.955 -652.255)" fill="#e16faa"/>
      </g>
      <g id="그룹_564" data-name="그룹 564" transform="translate(62.082 39.636)">
        <path id="패스_1381" data-name="패스 1381" d="M484.6,652.292a16.193,16.193,0,0,1,4.019-.465,18.193,18.193,0,0,1,2.958.219" transform="translate(-484.136 -651.361)" fill="#8a65aa"/>
        <path id="패스_1382" data-name="패스 1382" d="M484.861,653.018a.46.46,0,0,1-.452-.364.466.466,0,0,1,.353-.553,16.721,16.721,0,0,1,4.114-.475,18.931,18.931,0,0,1,3.014.221.462.462,0,0,1,.411.51.45.45,0,0,1-.51.413,18.1,18.1,0,0,0-2.906-.214,15.858,15.858,0,0,0-3.922.452A.5.5,0,0,1,484.861,653.018Z" transform="translate(-484.398 -651.623)" fill="#57426e"/>
      </g>
      <g id="그룹_565" data-name="그룹 565" transform="translate(14.65 44.543)">
        <path id="패스_1383" data-name="패스 1383" d="M464.03,654.406a6,6,0,0,1,2.465-.454" transform="translate(-463.565 -653.489)" fill="#f398c0"/>
        <path id="패스_1384" data-name="패스 1384" d="M464.293,655.133a.464.464,0,0,1-.168-.9,6.46,6.46,0,0,1,2.633-.485h0a.464.464,0,1,1,0,.927,5.532,5.532,0,0,0-2.3.425A.481.481,0,0,1,464.293,655.133Z" transform="translate(-463.829 -653.751)" fill="#e16faa"/>
      </g>
      <g id="그룹_566" data-name="그룹 566" transform="translate(25.968 23.136)">
        <path id="패스_1385" data-name="패스 1385" d="M468.939,644.669a11.158,11.158,0,0,0,1.884,5.633,13.364,13.364,0,0,0,2.449,2.892" transform="translate(-468.473 -644.204)" fill="#f398c0"/>
        <path id="패스_1386" data-name="패스 1386" d="M473.536,653.921a.465.465,0,0,1-.265-.081,13.756,13.756,0,0,1-2.576-3.025,11.449,11.449,0,0,1-1.942-5.7l-.014-.124a.465.465,0,0,1,.925-.106l.014.127a10.666,10.666,0,0,0,1.8,5.311,13.258,13.258,0,0,0,2.322,2.76.463.463,0,0,1-.263.844Z" transform="translate(-468.737 -644.467)" fill="#e16faa"/>
      </g>
      <g id="그룹_567" data-name="그룹 567" transform="translate(25.884 30.813)">
        <path id="패스_1387" data-name="패스 1387" d="M490.821,656.45a11.124,11.124,0,1,1-13.483-8.117A11.141,11.141,0,0,1,490.821,656.45Z" transform="translate(-468.438 -647.532)" fill="#ffc31c"/>
        <path id="패스_1388" data-name="패스 1388" d="M480.268,671.016A11.612,11.612,0,1,1,491.533,656.6h0a11.611,11.611,0,0,1-11.264,14.414Zm.039-22.289a10.681,10.681,0,0,0-5.511,19.829,10.574,10.574,0,0,0,8.068,1.21,10.679,10.679,0,0,0-2.557-21.039Z" transform="translate(-468.7 -647.797)" fill="#e4a324"/>
      </g>
    </g>
    <g id="그룹_579" data-name="그룹 579" transform="translate(37.722 0.569)">
      <g id="그룹_569" data-name="그룹 569" transform="translate(52.506 49.513)">
        <path id="패스_1389" data-name="패스 1389" d="M508.615,638.41l5.283,7.441s-7.148,6.321-7.446,6.461-7.46-10.236-7.914-10.556-1.732-6.834-1.732-6.834l8.105,4.072Z" transform="translate(-496.341 -634.456)" fill="#309345"/>
        <path id="패스_1390" data-name="패스 1390" d="M506.692,653.062c-.4,0-1.054-.871-5.062-6.445-1.354-1.882-2.885-4.015-3.124-4.24-.138-.1-.576-.406-1.893-7.1a.465.465,0,0,1,.664-.505l7.972,4.008,3.556-.562a.464.464,0,0,1,.452.189l5.283,7.443a.466.466,0,0,1-.072.618c-3.284,2.9-7.261,6.392-7.557,6.531A.55.55,0,0,1,506.692,653.062Zm-8.979-17.036a38.686,38.686,0,0,0,1.421,5.675,49.311,49.311,0,0,1,3.251,4.372c1.566,2.179,3.648,5.075,4.358,5.9.934-.775,4.338-3.759,6.8-5.931l-4.875-6.869-3.42.542a.455.455,0,0,1-.281-.046Z" transform="translate(-496.604 -634.72)" fill="#134f27"/>
      </g>
      <g id="그룹_570" data-name="그룹 570">
        <path id="패스_1391" data-name="패스 1391" d="M551.527,662.036c1.762-6.758-1.718-13.63-11.368-16.372a14.911,14.911,0,0,0-3.09-.484,15.914,15.914,0,0,0,1.868-1.54c6.964-6.839,6.39-14.428,1.312-19.5s-12.738-5.7-19.7,1.132a13.874,13.874,0,0,0-1.889,2.4,16.374,16.374,0,0,0-.463-2.414c-2.686-9.578-9.595-13.081-16.437-11.393s-11.02,7.926-8.336,17.5a15.3,15.3,0,0,0,1.351,3.164,23.29,23.29,0,0,0-7.607-.648c-9.853,1.148-14.018,7.4-12.973,14.384a12.423,12.423,0,0,0,9.8,10.593c-5,6.544-4,13.411.775,18.18,5.37,5.363,13.474,6.034,20.843-1.2a13.129,13.129,0,0,0,1.2-1.4,16.289,16.289,0,0,0,.47,2.41c2.783,9.929,9.948,13.563,17.038,11.815s11.423-8.218,8.64-18.148c-.067-.24-.159-.486-.244-.729.357.131.715.249,1.063.351C543.429,672.881,549.765,668.8,551.527,662.036Z" transform="translate(-473.569 -612.978)" fill="#ed313e"/>
        <path id="패스_1392" data-name="패스 1392" d="M521.135,689.833c-6.491,0-11.806-4.635-14.034-12.586-.129-.45-.235-.927-.328-1.427-.2.23-.387.433-.576.618-6.952,6.826-15.392,7.3-21.5,1.2-5.149-5.142-5.594-12.076-1.224-18.233A12.766,12.766,0,0,1,474,648.6a12.125,12.125,0,0,1,2.218-9.387c2.322-3.037,6.182-4.946,11.163-5.527a22.248,22.248,0,0,1,6.791.447,14.3,14.3,0,0,1-.927-2.377c-1.363-4.856-1.061-9.173.869-12.484a12.079,12.079,0,0,1,7.8-5.6c7.78-1.921,14.458,2.68,16.992,11.721q.173.616.3,1.305a12.362,12.362,0,0,1,1.28-1.494c6.581-6.461,14.573-6.906,20.354-1.13a12.75,12.75,0,0,1,4,9.157c-.016,3.8-1.854,7.6-5.315,11-.291.286-.613.574-.962.858a13.322,13.322,0,0,1,1.985.391c9.111,2.588,13.7,9.233,11.691,16.935a12,12,0,0,1-5.631,7.628c-3.369,1.927-7.76,2.207-12.694.8l-.21-.06c1.37,4.974,1.045,9.4-.936,12.8a12.5,12.5,0,0,1-8.075,5.792A14.876,14.876,0,0,1,521.135,689.833Zm-14.059-15.588a.433.433,0,0,1,.12.016.468.468,0,0,1,.339.392,16.217,16.217,0,0,0,.459,2.342c2.479,8.836,8.942,13.347,16.48,11.489a11.6,11.6,0,0,0,7.494-5.359c1.87-3.208,2.149-7.43.809-12.212-.051-.177-.115-.357-.177-.539l-.058-.162a.461.461,0,0,1,.113-.484.47.47,0,0,1,.487-.106c.346.129.692.244,1.028.341,4.69,1.33,8.832,1.084,11.982-.719a11.081,11.081,0,0,0,5.191-7.056h0c1.868-7.164-2.467-13.37-11.046-15.807a14.668,14.668,0,0,0-2.993-.47.463.463,0,0,1-.24-.839,15.019,15.019,0,0,0,1.812-1.494c3.279-3.221,5.02-6.8,5.036-10.344a11.836,11.836,0,0,0-3.726-8.495c-5.389-5.38-12.865-4.937-19.049,1.137a13.218,13.218,0,0,0-1.824,2.315.463.463,0,0,1-.851-.2,15.8,15.8,0,0,0-.449-2.343c-2.387-8.516-8.62-12.86-15.879-11.071a11.166,11.166,0,0,0-7.22,5.163c-1.8,3.09-2.071,7.158-.779,11.765a14.764,14.764,0,0,0,1.312,3.067.466.466,0,0,1-.512.678,22.614,22.614,0,0,0-7.45-.641c-4.722.551-8.366,2.338-10.531,5.168a11.22,11.22,0,0,0-2.036,8.688,11.936,11.936,0,0,0,9.445,10.208.47.47,0,0,1,.33.3.456.456,0,0,1-.069.436c-4.5,5.894-4.22,12.625.731,17.569,5.717,5.707,13.64,5.232,20.193-1.2a11.949,11.949,0,0,0,1.158-1.344A.468.468,0,0,1,507.076,674.245Zm5.313-18.514a.47.47,0,0,1-.175-.035.462.462,0,0,1-.277-.327,6.944,6.944,0,0,0-5.08-5.145.466.466,0,0,1-.249-.747c.3-.365.579-.722.807-1.061a5.954,5.954,0,0,0,.581-1.158.471.471,0,0,1,.553-.281,6.209,6.209,0,0,0,5.935-1.506.465.465,0,0,1,.768.187,6.583,6.583,0,0,0,4.413,4.268.466.466,0,0,1,.212.765,5.993,5.993,0,0,0-1.614,3.726.466.466,0,0,1-.189.344.449.449,0,0,1-.385.078,6.534,6.534,0,0,0-5.05.816A.466.466,0,0,1,512.389,655.731Zm-4.63-6.208a7.907,7.907,0,0,1,4.921,5.039,7.452,7.452,0,0,1,4.711-.731,6.928,6.928,0,0,1,1.356-3.235,7.57,7.57,0,0,1-4.132-4,7.167,7.167,0,0,1-5.905,1.372,6.293,6.293,0,0,1-.521.964C508.056,649.124,507.913,649.323,507.758,649.523Z" transform="translate(-473.834 -613.247)" fill="#af232f"/>
      </g>
      <path id="패스_1393" data-name="패스 1393" d="M501.372,627.212" transform="translate(-437.872 -595.01)" fill="#fff" stroke="#a2b8cb" stroke-linecap="round" stroke-linejoin="round" stroke-width="0.8"/>
      <path id="패스_1394" data-name="패스 1394" d="M493.977,628.478" transform="translate(-447.529 -593.357)" fill="#fff" stroke="#a2b8cb" stroke-linecap="round" stroke-linejoin="round" stroke-width="0.8"/>
      <g id="그룹_571" data-name="그룹 571" transform="translate(46.383 31.696)">
        <path id="패스_1395" data-name="패스 1395" d="M510.943,627.235a36.424,36.424,0,0,0-9.871.943,31.4,31.4,0,0,0-7.028,2.942" transform="translate(-493.826 -626.729)" fill="#ed313e"/>
        <path id="패스_1396" data-name="패스 1396" d="M494.4,631.785l-.452-.812a31.545,31.545,0,0,1,7.141-2.984,36.768,36.768,0,0,1,10-.957.464.464,0,1,1-.048.927,36.162,36.162,0,0,0-9.743.936A30.643,30.643,0,0,0,494.4,631.785Z" transform="translate(-493.949 -626.993)" fill="#af232f"/>
      </g>
      <g id="그룹_572" data-name="그룹 572" transform="translate(33.507 47.816)">
        <path id="패스_1397" data-name="패스 1397" d="M491.407,634.184a40.242,40.242,0,0,0-2.841,10.377" transform="translate(-488.103 -633.721)" fill="#ed313e"/>
        <path id="패스_1398" data-name="패스 1398" d="M488.831,645.286l-.065,0a.462.462,0,0,1-.4-.521,40.641,40.641,0,0,1,2.873-10.494.463.463,0,1,1,.853.362,40,40,0,0,0-2.806,10.254A.464.464,0,0,1,488.831,645.286Z" transform="translate(-488.365 -633.984)" fill="#af232f"/>
      </g>
      <g id="그룹_573" data-name="그룹 573" transform="translate(43.03 43.088)">
        <path id="패스_1399" data-name="패스 1399" d="M492.7,632.135a30.732,30.732,0,0,1,4.937,2.76" transform="translate(-492.233 -631.669)" fill="#ed313e"/>
        <path id="패스_1400" data-name="패스 1400" d="M497.9,635.623a.44.44,0,0,1-.267-.085,30.342,30.342,0,0,0-4.854-2.714.464.464,0,0,1,.371-.851,31.4,31.4,0,0,1,5.018,2.806.465.465,0,0,1-.268.844Z" transform="translate(-492.495 -631.933)" fill="#af232f"/>
      </g>
      <g id="그룹_574" data-name="그룹 574" transform="translate(54.238 51.634)">
        <path id="패스_1401" data-name="패스 1401" d="M497.557,635.84a15.625,15.625,0,0,1,2.781,2.527A17.747,17.747,0,0,1,502,640.556" transform="translate(-497.093 -635.376)" fill="#ed313e"/>
        <path id="패스_1402" data-name="패스 1402" d="M502.264,641.282a.464.464,0,0,1-.378-.2,17.654,17.654,0,0,0-1.63-2.145,14.94,14.94,0,0,0-2.712-2.465.464.464,0,1,1,.553-.745,15.877,15.877,0,0,1,2.85,2.589,18.042,18.042,0,0,1,1.695,2.228.463.463,0,0,1-.108.648A.473.473,0,0,1,502.264,641.282Z" transform="translate(-497.356 -635.639)" fill="#af232f"/>
      </g>
      <g id="그룹_575" data-name="그룹 575" transform="translate(14.047 37.286)">
        <path id="패스_1403" data-name="패스 1403" d="M491.367,629.619a29.066,29.066,0,0,0-5.514,1.794,28.549,28.549,0,0,0-5.725,3.362" transform="translate(-479.663 -629.153)" fill="#ed313e"/>
        <path id="패스_1404" data-name="패스 1404" d="M480.392,635.5a.468.468,0,0,1-.371-.185.463.463,0,0,1,.09-.65,29.02,29.02,0,0,1,5.818-3.417,29.584,29.584,0,0,1,5.6-1.822.465.465,0,0,1,.2.908A28.462,28.462,0,0,0,486.3,632.1a27.982,27.982,0,0,0-5.634,3.309A.466.466,0,0,1,480.392,635.5Z" transform="translate(-479.926 -629.417)" fill="#af232f"/>
      </g>
      <g id="그룹_576" data-name="그룹 576" transform="translate(21.842 21.462)">
        <path id="패스_1405" data-name="패스 1405" d="M483.508,622.756a5.756,5.756,0,0,1,1.819,1.45" transform="translate(-483.043 -622.291)" fill="#ed313e"/>
        <path id="패스_1406" data-name="패스 1406" d="M485.591,624.933a.456.456,0,0,1-.348-.157,5.314,5.314,0,0,0-1.69-1.349.464.464,0,1,1,.438-.819,6.185,6.185,0,0,1,1.948,1.554.462.462,0,0,1-.042.655A.455.455,0,0,1,485.591,624.933Z" transform="translate(-483.306 -622.555)" fill="#af232f"/>
      </g>
      <g id="그룹_577" data-name="그룹 577" transform="translate(40.524 16.624)">
        <path id="패스_1407" data-name="패스 1407" d="M494.8,620.633a9.722,9.722,0,0,0-2.7,4.6,11.878,11.878,0,0,0-.475,3.394" transform="translate(-491.145 -620.226)" fill="#ed313e"/>
        <path id="패스_1408" data-name="패스 1408" d="M491.89,629.329a.463.463,0,0,1-.459-.406,12.244,12.244,0,0,1,.489-3.583,10.142,10.142,0,0,1,2.73-4.71.519.519,0,0,1,.694-.067.423.423,0,0,1,.06.618l-.074.078a9.135,9.135,0,0,0-2.516,4.337,11.67,11.67,0,0,0-.464,3.212.463.463,0,0,1-.4.519Z" transform="translate(-491.408 -620.457)" fill="#af232f"/>
      </g>
      <g id="그룹_578" data-name="그룹 578" transform="translate(27.399 25.133)">
        <path id="패스_1409" data-name="패스 1409" d="M504.585,640.412a10.336,10.336,0,1,1-2.709-14.133A10.151,10.151,0,0,1,504.585,640.412Z" transform="translate(-485.456 -623.882)" fill="#ffc31c"/>
        <path id="패스_1410" data-name="패스 1410" d="M496.683,645.32a10.908,10.908,0,0,1-6.3-2.018,10.664,10.664,0,0,1-2.823-14.778,10.246,10.246,0,0,1,6.673-4.215,10.864,10.864,0,0,1,8.168,1.854,10.668,10.668,0,0,1,2.823,14.779,10.237,10.237,0,0,1-6.671,4.217A10.942,10.942,0,0,1,496.683,645.32Zm-.576-20.246a9.974,9.974,0,0,0-1.709.15,9.318,9.318,0,0,0-6.074,3.833,9.737,9.737,0,0,0,2.6,13.487,9.93,9.93,0,0,0,7.474,1.7,9.31,9.31,0,0,0,6.071-3.833,9.736,9.736,0,0,0-2.6-13.487A9.993,9.993,0,0,0,496.106,625.074Z" transform="translate(-485.716 -624.147)" fill="#e4a324"/>
      </g>
    </g>
    <g id="그룹_580" data-name="그룹 580" transform="translate(156.65 32.597)">
      <path id="패스_1411" data-name="패스 1411" d="M531.306,637.606c5.057-5.6,18.867-8.753,27.1-10.187a5.23,5.23,0,0,1,6.127,5.546c-.6,8.352-2.345,22.427-7.4,28.031-7.4,8.2-19.186,9.609-26.318,3.152S523.9,645.806,531.306,637.606Z" transform="translate(-525.153 -626.873)" fill="#309345"/>
      <path id="패스_1412" data-name="패스 1412" d="M541.928,668.925a16.48,16.48,0,0,1-11.17-4.171c-7.308-6.62-7.1-18.819.459-27.193,5.193-5.753,19.374-8.947,27.369-10.337a5.7,5.7,0,0,1,6.669,6.039c-.581,8.1-2.332,22.556-7.524,28.3a21.813,21.813,0,0,1-14.867,7.337C542.551,668.918,542.24,668.925,541.928,668.925Zm17.654-40.86a4.944,4.944,0,0,0-.837.073c-7.875,1.372-21.833,4.5-26.839,10.043h0c-7.218,8-7.455,19.607-.523,25.883a15.663,15.663,0,0,0,11.433,3.911,20.879,20.879,0,0,0,14.227-7.029c5-5.543,6.713-19.766,7.284-27.751a4.767,4.767,0,0,0-4.746-5.131Zm-28.019,9.8h0Z" transform="translate(-525.409 -627.136)" fill="#134f27"/>
    </g>
    <g id="그룹_590" data-name="그룹 590" transform="translate(99.142)">
      <g id="그룹_581" data-name="그룹 581">
        <path id="패스_1413" data-name="패스 1413" d="M513.8,655.944c.355.06.724.106,1.1.146-.173.173-.353.344-.507.521-6.411,7.321-5,14.654.763,19.1s13.695,4.337,20.105-2.981a14.809,14.809,0,0,0,1.372-1.864,12.6,12.6,0,0,0,.547,1.695c3.872,9.253,11.5,12.062,18.482,9.719,6.2-2.08,9.793-7.529,7.808-15.208,5.666,1.2,10.34-.892,13.047-4.962,3.68-5.531,2.336-12.608-6.173-17.7a24.633,24.633,0,0,0-7.169-2.62,13.819,13.819,0,0,0,2.465-2.14c6.185-7.063,4.824-14.135-.735-18.431s-13.213-4.186-19.4,2.877a14.463,14.463,0,0,0-1.367,1.868,13.1,13.1,0,0,0-.779-2.834c-3.659-8.746-10.87-11.4-17.467-9.189s-10.088,8.458-6.429,17.207a15.412,15.412,0,0,0,1.1,2.094,15.858,15.858,0,0,0-3-.874c-9.842-1.683-15.692,2.735-16.732,9.242S503.954,654.259,513.8,655.944Z" transform="translate(-500.204 -612.73)" fill="#00a88f"/>
        <path id="패스_1414" data-name="패스 1414" d="M551.217,683.819c-6.016,0-11.308-3.9-14.2-10.806-.1-.242-.2-.5-.291-.784a13.148,13.148,0,0,1-.853,1.082c-6.048,6.906-14.19,8.1-20.737,3.042a12.4,12.4,0,0,1-5.112-8.64c-.353-3.636,1.088-7.437,4.169-11.006-.072-.009-.141-.021-.21-.035-9.3-1.589-14.536-7.423-13.349-14.857a11.18,11.18,0,0,1,4.538-7.526c3.157-2.26,7.559-2.986,12.731-2.1a13.625,13.625,0,0,1,1.9.475c-.189-.364-.355-.719-.5-1.061-1.826-4.358-2.006-8.391-.526-11.656a11.661,11.661,0,0,1,7.234-6.166c7.506-2.52,14.589,1.19,18.044,9.447a11.838,11.838,0,0,1,.586,1.831c.258-.36.519-.692.781-.991,5.844-6.673,13.709-7.824,20.029-2.937a11.991,11.991,0,0,1,4.937,8.345c.344,3.553-1.086,7.275-4.137,10.757a12.72,12.72,0,0,1-1.729,1.612,23.576,23.576,0,0,1,6.323,2.447c4.442,2.654,7.229,6.014,8.066,9.708a10.974,10.974,0,0,1-1.743,8.647c-2.845,4.278-7.483,6.185-12.816,5.295,1.543,7.079-1.582,12.812-8.278,15.058A15.259,15.259,0,0,1,551.217,683.819ZM536.9,670.675a.415.415,0,0,1,.072.007.463.463,0,0,1,.378.344,11.931,11.931,0,0,0,.525,1.63c3.447,8.239,10.471,11.952,17.905,9.459,6.411-2.149,9.286-7.764,7.506-14.649a.464.464,0,0,1,.547-.572c5.232,1.109,9.814-.63,12.565-4.764a10.065,10.065,0,0,0,1.61-7.928c-.78-3.443-3.42-6.595-7.635-9.118a24.009,24.009,0,0,0-7.03-2.564.464.464,0,0,1-.166-.835,13.191,13.191,0,0,0,2.38-2.066c2.878-3.286,4.232-6.763,3.911-10.053a11.081,11.081,0,0,0-4.579-7.7c-5.906-4.559-13.271-3.457-18.763,2.817a13.972,13.972,0,0,0-1.321,1.808.464.464,0,0,1-.851-.166,12.619,12.619,0,0,0-.752-2.735c-3.251-7.775-9.881-11.278-16.891-8.926a10.752,10.752,0,0,0-6.682,5.668c-1.372,3.025-1.187,6.8.535,10.916a14.8,14.8,0,0,0,1.063,2.031.465.465,0,0,1-.563.676,15.328,15.328,0,0,0-2.912-.849c-4.926-.844-9.083-.173-12.035,1.939a10.282,10.282,0,0,0-4.162,6.918c-1.1,6.883,3.844,12.3,12.588,13.8h0c.346.057.706.1,1.072.141a.456.456,0,0,1,.392.3.465.465,0,0,1-.109.484l-.108.106c-.132.132-.263.26-.378.392-2.986,3.411-4.391,7.019-4.058,10.435a11.511,11.511,0,0,0,4.752,8c6.134,4.736,13.776,3.588,19.476-2.922a13.947,13.947,0,0,0,1.326-1.806A.472.472,0,0,1,536.9,670.675Zm2.769-17.9h-.016a.467.467,0,0,1-.369-.2A6.9,6.9,0,0,0,535,649.763a.471.471,0,0,1-.311-.233.455.455,0,0,1-.028-.387,5.452,5.452,0,0,0-.016-3.83.466.466,0,0,1,.514-.62,6.4,6.4,0,0,0,5.672-1.794.458.458,0,0,1,.422-.136.466.466,0,0,1,.343.276,6.528,6.528,0,0,0,4.824,3.771.466.466,0,0,1,.378.478,5.377,5.377,0,0,0,.076,1.222c.073.385.187.807.316,1.243a.463.463,0,0,1-.1.445.456.456,0,0,1-.435.141,6.719,6.719,0,0,0-6.618,2.264A.466.466,0,0,1,539.668,652.777Zm-3.977-3.8a7.878,7.878,0,0,1,4,2.6,7.653,7.653,0,0,1,6.408-2.26c-.055-.217-.1-.427-.141-.627a5.538,5.538,0,0,1-.1-1.044,7.517,7.517,0,0,1-4.84-3.646,7.358,7.358,0,0,1-5.29,1.7A6.372,6.372,0,0,1,535.691,648.974Z" transform="translate(-500.47 -613)" fill="#088471"/>
      </g>
      <path id="패스_1415" data-name="패스 1415" d="M509.3,621.9" transform="translate(-488.941 -601.38)" fill="#fff" stroke="#a2b8cb" stroke-linecap="round" stroke-linejoin="round" stroke-width="0.8"/>
      <path id="패스_1416" data-name="패스 1416" d="M515.526,626.065" transform="translate(-480.808 -595.939)" fill="#fff" stroke="#a2b8cb" stroke-linecap="round" stroke-linejoin="round" stroke-width="0.8"/>
      <g id="그룹_582" data-name="그룹 582" transform="translate(19.894 20.054)">
        <path id="패스_1417" data-name="패스 1417" d="M509.3,621.9a38.757,38.757,0,0,1,8.606,4.926,32.318,32.318,0,0,1,5.239,5.447" transform="translate(-508.835 -621.435)" fill="#00a88f"/>
        <path id="패스_1418" data-name="패스 1418" d="M523.384,632.986a.438.438,0,0,1-.341-.161,32.087,32.087,0,0,0-5.154-5.368,37.978,37.978,0,0,0-8.5-4.865.465.465,0,0,1,.348-.862,39.017,39.017,0,0,1,8.709,4.983,32.693,32.693,0,0,1,5.3,5.5.468.468,0,0,1-.359.774Z" transform="translate(-509.097 -621.697)" fill="#088471"/>
      </g>
      <g id="그룹_583" data-name="그룹 583" transform="translate(36.399 44.923)">
        <path id="패스_1419" data-name="패스 1419" d="M517.93,632.683a36.358,36.358,0,0,1-.5,5.806,35.67,35.67,0,0,1-.978,4.243" transform="translate(-515.992 -632.22)" fill="#00a88f"/>
        <path id="패스_1420" data-name="패스 1420" d="M516.719,643.458a.438.438,0,0,1-.131-.019.466.466,0,0,1-.313-.579,35.645,35.645,0,0,0,1.453-9.918.465.465,0,0,1,.466-.461h0a.466.466,0,0,1,.463.466,37.241,37.241,0,0,1-.5,5.879,36.741,36.741,0,0,1-.992,4.3A.466.466,0,0,1,516.719,643.458Z" transform="translate(-516.255 -632.482)" fill="#088471"/>
      </g>
      <g id="그룹_584" data-name="그룹 584" transform="translate(28.076 38.075)">
        <path id="패스_1421" data-name="패스 1421" d="M518.414,629.735a31.531,31.531,0,0,0-5.567.3" transform="translate(-512.383 -629.249)" fill="#00a88f"/>
        <path id="패스_1422" data-name="패스 1422" d="M513.11,630.764a.465.465,0,0,1-.072-.925,31.728,31.728,0,0,1,5.659-.3.464.464,0,0,1,.443.484.451.451,0,0,1-.484.443,31.022,31.022,0,0,0-5.474.3A.377.377,0,0,1,513.11,630.764Z" transform="translate(-512.646 -629.512)" fill="#088471"/>
      </g>
      <g id="그룹_585" data-name="그룹 585" transform="translate(14.232 40.72)">
        <path id="패스_1423" data-name="패스 1423" d="M512.726,630.861a15.076,15.076,0,0,0-3.514,1,16.991,16.991,0,0,0-2.368,1.176" transform="translate(-506.379 -630.395)" fill="#00a88f"/>
        <path id="패스_1424" data-name="패스 1424" d="M507.106,633.763a.464.464,0,0,1-.219-.874,17.5,17.5,0,0,1,2.414-1.2,15.781,15.781,0,0,1,3.6-1.026.465.465,0,0,1,.166.916,14.578,14.578,0,0,0-3.427.975,16.581,16.581,0,0,0-2.317,1.151A.471.471,0,0,1,507.106,633.763Z" transform="translate(-506.642 -630.659)" fill="#088471"/>
      </g>
      <g id="그룹_586" data-name="그룹 586" transform="translate(52.042 40.544)">
        <path id="패스_1425" data-name="패스 1425" d="M523.239,630.784a30.529,30.529,0,0,1,4.312,3.832,29.08,29.08,0,0,1,3.892,5.262" transform="translate(-522.777 -630.321)" fill="#00a88f"/>
        <path id="패스_1426" data-name="패스 1426" d="M531.705,640.6a.465.465,0,0,1-.4-.233,28.556,28.556,0,0,0-3.828-5.177,29.953,29.953,0,0,0-4.245-3.772.465.465,0,0,1,.549-.75,31.289,31.289,0,0,1,4.377,3.89,29.56,29.56,0,0,1,3.953,5.345.466.466,0,0,1-.168.636A.5.5,0,0,1,531.705,640.6Z" transform="translate(-523.039 -630.583)" fill="#088471"/>
      </g>
      <g id="그룹_587" data-name="그룹 587" transform="translate(59.137 28.464)">
        <path id="패스_1427" data-name="패스 1427" d="M528.538,625.544a5.715,5.715,0,0,0-2.221.482" transform="translate(-525.852 -625.083)" fill="#00a88f"/>
        <path id="패스_1428" data-name="패스 1428" d="M526.58,626.751a.463.463,0,0,1-.175-.892,6.043,6.043,0,0,1,2.38-.514.479.479,0,0,1,.48.445.463.463,0,0,1-.447.482,5.207,5.207,0,0,0-2.062.445A.434.434,0,0,1,526.58,626.751Z" transform="translate(-526.116 -625.344)" fill="#088471"/>
      </g>
      <g id="그룹_588" data-name="그룹 588" transform="translate(43.143 15.461)">
        <path id="패스_1429" data-name="패스 1429" d="M519.625,619.774a9.082,9.082,0,0,1,.65,5.06,10.616,10.616,0,0,1-.895,3.1" transform="translate(-518.916 -619.615)" fill="#00a88f"/>
        <path id="패스_1430" data-name="패스 1430" d="M519.644,628.486a.472.472,0,0,1-.249-.072.463.463,0,0,1-.143-.641,10.224,10.224,0,0,0,.825-2.912,8.472,8.472,0,0,0-.59-4.739l.4-.258.436-.159-.436.159.471-.06a9.477,9.477,0,0,1,.639,5.179,11.087,11.087,0,0,1-.961,3.288A.466.466,0,0,1,519.644,628.486Z" transform="translate(-519.179 -619.705)" fill="#088471"/>
      </g>
      <g id="그룹_589" data-name="그룹 589" transform="translate(31.421 24.147)">
        <path id="패스_1431" data-name="패스 1431" d="M514.5,634.744c1.116,5.186,6.5,8.7,12.025,7.84s9.1-5.756,7.988-10.941-6.5-8.7-12.025-7.84S513.386,629.558,514.5,634.744Z" transform="translate(-513.834 -623.209)" fill="#ffc31c"/>
        <path id="패스_1432" data-name="패스 1432" d="M525.127,643.441a10.994,10.994,0,0,1-10.817-8.336h0a9.239,9.239,0,0,1,1.427-7.252,10.189,10.189,0,0,1,6.941-4.25c5.751-.885,11.386,2.788,12.551,8.2a9.243,9.243,0,0,1-1.43,7.252,10.184,10.184,0,0,1-6.941,4.25A11.613,11.613,0,0,1,525.127,643.441Zm-9.911-8.532c1.063,4.941,6.228,8.3,11.5,7.478a9.265,9.265,0,0,0,6.318-3.858A8.324,8.324,0,0,0,534.321,632c-1.063-4.944-6.233-8.306-11.5-7.48a9.262,9.262,0,0,0-6.318,3.86,8.324,8.324,0,0,0-1.287,6.528Z" transform="translate(-514.096 -623.472)" fill="#e4a324"/>
      </g>
    </g>
    <g id="그룹_600" data-name="그룹 600" transform="translate(114.288 51.328)">
      <g id="그룹_591" data-name="그룹 591">
        <path id="패스_1433" data-name="패스 1433" d="M519.741,669.38c.288.268.6.528.922.784-.272.067-.551.129-.812.207-10.737,3.335-14.276,11.246-11.9,18.915s9.756,12.192,20.493,8.857a18.1,18.1,0,0,0,2.493-1,15.421,15.421,0,0,0-.613,1.958c-2.539,11.209,2.638,18.376,10.616,20.188,7.086,1.61,13.992-1.561,17.228-10.141a13.061,13.061,0,0,0,15.3,2.82c7.042-3.2,10.471-10.826,5.99-20.716a24.891,24.891,0,0,0-4.88-6.719,16.043,16.043,0,0,0,3.685-.629c10.358-3.217,13.771-10.849,11.481-18.247s-9.413-11.758-19.769-8.543a17.74,17.74,0,0,0-2.493,1.01,15.863,15.863,0,0,0,1.153-3.2c2.4-10.593-2.5-17.367-10.035-19.081s-14.874,2.287-17.274,12.878a18.021,18.021,0,0,0-.374,2.666,15.748,15.748,0,0,0-2.186-2.6c-7.96-7.377-16.264-6.519-21.516-.833S511.784,662,519.741,669.38Z" transform="translate(-506.767 -634.993)" fill="#a380b9"/>
        <path id="패스_1434" data-name="패스 1434" d="M544.737,720.429a16.386,16.386,0,0,1-3.627-.42c-9.051-2.057-13.356-10.2-10.967-20.744.069-.309.157-.634.27-.985-.535.224-1.058.417-1.559.572-5.4,1.678-10.305,1.485-14.179-.555a14.125,14.125,0,0,1-6.9-8.606c-2.689-8.691,2.085-16.335,12.166-19.483-.083-.074-.166-.148-.245-.221h0c-7.5-6.952-8.49-15.618-2.523-22.077a13.629,13.629,0,0,1,9.584-4.621c4.194-.171,8.58,1.713,12.59,5.428a14.211,14.211,0,0,1,1.526,1.686q.1-.806.263-1.515c1.16-5.114,3.546-9.034,6.9-11.336a13.538,13.538,0,0,1,10.93-1.893c8.569,1.944,12.646,9.653,10.383,19.637a14.335,14.335,0,0,1-.694,2.17c.5-.209.98-.387,1.444-.53,5-1.554,9.581-1.444,13.247.316a13.562,13.562,0,0,1,7.1,8.534c2.6,8.405-2.025,15.8-11.788,18.826a15.1,15.1,0,0,1-2.82.565,24.159,24.159,0,0,1,4.3,6.15c4.219,9.321,1.778,17.693-6.222,21.332a13.4,13.4,0,0,1-15.311-2.428C555.928,716.747,550.82,720.429,544.737,720.429Zm-13.529-23.483a.473.473,0,0,1,.314.12.467.467,0,0,1,.122.508,14.161,14.161,0,0,0-.595,1.9c-2.264,10,1.764,17.7,10.266,19.635,7.37,1.676,13.766-2.1,16.69-9.854a.463.463,0,0,1,.763-.164,12.571,12.571,0,0,0,14.775,2.726c7.49-3.4,9.749-11.294,5.76-20.1a24.31,24.31,0,0,0-4.789-6.585.465.465,0,0,1-.1-.491.474.474,0,0,1,.4-.3,15.674,15.674,0,0,0,3.576-.609c9.224-2.864,13.609-9.8,11.177-17.666a12.673,12.673,0,0,0-6.618-7.972c-3.449-1.656-7.8-1.748-12.572-.265a17.064,17.064,0,0,0-2.423.982.465.465,0,0,1-.625-.615,15.28,15.28,0,0,0,1.118-3.1c2.137-9.433-1.665-16.706-9.685-18.526a12.619,12.619,0,0,0-10.2,1.755c-3.157,2.166-5.412,5.892-6.519,10.773a17.587,17.587,0,0,0-.362,2.594.462.462,0,0,1-.341.415.457.457,0,0,1-.5-.185,15.584,15.584,0,0,0-2.122-2.518c-3.823-3.544-7.937-5.329-11.922-5.184a12.725,12.725,0,0,0-8.937,4.324c-5.585,6.046-4.616,14.2,2.469,20.767.282.258.581.512.895.759a.46.46,0,0,1,.166.463.466.466,0,0,1-.344.353l-.177.042c-.205.048-.413.1-.607.159-9.572,2.972-14.124,10.169-11.6,18.334a13.236,13.236,0,0,0,6.44,8.059c3.652,1.921,8.308,2.094,13.474.489a17.314,17.314,0,0,0,2.428-.973A.467.467,0,0,1,531.208,696.946Zm23.1-13.874a.473.473,0,0,1-.328-.134,7.3,7.3,0,0,0-7.635-1.676.463.463,0,0,1-.431-.06.457.457,0,0,1-.194-.387,7.206,7.206,0,0,0-2.1-5.237.461.461,0,0,1-.134-.364.467.467,0,0,1,.184-.339,6.931,6.931,0,0,0,2.557-3.773.464.464,0,0,1,.321-.325.457.457,0,0,1,.442.1,6.935,6.935,0,0,0,6.45,1.58.463.463,0,0,1,.572.551,6.931,6.931,0,0,0,1.96,6.491.462.462,0,0,1,.051.611,6.826,6.826,0,0,0-.747,1.25c-.189.417-.364.895-.532,1.393a.467.467,0,0,1-.335.3A.536.536,0,0,1,554.3,683.072Zm-5.474-3.178a8.248,8.248,0,0,1,5.271,1.9c.1-.286.214-.558.327-.812a7.4,7.4,0,0,1,.618-1.1,7.89,7.89,0,0,1-2.064-6.378,7.873,7.873,0,0,1-6.073-1.485,7.862,7.862,0,0,1-2.278,3.274,8.157,8.157,0,0,1,2,4.894A8.2,8.2,0,0,1,548.83,679.894Z" transform="translate(-507.038 -635.259)" fill="#73549b"/>
      </g>
      <path id="패스_1435" data-name="패스 1435" d="M521.862,642.37" transform="translate(-487.68 -625.974)" fill="#fff" stroke="#a2b8cb" stroke-linecap="round" stroke-linejoin="round" stroke-width="0.8"/>
      <path id="패스_1436" data-name="패스 1436" d="M524.851,650.035" transform="translate(-483.776 -615.964)" fill="#fff" stroke="#a2b8cb" stroke-linecap="round" stroke-linejoin="round" stroke-width="0.8"/>
      <g id="그룹_592" data-name="그룹 592" transform="translate(33.719 15.932)">
        <path id="패스_1437" data-name="패스 1437" d="M521.862,642.37a39.737,39.737,0,0,1,4.681,9.784,35.116,35.116,0,0,1,1.233,8.324" transform="translate(-521.398 -641.906)" fill="#a380b9"/>
        <path id="패스_1438" data-name="패스 1438" d="M528.035,661.182a.443.443,0,0,1-.459-.413,34.706,34.706,0,0,0-1.21-8.207,39.54,39.54,0,0,0-4.624-9.669.464.464,0,1,1,.768-.521,39.9,39.9,0,0,1,4.736,9.9,35.223,35.223,0,0,1,1.254,8.389.487.487,0,0,1-.433.517Z" transform="translate(-521.661 -642.169)" fill="#73549b"/>
      </g>
      <g id="그룹_593" data-name="그룹 593" transform="translate(25.891 50.472)">
        <path id="패스_1439" data-name="패스 1439" d="M526.453,657.349a45.747,45.747,0,0,1-7.985,8.852" transform="translate(-518.003 -656.884)" fill="#a380b9"/>
        <path id="패스_1440" data-name="패스 1440" d="M518.731,666.928a.463.463,0,0,1-.3-.816,45.329,45.329,0,0,0,7.9-8.764.465.465,0,0,1,.765.528,46.561,46.561,0,0,1-4.33,5.375,45.807,45.807,0,0,1-3.738,3.568A.448.448,0,0,1,518.731,666.928Z" transform="translate(-518.266 -657.148)" fill="#73549b"/>
      </g>
      <g id="그룹_594" data-name="그룹 594" transform="translate(29.158 38.443)">
        <path id="패스_1441" data-name="패스 1441" d="M525.209,655.092a32.13,32.13,0,0,0-5.324-2.959" transform="translate(-519.419 -651.668)" fill="#a380b9"/>
        <path id="패스_1442" data-name="패스 1442" d="M525.473,655.821a.453.453,0,0,1-.265-.085,31.67,31.67,0,0,0-5.241-2.913.464.464,0,1,1,.362-.855,32.621,32.621,0,0,1,5.412,3.009.464.464,0,0,1-.268.844Z" transform="translate(-519.683 -651.931)" fill="#73549b"/>
      </g>
      <g id="그룹_595" data-name="그룹 595" transform="translate(13.433 34.707)">
        <path id="패스_1443" data-name="패스 1443" d="M519.918,651.845a16.172,16.172,0,0,0-3.9-1.086,18.9,18.9,0,0,0-2.956-.247" transform="translate(-512.601 -650.048)" fill="#8a65aa"/>
        <path id="패스_1444" data-name="패스 1444" d="M520.181,652.571a.439.439,0,0,1-.168-.032,15.724,15.724,0,0,0-3.807-1.058,18.087,18.087,0,0,0-2.9-.242.463.463,0,0,1-.44-.484.456.456,0,0,1,.486-.443,18.856,18.856,0,0,1,3.009.254,16.413,16.413,0,0,1,3.992,1.112.463.463,0,0,1-.171.895Z" transform="translate(-512.864 -650.311)" fill="#57426e"/>
      </g>
      <g id="그룹_596" data-name="그룹 596" transform="translate(49.822 54.512)">
        <path id="패스_1445" data-name="패스 1445" d="M528.846,659.1a32.418,32.418,0,0,1,1.558,13.58" transform="translate(-528.381 -658.636)" fill="#a380b9"/>
        <path id="패스_1446" data-name="패스 1446" d="M530.668,673.407l-.046,0a.467.467,0,0,1-.417-.507,31.981,31.981,0,0,0-1.535-13.386.463.463,0,0,1,.292-.588.468.468,0,0,1,.588.291,32.9,32.9,0,0,1,1.582,13.776A.467.467,0,0,1,530.668,673.407Z" transform="translate(-528.644 -658.9)" fill="#73549b"/>
      </g>
      <g id="그룹_597" data-name="그룹 597" transform="translate(64.015 47.437)">
        <path id="패스_1447" data-name="패스 1447" d="M538.33,657.67A12.926,12.926,0,0,0,535,656.033" transform="translate(-534.537 -655.568)" fill="#a380b9"/>
        <path id="패스_1448" data-name="패스 1448" d="M538.592,658.4a.464.464,0,0,1-.23-.062l-.47-.279a10.2,10.2,0,0,0-2.7-1.3.461.461,0,0,1-.383-.53.465.465,0,0,1,.531-.388,10.425,10.425,0,0,1,3.032,1.423l.457.272a.466.466,0,0,1-.233.867Z" transform="translate(-534.799 -655.832)" fill="#73549b"/>
      </g>
      <g id="그룹_598" data-name="그룹 598" transform="translate(52.992 24.913)">
        <path id="패스_1449" data-name="패스 1449" d="M535.828,646.264a11.186,11.186,0,0,1-2.737,5.274,13.547,13.547,0,0,1-2.871,2.475" transform="translate(-529.756 -645.802)" fill="#a380b9"/>
        <path id="패스_1450" data-name="패스 1450" d="M530.482,654.737a.464.464,0,0,1-.2-.881,13.243,13.243,0,0,0,2.724-2.366,10.658,10.658,0,0,0,2.6-4.965l.032-.122a.465.465,0,0,1,.9.247l-.035.124a11.43,11.43,0,0,1-2.8,5.329,13.753,13.753,0,0,1-3.016,2.587A.461.461,0,0,1,530.482,654.737Z" transform="translate(-530.019 -646.064)" fill="#73549b"/>
      </g>
      <g id="그룹_599" data-name="그룹 599" transform="translate(33.644 30.637)">
        <path id="패스_1451" data-name="패스 1451" d="M522.711,655.547a11.126,11.126,0,1,0,14.58-5.914A11.144,11.144,0,0,0,522.711,655.547Z" transform="translate(-521.368 -648.281)" fill="#ffc31c"/>
        <path id="패스_1452" data-name="패스 1452" d="M533.215,671.767a11.61,11.61,0,0,1-10.67-16.135h0a11.584,11.584,0,1,1,10.67,16.135ZM523.4,655.995a10.691,10.691,0,0,0,5.661,13.992,10.653,10.653,0,0,0,13.969-5.667,10.7,10.7,0,0,0-5.661-13.994,10.653,10.653,0,0,0-13.97,5.67Z" transform="translate(-521.629 -648.546)" fill="#e4a324"/>
      </g>
    </g>
    <g id="그룹_601" data-name="그룹 601" transform="translate(72.37 107.455)">
      <path id="패스_1453" data-name="패스 1453" d="M494.826,659.8a52.083,52.083,0,0,0-5.765,4.5" transform="translate(-488.597 -659.338)" fill="#fff"/>
      <path id="패스_1454" data-name="패스 1454" d="M489.324,665.028a.464.464,0,0,1-.3-.818l.694-.593a45.512,45.512,0,0,1,5.115-3.938.463.463,0,1,1,.512.773,45.11,45.11,0,0,0-5.022,3.871l-.7.6A.463.463,0,0,1,489.324,665.028Z" transform="translate(-488.86 -659.6)" fill="#a2b8cb"/>
    </g>
    <g id="그룹_611" data-name="그룹 611" transform="translate(50.787 47.021)">
      <g id="그룹_602" data-name="그룹 602">
        <path id="패스_1455" data-name="패스 1455" d="M574.433,676.663c.06-8.516-5.956-15.461-17.878-15.546a17.475,17.475,0,0,0-3.706.434,19.264,19.264,0,0,0,1.7-2.419c6.035-10.3,3.159-19.028-4.174-23.338s-16.344-2.566-22.379,7.734a17.292,17.292,0,0,0-1.478,3.431,19.831,19.831,0,0,0-1.238-2.689c-5.889-10.381-14.878-12.253-22.27-8.048s-10.391,12.895-4.5,23.278a17.414,17.414,0,0,0,2.225,3,19.334,19.334,0,0,0-2.94-.268c-11.924-.085-18.037,6.775-18.1,15.288s5.956,15.459,17.878,15.544a17.612,17.612,0,0,0,3.706-.432,19.26,19.26,0,0,0-1.7,2.417c-6.035,10.3-3.159,19.028,4.174,23.338s16.344,2.567,22.381-7.734a17.412,17.412,0,0,0,1.476-3.429,19.58,19.58,0,0,0,1.24,2.687c5.887,10.381,14.876,12.256,22.268,8.05s10.39-12.894,4.5-23.278a17.347,17.347,0,0,0-2.227-3,19.346,19.346,0,0,0,2.943.27C568.26,692.037,574.373,685.177,574.433,676.663Z" transform="translate(-479.237 -633.127)" fill="#fff"/>
        <path id="패스_1456" data-name="패스 1456" d="M511.709,721.317a15.6,15.6,0,0,1-7.928-2.267c-8.308-4.884-10.01-14.294-4.34-23.974.286-.487.618-.99.992-1.5a14.262,14.262,0,0,1-2.594.217c-11.209-.078-18.408-6.362-18.339-16.012a14.886,14.886,0,0,1,4.75-11.207c3.293-3.011,8.064-4.568,13.812-4.542.565,0,1.164.042,1.792.108a15.635,15.635,0,0,1-1.483-2.143c-5.536-9.76-3.7-19.145,4.674-23.909a14.94,14.94,0,0,1,11.539-1.642c4.474,1.231,8.405,4.642,11.366,9.865.279.493.547,1.031.8,1.607a15.785,15.785,0,0,1,1.111-2.354c3.035-5.181,7.012-8.537,11.5-9.705a14.923,14.923,0,0,1,11.511,1.805c8.308,4.882,10.013,14.294,4.338,23.974a17.427,17.427,0,0,1-.989,1.5,14.68,14.68,0,0,1,2.594-.217c11.207.081,18.408,6.364,18.341,16.013h0a14.892,14.892,0,0,1-4.752,11.206c-3.291,3.014-8.117,4.609-13.813,4.543a17.109,17.109,0,0,1-1.792-.108,15.518,15.518,0,0,1,1.483,2.144c5.536,9.76,3.7,19.146-4.676,23.91a14.925,14.925,0,0,1-11.534,1.642c-4.476-1.231-8.405-4.644-11.366-9.867a17.66,17.66,0,0,1-.8-1.607,16.223,16.223,0,0,1-1.107,2.357c-3.037,5.179-7.015,8.537-11.507,9.706A14.165,14.165,0,0,1,511.709,721.317Zm-10.162-28.888a.463.463,0,0,1,.36.757,19.127,19.127,0,0,0-1.665,2.361c-5.384,9.194-3.812,18.106,4.01,22.7a14.019,14.019,0,0,0,10.808,1.708c4.247-1.107,8.029-4.312,10.937-9.277a16.882,16.882,0,0,0,1.434-3.337.465.465,0,0,1,.876-.021,18.971,18.971,0,0,0,1.211,2.62c2.836,5,6.572,8.264,10.8,9.431a14.035,14.035,0,0,0,10.831-1.554c7.886-4.487,9.586-13.374,4.328-22.646a17.073,17.073,0,0,0-2.168-2.915.463.463,0,0,1-.062-.532.468.468,0,0,1,.482-.235,18.97,18.97,0,0,0,2.871.263c5.507.032,10.063-1.448,13.181-4.3a13.978,13.978,0,0,0,4.446-10.529c.064-9.083-6.773-15-17.417-15.079h-.076a17.1,17.1,0,0,0-3.526.424.465.465,0,0,1-.459-.747,18.809,18.809,0,0,0,1.663-2.359c5.389-9.194,3.814-18.106-4.008-22.7a14.031,14.031,0,0,0-10.808-1.708c-4.247,1.107-8.027,4.314-10.937,9.277a17.186,17.186,0,0,0-1.437,3.339.466.466,0,0,1-.429.32.472.472,0,0,1-.448-.3,18.846,18.846,0,0,0-1.206-2.622c-2.839-5-6.577-8.264-10.805-9.429a14.006,14.006,0,0,0-10.831,1.555c-7.889,4.485-9.586,13.374-4.328,22.644a16.906,16.906,0,0,0,2.167,2.915.465.465,0,0,1-.42.77,18.6,18.6,0,0,0-2.871-.262c-.069,0-.141,0-.21,0-5.412,0-9.892,1.485-12.969,4.3a13.98,13.98,0,0,0-4.448,10.529c-.064,9.085,6.773,15,17.417,15.078a17.558,17.558,0,0,0,3.6-.424A.463.463,0,0,1,501.547,692.428Zm73.148-15.5h0Z" transform="translate(-479.5 -633.392)" fill="#a2b8cb"/>
      </g>
      <g id="그룹_603" data-name="그룹 603" transform="translate(64.064 27.762)">
        <path id="패스_1457" data-name="패스 1457" d="M517.489,645.633c-.558.166-1.384.436-2.359.832a29.953,29.953,0,0,0-7.646,4.66" transform="translate(-507.019 -645.168)" fill="#fff"/>
        <path id="패스_1458" data-name="패스 1458" d="M507.748,651.853a.465.465,0,0,1-.293-.826,30.643,30.643,0,0,1,7.764-4.727c.786-.322,1.593-.606,2.4-.851a.466.466,0,0,1,.267.893c-.779.233-1.559.507-2.317.819a29.247,29.247,0,0,0-7.531,4.591A.46.46,0,0,1,507.748,651.853Z" transform="translate(-507.282 -645.431)" fill="#a2b8cb"/>
      </g>
      <g id="그룹_604" data-name="그룹 604" transform="translate(65.811 54.463)">
        <path id="패스_1459" data-name="패스 1459" d="M514.753,659.929a16.213,16.213,0,0,0-6.512-2.717" transform="translate(-507.777 -656.748)" fill="#fff"/>
        <path id="패스_1460" data-name="패스 1460" d="M515.016,660.657a.46.46,0,0,1-.268-.085,15.751,15.751,0,0,0-2.253-1.323,15.935,15.935,0,0,0-4.072-1.317.464.464,0,1,1,.164-.913,16.736,16.736,0,0,1,6.7,2.792.466.466,0,0,1-.268.846Z" transform="translate(-508.04 -657.011)" fill="#a2b8cb"/>
      </g>
      <g id="그룹_605" data-name="그룹 605" transform="translate(46.951 15.681)">
        <path id="패스_1461" data-name="패스 1461" d="M500.152,640.393l-.09,2.513" transform="translate(-499.598 -639.93)" fill="#fff"/>
        <path id="패스_1462" data-name="패스 1462" d="M500.325,643.635h-.016a.465.465,0,0,1-.447-.482l.088-2.513a.459.459,0,0,1,.48-.447.466.466,0,0,1,.45.482l-.09,2.514A.463.463,0,0,1,500.325,643.635Z" transform="translate(-499.861 -640.192)" fill="#a2b8cb"/>
      </g>
      <g id="그룹_606" data-name="그룹 606" transform="translate(23.861 30.52)">
        <path id="패스_1463" data-name="패스 1463" d="M490.049,646.829q2.49,1.214,4.99,2.444,2.7,1.332,5.394,2.661" transform="translate(-489.584 -646.364)" fill="#fff"/>
        <path id="패스_1464" data-name="패스 1464" d="M500.7,652.663a.474.474,0,0,1-.208-.049q-2.687-1.331-5.391-2.66-2.5-1.228-4.99-2.445a.464.464,0,0,1,.408-.834q2.494,1.213,4.992,2.446,2.7,1.329,5.394,2.661a.465.465,0,0,1-.205.881Z" transform="translate(-489.847 -646.627)" fill="#a2b8cb"/>
      </g>
      <g id="그룹_607" data-name="그룹 607" transform="translate(47.959 66.106)">
        <path id="패스_1465" data-name="패스 1465" d="M501.012,662.261a75.342,75.342,0,0,0-.512,8.391" transform="translate(-500.034 -661.797)" fill="#fff"/>
        <path id="패스_1466" data-name="패스 1466" d="M500.764,671.379h0a.465.465,0,0,1-.463-.465,76.26,76.26,0,0,1,.516-8.447.47.47,0,0,1,.519-.4.465.465,0,0,1,.4.517,74.923,74.923,0,0,0-.51,8.338A.464.464,0,0,1,500.764,671.379Z" transform="translate(-500.298 -662.059)" fill="#a2b8cb"/>
      </g>
      <g id="그룹_608" data-name="그룹 608" transform="translate(48.473 60.542)">
        <path id="패스_1467" data-name="패스 1467" d="M500.81,659.848c-.028.839-.058,1.677-.088,2.516" transform="translate(-500.258 -659.384)" fill="#fff"/>
        <path id="패스_1468" data-name="패스 1468" d="M500.985,663.09h-.016a.464.464,0,0,1-.447-.479l.088-2.513a.465.465,0,1,1,.929.03l-.09,2.516A.462.462,0,0,1,500.985,663.09Z" transform="translate(-500.521 -659.647)" fill="#a2b8cb"/>
      </g>
      <g id="그룹_610" data-name="그룹 610" transform="translate(28.176 25.196)">
        <path id="패스_1469" data-name="패스 1469" d="M530.242,657.666h0a17.943,17.943,0,0,0-5.832-8.709,20.127,20.127,0,0,0-12.328-4.624,20.416,20.416,0,0,0-4.633.357,20.211,20.211,0,0,0-8.2,3.544,19.345,19.345,0,0,0-3.512,3.323c-.076.087-.152.175-.21.254a18.173,18.173,0,0,0-2.956,5.53,16.886,16.886,0,0,0-.807,4.107c-.044.555-.042,1.116-.037,1.658v.152a17.571,17.571,0,0,0,.337,3.237,17.184,17.184,0,0,0,1.672,4.675,18.6,18.6,0,0,0,6.59,7.065,20.52,20.52,0,0,0,10.293,3.138c.318.012.636.016.952.012a20.9,20.9,0,0,0,3.291-.307,20.359,20.359,0,0,0,6.676-2.375,18.806,18.806,0,0,0,7.026-6.876,17.333,17.333,0,0,0,2.412-9.226l-.007-.459A17.41,17.41,0,0,0,530.242,657.666Z" transform="translate(-491.719 -644.319)" fill="#ffd200"/>
        <path id="패스_1470" data-name="패스 1470" d="M522.85,652.933l-1.282-.111-.058.558a1.055,1.055,0,0,1-.037.171,11.357,11.357,0,0,1-3.74,5.931,14.066,14.066,0,0,1-8.1,3.3c-.272.023-.546.039-.821.043a14.624,14.624,0,0,1-2.564-.177,13.876,13.876,0,0,1-6.756-3,11.219,11.219,0,0,1-3.853-5.975l-.18-.562s-1,.132-1.1.171a.743.743,0,0,0-.512.867,12.381,12.381,0,0,0,.962,3.279,13.258,13.258,0,0,0,4.6,5.421,16.127,16.127,0,0,0,9.3,2.816h.048a16.359,16.359,0,0,0,2.634-.263,15.641,15.641,0,0,0,6.436-2.682,12.884,12.884,0,0,0,5.38-8.232c.037-.2.062-.411.09-.614l.014-.115A.692.692,0,0,0,522.85,652.933Z" transform="translate(-488.936 -633.214)"/>
        <g id="그룹_609" data-name="그룹 609" transform="translate(13.469 8.342)">
          <path id="패스_1471" data-name="패스 1471" d="M504.868,650.694a5.662,5.662,0,0,0-.5-1.729,2.188,2.188,0,0,0-.491-.68,1.2,1.2,0,0,0-.846-.349,1.361,1.361,0,0,0-.2.023.582.582,0,0,0-.09.025c-.039.009-.076.021-.118.034s-.078.039-.118.06a.8.8,0,0,0-.094.053,1.546,1.546,0,0,0-.217.164,2.333,2.333,0,0,0-.436.606,5.082,5.082,0,0,0-.482,1.769,9.066,9.066,0,0,0,.067,2.737,5.251,5.251,0,0,0,.489,1.5,2,2,0,0,0,.546.687,1.139,1.139,0,0,0,1.483-.009,1.81,1.81,0,0,0,.461-.554,4.549,4.549,0,0,0,.381-.941,8.3,8.3,0,0,0,.251-2.2A8.171,8.171,0,0,0,504.868,650.694Z" transform="translate(-492.798 -647.936)"/>
          <path id="패스_1472" data-name="패스 1472" d="M500.475,648.6a1.588,1.588,0,0,0-.48-.448,1.138,1.138,0,0,0-1.222.016,1.554,1.554,0,0,0-.415.392,3.343,3.343,0,0,0-.516,1.088,7.99,7.99,0,0,0-.281,2.326,8.373,8.373,0,0,0,.228,1.889,4.376,4.376,0,0,0,.5,1.264,1.733,1.733,0,0,0,.627.627,1.141,1.141,0,0,0,.568.15,1.1,1.1,0,0,0,.567-.166,1.58,1.58,0,0,0,.484-.445,3.364,3.364,0,0,0,.487-1.061,7.343,7.343,0,0,0,.284-1.963,8.471,8.471,0,0,0-.263-2.4A3.855,3.855,0,0,0,500.475,648.6Z" transform="translate(-497.56 -647.873)"/>
        </g>
      </g>
    </g>
    <g id="그룹_621" data-name="그룹 621" transform="translate(58.997 122.28)">
      <g id="그룹_613" data-name="그룹 613" transform="translate(34.629)">
        <g id="그룹_612" data-name="그룹 612">
          <path id="패스_1473" data-name="패스 1473" d="M498.8,690.284c-3.826-9.152,14.5-20.036,20.94-22.473,5.315-2.011,15.021-2.541,19.513,1a12.435,12.435,0,0,1,4.2,11.806c-1.268,5.371-5.576,9.931-12.682,12.415C521.556,696.252,501.955,697.836,498.8,690.284Zm9.551-3.615h0Zm23.477-8.7c-1.224-2.082-7.584-.793-8.825-.323a32.944,32.944,0,0,0-11.458,6.6c-1.061,1-.722,2.655.731,2.571,5.433-.309,11.094-1.107,14.359-2.571C527.708,683.761,533.519,680.846,531.826,677.964Z" transform="translate(-497.816 -665.773)" fill="#ffc31c"/>
          <path id="패스_1474" data-name="패스 1474" d="M513.968,696.427c-7.114,0-13.589-1.531-15.337-5.707h0a7.9,7.9,0,0,1,.24-6.339c3.161-7.346,15.413-14.647,20.965-16.75,5.14-1.946,15.205-2.68,19.965,1.074a12.849,12.849,0,0,1,4.363,12.279c-1.363,5.77-5.975,10.3-12.982,12.745A56.322,56.322,0,0,1,513.968,696.427Zm-14.479-6.067c3,7.171,22.3,5.67,31.388,2.492,6.7-2.34,11.094-6.632,12.383-12.083a12.028,12.028,0,0,0-4.035-11.336c-4.492-3.544-14.121-2.8-19.058-.933-5.428,2.057-17.389,9.152-20.442,16.247a6.989,6.989,0,0,0-.235,5.613Zm12.945-2.827a1.629,1.629,0,0,1-1.57-.973,2.186,2.186,0,0,1,.62-2.4,33.563,33.563,0,0,1,11.613-6.694c1.261-.48,7.965-1.9,9.39.521h0a2.549,2.549,0,0,1,.238,2.151c-.819,2.564-5.149,4.566-5.64,4.785-3.962,1.776-10.8,2.4-14.523,2.61C512.518,687.534,512.476,687.534,512.435,687.534Zm16.22-9.991a18.707,18.707,0,0,0-5.228.791,32.692,32.692,0,0,0-11.306,6.5,1.259,1.259,0,0,0-.4,1.358.713.713,0,0,0,.789.411c3.662-.21,10.372-.816,14.2-2.532,1.526-.683,4.568-2.445,5.133-4.22a1.637,1.637,0,0,0-.152-1.4h0C531.288,677.775,530.059,677.542,528.655,677.542Zm-20.027,9.849a.472.472,0,0,1-.473-.466.458.458,0,0,1,.457-.464h.016a.465.465,0,1,1,0,.929Z" transform="translate(-498.078 -666.029)" fill="#e4a324"/>
        </g>
      </g>
      <g id="그룹_615" data-name="그룹 615" transform="translate(0 0.002)">
        <g id="그룹_614" data-name="그룹 614">
          <path id="패스_1475" data-name="패스 1475" d="M496.2,693.035c-7.107-2.484-11.414-7.044-12.682-12.415a12.434,12.434,0,0,1,4.2-11.806c4.492-3.544,14.2-3.014,19.513-1,6.438,2.438,24.766,13.321,20.94,22.473C525.01,697.836,505.41,696.252,496.2,693.035Zm22.4-6.367h0Zm-18.268-2.428c3.265,1.464,8.929,2.262,14.361,2.571,1.45.083,1.789-1.575.731-2.571a32.983,32.983,0,0,0-11.458-6.6c-1.243-.47-7.6-1.76-8.825.323C493.447,680.846,499.26,683.761,500.333,684.24Z" transform="translate(-482.797 -665.775)" fill="#ffc31c"/>
          <path id="패스_1476" data-name="패스 1476" d="M513.523,696.426a56.346,56.346,0,0,1-17.214-2.7c-7.008-2.449-11.617-6.975-12.98-12.745a12.84,12.84,0,0,1,4.363-12.279c4.757-3.752,14.825-3.018,19.962-1.075,5.553,2.1,17.8,9.4,20.965,16.748a7.9,7.9,0,0,1,.24,6.341C527.112,694.9,520.637,696.426,513.523,696.426Zm-15.7-29.49c-3.655,0-7.268.694-9.556,2.5a12.029,12.029,0,0,0-4.033,11.336c1.287,5.451,5.686,9.742,12.383,12.083,9.092,3.176,28.391,4.677,31.386-2.492a7,7,0,0,0-.235-5.615c-3.053-7.093-15.012-14.19-20.44-16.245A28.6,28.6,0,0,0,497.822,666.937Zm17.237,20.6c-.044,0-.085,0-.127,0-3.724-.212-10.563-.834-14.525-2.61h0c-.491-.219-4.819-2.221-5.638-4.785a2.548,2.548,0,0,1,.235-2.152c1.423-2.426,8.129-1,9.39-.521a33.524,33.524,0,0,1,11.612,6.694,2.179,2.179,0,0,1,.62,2.4A1.627,1.627,0,0,1,515.059,687.532Zm-16.222-9.991c-1.4,0-2.631.233-3.032.913a1.637,1.637,0,0,0-.152,1.4c.567,1.776,3.606,3.537,5.133,4.22h0c3.828,1.716,10.538,2.322,14.2,2.532a.713.713,0,0,0,.791-.413,1.262,1.262,0,0,0-.4-1.356,32.713,32.713,0,0,0-11.3-6.5A18.713,18.713,0,0,0,498.837,677.541Zm20.045,9.848a.47.47,0,0,1-.473-.466.456.456,0,0,1,.454-.463h.018a.465.465,0,0,1,0,.929Z" transform="translate(-483.06 -666.03)" fill="#e4a324"/>
        </g>
      </g>
      <g id="그룹_617" data-name="그룹 617" transform="translate(3.973 18.395)">
        <g id="그룹_616" data-name="그룹 616">
          <path id="패스_1477" data-name="패스 1477" d="M490.087,717.377a5.115,5.115,0,0,1-1.238-10.075,37.986,37.986,0,0,0,11.184-4.778,34.654,34.654,0,0,0,12.8-14.433,29.938,29.938,0,0,0,2.449-9.267,5.1,5.1,0,1,1,10.16,1,40.136,40.136,0,0,1-3.281,12.433,44.662,44.662,0,0,1-16.644,18.895,48.188,48.188,0,0,1-14.181,6.072A5.072,5.072,0,0,1,490.087,717.377Z" transform="translate(-484.521 -673.744)" fill="#ffc31c"/>
          <path id="패스_1478" data-name="패스 1478" d="M490.349,718.1A5.58,5.58,0,0,1,489,707.114a37.443,37.443,0,0,0,11.048-4.72,34.162,34.162,0,0,0,12.627-14.228,29.4,29.4,0,0,0,2.407-9.125,5.553,5.553,0,0,1,2.022-3.772,5.483,5.483,0,0,1,4.068-1.234,5.575,5.575,0,0,1,5,6.094,40.668,40.668,0,0,1-3.321,12.579,45.153,45.153,0,0,1-16.819,19.1,48.652,48.652,0,0,1-14.317,6.129A5.578,5.578,0,0,1,490.349,718.1Zm30.261-43.167a4.646,4.646,0,0,0-4.6,4.195,30.375,30.375,0,0,1-2.488,9.412,35.112,35.112,0,0,1-12.975,14.635,38.375,38.375,0,0,1-11.32,4.836,4.649,4.649,0,0,0,2.26,9.018,47.8,47.8,0,0,0,14.045-6.014A44.163,44.163,0,0,0,522,692.328a39.692,39.692,0,0,0,3.242-12.288,4.645,4.645,0,0,0-4.162-5.08A4.661,4.661,0,0,0,520.61,674.937Z" transform="translate(-484.783 -674.007)" fill="#e4a324"/>
        </g>
      </g>
      <g id="그룹_619" data-name="그룹 619" transform="translate(36.221 18.396)">
        <g id="그룹_618" data-name="그룹 618">
          <path id="패스_1479" data-name="패스 1479" d="M534.349,717.376a5.074,5.074,0,0,1-1.248-.156,48.185,48.185,0,0,1-14.179-6.07,44.654,44.654,0,0,1-16.646-18.9A40.141,40.141,0,0,1,499,679.821a5.1,5.1,0,1,1,10.158-1,29.938,29.938,0,0,0,2.451,9.267,34.639,34.639,0,0,0,12.8,14.433,37.879,37.879,0,0,0,11.179,4.778,5.115,5.115,0,0,1-1.238,10.074Z" transform="translate(-498.505 -673.744)" fill="#ffc31c"/>
          <path id="패스_1480" data-name="패스 1480" d="M534.613,718.1a5.56,5.56,0,0,1-1.36-.17,48.69,48.69,0,0,1-14.315-6.127,45.118,45.118,0,0,1-16.822-19.1,40.641,40.641,0,0,1-3.32-12.577,5.58,5.58,0,0,1,5-6.094,5.579,5.579,0,0,1,6.088,5.006,29.375,29.375,0,0,0,2.407,9.125,34.169,34.169,0,0,0,12.632,14.23,37.379,37.379,0,0,0,11.043,4.718,5.58,5.58,0,0,1-1.351,10.99Zm-30.267-43.167a4.522,4.522,0,0,0-.461.023,4.652,4.652,0,0,0-4.165,5.08,39.689,39.689,0,0,0,3.245,12.288,44.173,44.173,0,0,0,16.471,18.694,47.793,47.793,0,0,0,14.043,6.011,4.716,4.716,0,0,0,1.134.141,4.65,4.65,0,0,0,1.125-9.159,38.36,38.36,0,0,1-11.317-4.836,35.127,35.127,0,0,1-12.98-14.638,30.367,30.367,0,0,1-2.486-9.41,4.649,4.649,0,0,0-4.609-4.195Z" transform="translate(-498.768 -674.007)" fill="#e4a324"/>
        </g>
      </g>
      <g id="그룹_620" data-name="그룹 620" transform="translate(32.921 11.79)">
        <path id="패스_1481" data-name="패스 1481" d="M511.752,681.044c0,5.357-1.208,9.7-6.881,9.7-7.526,0-7.333-4.344-7.333-9.7s0-9.74,7.333-9.7C511.77,671.38,511.752,675.688,511.752,681.044Z" transform="translate(-497.075 -670.88)" fill="#ffc31c"/>
        <path id="패스_1482" data-name="패스 1482" d="M505.131,691.471c-3.558,0-5.728-.939-6.825-2.954-.973-1.782-.971-4.227-.968-6.811v-.4c0-3.475,0-6.475,1.9-8.359,1.236-1.229,3.15-1.812,5.9-1.805,7.346.039,7.346,4.711,7.346,10.12l-.466.044h.466C512.48,686.038,511.643,691.471,505.131,691.471Zm-.1-19.4c-2.423,0-4.107.5-5.147,1.536-1.621,1.614-1.621,4.436-1.621,7.7v.4c0,2.571,0,4.794.853,6.369.92,1.683,2.829,2.467,6.011,2.467,4.5,0,6.42-2.762,6.42-9.235v-.044c0-5.317,0-9.159-6.422-9.193Z" transform="translate(-497.337 -671.142)" fill="#e4a324"/>
      </g>
    </g>
  </g>
  <g id="그룹_623" data-name="그룹 623" transform="translate(9.537 104.721)">
    <path id="패스_1483" data-name="패스 1483" d="M485.956,666.533c.057-.152.1-.307,0-.381a.2.2,0,0,0-.226.026l-.014.011c-1.275,1.384-2.1,1.393-2.124,1.393a.282.282,0,0,1-.254-.062.468.468,0,0,1-.055-.36c0-.073.2-.214.378-.3,1.767-.825,2.036-1.619,2.045-1.646a.7.7,0,0,0-.044-.729c-.334-.394-1.259-.182-1.3-.173a3.056,3.056,0,0,0-2.1,1.946l-.1.272a2.075,2.075,0,0,0-.058.433,3.787,3.787,0,0,1-.512.177.68.68,0,0,1-.477.056c-.477-.392,1-2.4,1.55-3.152.111-.15.2-.276.27-.371a7.667,7.667,0,0,1,1.49-1.625.679.679,0,0,1,.374-.18.289.289,0,0,1-.046.058l-.018.023a.178.178,0,0,0-.009.163.208.208,0,0,0,.168.095.583.583,0,0,0,.643-.431.356.356,0,0,0-.1-.344c-.016-.013-.032-.025-.049-.036-.456-.3-1.789.09-1.8.095a.182.182,0,0,0-.083.043,20.932,20.932,0,0,0-2.068,2.622c-.032.046-.058.085-.088.129a.18.18,0,0,0-.007-.092.283.283,0,0,0-.261-.182,2.4,2.4,0,0,0-1.148.284,1.51,1.51,0,0,0-.443.523.845.845,0,0,0-.729-.622,2.432,2.432,0,0,0-2.483,1.7,1.976,1.976,0,0,0,.1,1.849,1.233,1.233,0,0,0,1.248.279c-.108.175-.242.4-.3.494a17.48,17.48,0,0,0-3.147,1.5c-.044.031-1.059.722-.809,1.561a1.234,1.234,0,0,0,.477.62,1.254,1.254,0,0,0,.747.189,2.994,2.994,0,0,0,1.981-1.088,15.5,15.5,0,0,0,1.734-2.283.891.891,0,0,1,.4.116l-.039.014a.156.156,0,0,0-.074.113c-.014.071.025.145.136.2a.447.447,0,0,0,.516-.032.466.466,0,0,0,.145-.323.444.444,0,0,0-.189-.332,1.464,1.464,0,0,0-.632-.3,21.022,21.022,0,0,1,2.209-3.807c.117-.11.117-.11.2-.175l.053-.046.044-.037a.2.2,0,0,0,.2,0,18.5,18.5,0,0,0-1.2,2.02c-.549.984.044,1.5.053,1.51l.053.039c.6.387,1.66-.249,2.022-.489a1.07,1.07,0,0,0,.832.639,4.4,4.4,0,0,0,2.906-1.568A.087.087,0,0,0,485.956,666.533Zm-6.8-1.109,0,0c-.314.512-1.047,1.709-1.271,2.066a.679.679,0,0,1-.51.012l-.023-.014c-.108-.094-.09-.3-.053-.461a4.559,4.559,0,0,1,1.082-1.826c.078-.088.344-.337.523-.307a.146.146,0,0,1,.067.025.319.319,0,0,1,.111.148.48.48,0,0,1,.03.175A.16.16,0,0,0,479.161,665.424Zm-2.2,3.91a4.832,4.832,0,0,1-1.877,1.658c-.473.192-.6.118-.636.1-.044-.037-.023-.118-.021-.124C474.528,670.451,476.087,669.7,476.958,669.335Zm6.62-2.91c.413-.666,1.213-1.759,1.695-1.579a.172.172,0,0,1,.062.129c0,.1-.064.334-.562.72A10.539,10.539,0,0,1,483.579,666.424Z" transform="translate(-446.306 -654.663)" fill="#e16faa"/>
    <path id="패스_1484" data-name="패스 1484" d="M480.776,668.261l-.037.014a.152.152,0,0,0-.076.111c-.012.072.037.143.134.2a.424.424,0,0,0,.664-.355.44.44,0,0,0-.187-.33,1.417,1.417,0,0,0-.632-.3,21.034,21.034,0,0,1,2.207-3.809l.2-.176a.606.606,0,0,0,.055-.048l.042-.035a.2.2,0,0,0,.233-.023.181.181,0,0,0,.037-.2.283.283,0,0,0-.258-.182,2.4,2.4,0,0,0-1.15.284,1.537,1.537,0,0,0-.443.523.84.84,0,0,0-.729-.623,2.44,2.44,0,0,0-2.488,1.711l-.1.286a3.634,3.634,0,0,1-.325.309c-.74.6-1.049.71-1.1.692,0,0-.058-.182.374-.788.03-.044.719-1.086.874-1.333.127-.2.33-.553.256-.719a.153.153,0,0,0-.134-.095c-.044,0-1.017-.064-1.322.392-.025.039-.057.1-.1.173-.2.36-.664,1.2-1.116,1.252-.049.011-.2.027-.256-.046s-.03-.229.069-.443a4.177,4.177,0,0,1,.438-.738c.035-.044.8-1.073.646-1.66a.483.483,0,0,0-.3-.339.842.842,0,0,0-.83.192,2.493,2.493,0,0,0-.756,1.609,6.89,6.89,0,0,0-.069.957l0,.014a3.937,3.937,0,0,1-.851,1.172,1,1,0,0,1-.551.353.236.236,0,0,1-.185-.085s-.18-.194.067-.788a14.519,14.519,0,0,1,1.121-2.228c.025-.037.247-.343.131-.593-.069-.154-.24-.24-.5-.258a2.122,2.122,0,0,0-1.326.323.3.3,0,0,0-.1.108.174.174,0,0,0,.021.184.181.181,0,0,0,.185.039c-.221.36-1.358,2.26-1.229,3.06a1.447,1.447,0,0,1-.724.556.462.462,0,0,1-.385-.09s-.385-.263.032-1.017c.011-.021,1.234-2.163,1.377-2.4.141-.224.346-.618.164-.736h0c-.058-.051-.254-.125-1,.1-1.074.3-1.125.378-1.137.4a.187.187,0,0,0-.046.162.165.165,0,0,0,.136.113c.028,0,.069.021.078.042s0,.048-.042.11-.918,1.686-1.019,1.96a1.609,1.609,0,0,0,0,1.239,1.257,1.257,0,0,0,.966.6,1.958,1.958,0,0,0,1.577-.376s.1-.094.205-.2a1.609,1.609,0,0,0,1.307.636,1.825,1.825,0,0,0,1.254-.475,5.034,5.034,0,0,0,.833-.973.8.8,0,0,0,.652.173,1.126,1.126,0,0,0-.263.713.594.594,0,0,0,.256.433,1.116,1.116,0,0,0,1.215-.014,3.98,3.98,0,0,0,1.1-.858l.251-.251a1.446,1.446,0,0,0,.277,1,1.234,1.234,0,0,0,1.245.276c-.106.178-.24.4-.3.5a17.72,17.72,0,0,0-3.152,1.5c-.041.03-1.056.719-.807,1.563a1.187,1.187,0,0,0,1.224.807,2.989,2.989,0,0,0,1.981-1.089,15.607,15.607,0,0,0,1.732-2.28A.889.889,0,0,1,480.776,668.261Zm.45-3.719,0,0c-.314.511-1.045,1.708-1.271,2.066-.122.043-.406.115-.53,0-.111-.094-.092-.3-.058-.463a4.63,4.63,0,0,1,1.084-1.822c.076-.09.341-.339.526-.309.072.009.131.069.175.176a.418.418,0,0,1,.03.17A.159.159,0,0,0,481.225,664.542Zm-2.2,3.909a4.867,4.867,0,0,1-1.877,1.658c-.47.194-.6.115-.636.1-.041-.037-.021-.118-.021-.125C476.591,669.567,478.149,668.815,479.021,668.451Z" transform="translate(-452.383 -653.823)" fill="#e16faa"/>
    <path id="패스_1485" data-name="패스 1485" d="M472.65,663.071a.969.969,0,0,0,.173.143.722.722,0,0,0,.376.129.663.663,0,0,0,.489-.205,1.062,1.062,0,0,0,.332-.65.5.5,0,0,0-.18-.385.775.775,0,0,0-1.036-.053A.734.734,0,0,0,472.65,663.071Z" transform="translate(-447.398 -653.901)" fill="#e16faa"/>
    <path id="패스_1486" data-name="패스 1486" d="M473.708,665.388l-.035.014a.152.152,0,0,0-.076.111c-.014.074.034.148.131.2a.425.425,0,0,0,.664-.355.44.44,0,0,0-.187-.33,1.442,1.442,0,0,0-.632-.3,20.926,20.926,0,0,1,2.211-3.812c.115-.108.115-.108.194-.175a.59.59,0,0,0,.053-.044l.044-.037a.2.2,0,0,0,.23-.023.181.181,0,0,0,.037-.2.278.278,0,0,0-.258-.183,2.431,2.431,0,0,0-1.148.284,1.512,1.512,0,0,0-.443.524.838.838,0,0,0-.729-.621,2.432,2.432,0,0,0-2.488,1.711l-.1.284a4.377,4.377,0,0,1-.328.309c-.766.62-1.061.706-1.1.692,0,0-.057-.182.374-.791.03-.043.719-1.083.876-1.331.127-.2.33-.553.256-.719a.156.156,0,0,0-.136-.1c-.041,0-1.017-.062-1.319.394-.025.039-.058.1-.1.173-.2.357-.666,1.194-1.118,1.25-.048.012-.194.035-.256-.046s-.03-.226.072-.443a3.782,3.782,0,0,1,.438-.736c.032-.044.8-1.074.646-1.66a.491.491,0,0,0-.3-.341.856.856,0,0,0-.83.192,2.489,2.489,0,0,0-.756,1.609,6.148,6.148,0,0,0-.069.959l0,.011a3.865,3.865,0,0,1-.855,1.174c-.083.1-.339.348-.547.353a.236.236,0,0,1-.184-.085s-.182-.194.065-.791a14.834,14.834,0,0,1,1.123-2.228c.025-.034.244-.341.131-.592a.535.535,0,0,0-.5-.256,2.125,2.125,0,0,0-1.328.323.284.284,0,0,0-.095.106.17.17,0,0,0,.019.185.166.166,0,0,0,.187.039c-.224.362-1.36,2.262-1.232,3.062a1.444,1.444,0,0,1-.722.556.466.466,0,0,1-.385-.09c-.016-.011-.38-.274.032-1.017.011-.021,1.236-2.163,1.377-2.4.064-.1.267-.445.224-.632a.153.153,0,0,0-.06-.1l0,0c-.064-.051-.256-.125-1,.1-1.075.3-1.128.374-1.139.4a.182.182,0,0,0-.044.164.173.173,0,0,0,.136.111c.023,0,.067.019.076.042s0,.048-.039.11-.92,1.686-1.021,1.96a1.612,1.612,0,0,0,0,1.238,1.257,1.257,0,0,0,.966.6,1.952,1.952,0,0,0,1.575-.376s.1-.094.205-.2a1.61,1.61,0,0,0,1.31.636,1.82,1.82,0,0,0,1.255-.478,4.816,4.816,0,0,0,.83-.973.807.807,0,0,0,.655.176,1.116,1.116,0,0,0-.263.712.583.583,0,0,0,.254.431,1.117,1.117,0,0,0,1.218-.012,4.078,4.078,0,0,0,1.1-.858c.12-.122.2-.2.249-.252a1.441,1.441,0,0,0,.277.994,1.235,1.235,0,0,0,1.247.279c-.106.176-.242.4-.3.5a17.453,17.453,0,0,0-3.15,1.5c-.044.03-1.056.721-.809,1.561a1.182,1.182,0,0,0,1.225.807,2.979,2.979,0,0,0,1.981-1.088,14.981,14.981,0,0,0,1.734-2.281A.943.943,0,0,1,473.708,665.388Zm.452-3.717c-.314.514-1.045,1.709-1.271,2.066a.68.68,0,0,1-.51.014l-.021-.014c-.109-.094-.09-.3-.055-.463a4.588,4.588,0,0,1,1.081-1.824c.079-.088.344-.337.526-.307.071.009.131.069.175.176a.421.421,0,0,1,.03.173A.166.166,0,0,0,474.16,661.671Zm-2.207,3.909a4.867,4.867,0,0,1-1.877,1.658c-.47.194-.607.126-.634.1-.042-.04-.023-.12-.021-.127C469.522,666.7,471.084,665.943,471.953,665.579Z" transform="translate(-461.611 -657.574)" fill="#e16faa"/>
    <path id="패스_1487" data-name="패스 1487" d="M465.582,660.2a.947.947,0,0,0,.173.143.735.735,0,0,0,.378.129.669.669,0,0,0,.487-.208,1.066,1.066,0,0,0,.334-.65.512.512,0,0,0-.18-.385.784.784,0,0,0-1.038-.051A.735.735,0,0,0,465.582,660.2Z" transform="translate(-456.626 -657.651)" fill="#e16faa"/>
    <path id="패스_1488" data-name="패스 1488" d="M473.006,663.561c-.549.985.044,1.5.051,1.508l0,0,.053.039c.6.392,1.674-.258,2.02-.491a1.081,1.081,0,0,0,.835.641,4.408,4.408,0,0,0,2.905-1.568l.019-.03c.058-.155.1-.307,0-.381a.208.208,0,0,0-.24.037c-1.275,1.384-2.1,1.393-2.124,1.393a.288.288,0,0,1-.254-.062.473.473,0,0,1-.055-.362c0-.071.2-.214.378-.295,1.766-.823,2.036-1.616,2.045-1.646a.7.7,0,0,0-.044-.729c-.337-.387-1.259-.18-1.3-.173a3.067,3.067,0,0,0-2.1,1.948l-.095.27a2.194,2.194,0,0,0-.062.436,4.213,4.213,0,0,1-.51.177c-.341.127-.482.051-.477.053-.48-.394,1-2.4,1.552-3.154.108-.147.2-.274.267-.369a7.874,7.874,0,0,1,1.487-1.626.656.656,0,0,1,.376-.177.348.348,0,0,1-.048.058l-.016.023a.169.169,0,0,0-.007.167.224.224,0,0,0,.164.094.59.59,0,0,0,.646-.433.352.352,0,0,0-.1-.344c-.016-.014-.032-.025-.051-.039-.457-.3-1.787.09-1.8.095a.2.2,0,0,0-.085.046,21.221,21.221,0,0,0-2.071,2.622l-.085.129a.187.187,0,0,0-.007-.094.287.287,0,0,0-.26-.18,2.412,2.412,0,0,0-1.151.284,1.5,1.5,0,0,0-.44.523.84.84,0,0,0-.729-.623,2.433,2.433,0,0,0-2.484,1.7,1.982,1.982,0,0,0,.095,1.849,1.24,1.24,0,0,0,1.247.279c-.106.175-.24.4-.3.5a17.57,17.57,0,0,0-3.15,1.5c-.044.028-1.059.719-.807,1.563a1.221,1.221,0,0,0,.475.618,1.261,1.261,0,0,0,.747.189,3.01,3.01,0,0,0,1.981-1.091,15.287,15.287,0,0,0,1.734-2.281.9.9,0,0,1,.4.116l-.035.013a.154.154,0,0,0-.076.113c-.014.074.037.145.136.2a.451.451,0,0,0,.517-.037.439.439,0,0,0,.143-.32.448.448,0,0,0-.187-.332,1.479,1.479,0,0,0-.632-.3,20.973,20.973,0,0,1,2.211-3.809c.115-.109.115-.109.194-.173l.053-.048.044-.032a.2.2,0,0,0,.2-.009A18.29,18.29,0,0,0,473.006,663.561Zm3.507-.007c.413-.667,1.213-1.762,1.7-1.577a.151.151,0,0,1,.06.122c.007.1-.058.334-.56.724A11.142,11.142,0,0,1,476.513,663.553Zm-4.416-1c-.314.514-1.045,1.711-1.268,2.066-.125.044-.4.117-.533,0-.108-.093-.09-.3-.055-.459a4.589,4.589,0,0,1,1.081-1.826c.078-.087.344-.339.523-.309a.223.223,0,0,1,.067.026.323.323,0,0,1,.111.152.414.414,0,0,1,.03.173.157.157,0,0,0,.042.177Zm-2.207,3.906a4.816,4.816,0,0,1-1.877,1.658c-.48.2-.6.134-.634.1s-.023-.118-.023-.124C467.46,667.578,469.021,666.826,469.89,666.461Z" transform="translate(-455.534 -658.414)" fill="#e16faa"/>
  </g>
</svg>
