<svg xmlns="http://www.w3.org/2000/svg" width="200" height="187.972" viewBox="0 0 200 187.972">
  <g id="그룹_320" data-name="그룹 320" transform="translate(0)">
    <path id="패스_963" data-name="패스 963" d="M985.526,2557.506c-11.965-5.282-20.7-11.816-22.939-15.373-.906-1.44-2.593-4.221-3.647-5.559-2.089-2.647-9.123-5.259-15.461-.095a17.732,17.732,0,0,0-5.98,9.31c-3.156,12.157,1.21,25.514,10.014,34.47,10.106,10.284,28.907,16.625,46.808,18.074l12.274-18.73Z" transform="translate(-934.831 -2443.645)" fill="#ffdc00"/>
    <path id="패스_964" data-name="패스 964" d="M947.512,2597.957c7.218,7.345,18.88,12.666,31.473,15.642a14,14,0,0,1,3.483-2.014,18.351,18.351,0,0,1,1.811-.55c-10.047-2.679-23.968-10.507-31.351-18.15-9.144-9.466-14.563-22.979-13.362-34.2a17.73,17.73,0,0,0-2.07,4.806C934.342,2575.645,938.708,2589,947.512,2597.957Z" transform="translate(-934.831 -2461.342)" fill="#ff9ac9"/>
    <path id="패스_965" data-name="패스 965" d="M981.634,2554.176a82.567,82.567,0,0,1-16.935-8.62c-2.63-1.864-5.419-3.865-7.209-6.614-1.315-1.843-2.348-3.89-3.951-5.447-8.471-5.912-17.72,2.711-18.815,11.48a35.931,35.931,0,0,0,6.546,26.706c7.163,10.07,19.214,15.623,30.764,19.263a117.323,117.323,0,0,0,18.393,4.06,92.49,92.49,0,0,1-18.827-2.47c-12.378-3.02-25.083-8.475-32.9-18.979-6.351-8.546-9.356-19.88-6.92-30.385,1.436-7.475,8.022-14.661,16.083-14.383,3.087.181,6.36,1.348,8.294,3.886,1.661,2.21,2.75,4.759,4.429,6.9,5.864,6.276,13.466,10.575,21.045,14.6Z" transform="translate(-930.939 -2440.316)" fill="#2b2523"/>
    <path id="패스_966" data-name="패스 966" d="M1443.617,2557.062c-2.632-2.156-6.383-4.049-12.959-.96-5.767,2.709-8.784,3.041-16.563-.06-8.213-3.271-15.606-5.715-20.542-13.572l-6.9,45.565c12.13,7.193,27,9.213,37.764,8.344,8.623-.7,16.672-5.261,20.92-11.376C1450.84,2577.081,1452.08,2564,1443.617,2557.062Z" transform="translate(-1251.377 -2449.943)" fill="#ffdc00"/>
    <path id="패스_967" data-name="패스 967" d="M1533.4,2632.093a3.627,3.627,0,0,0-3.773-1.643c-1.78.484-2.6,2.474-3.3,4.181-2.612,6.333-7.215,13.216-18.373,18.285-.008,0-.01.007-.019.014a19.479,19.479,0,0,1,.017,5.32c.579-.029,1.188-.031,1.744-.077,8.624-.694,16.672-5.257,20.921-11.372a25.08,25.08,0,0,0,3.776-8.762c.029-.587.046-1.168.045-1.739A7.489,7.489,0,0,0,1533.4,2632.093Z" transform="translate(-1336.658 -2511.739)" fill="#ff9ac9"/>
    <path id="패스_968" data-name="패스 968" d="M1393.553,2542.47c4.469,6.625,12.173,9.585,19.421,12.1,6.2,2.419,11.066,3.736,17.083.267,4.671-2.517,10.742-2.609,14.778,1.2,10.865,9.239,7.168,27.68-3.573,35.471a31.371,31.371,0,0,1-18.358,6.28c-12.675.327-25.652-2.778-36.252-9.75a70.106,70.106,0,0,0,36.114,7.134,29.381,29.381,0,0,0,16.547-6.176c9.016-6.791,12.519-22.448,3.474-30.542-5.379-5.05-10.425-1.054-16.184.606-6.607,1.689-12.784-2.21-18.667-4.6-5.76-2.546-11.353-6.295-14.383-11.991Z" transform="translate(-1251.377 -2449.943)" fill="#2b2523"/>
    <path id="패스_969" data-name="패스 969" d="M1174.431,2392.759c-1.437-10.191-2.754-18.639-6.7-25.911-10.2-18.813-32.722-26.673-53.7-21.077-18.559,4.95-30.81,18.556-34.27,37.448-1.579,8.621,1.365,18.51,2.673,27.176,1.881,12.463,10.269,33.34,18.019,45.766l75.644,8.851,1.344-62.1C1175.612,2400.285,1174.879,2395.933,1174.431,2392.759Z" transform="translate(-1035.266 -2310.389)" fill="#ffdc00"/>
    <path id="패스_970" data-name="패스 970" d="M1098.516,2455.409c-14.588-22.175-28.424-48.679-23.314-76.066,2.248-13.061,9.768-23.844,22.1-29.138,9.256-3.948,18.951-6.789,29.039-6.878,21.335-.366,39.191,14.052,42.9,35.042.971,4.853,1.518,9.728,2.079,14.59a22.1,22.1,0,0,0,5.37,13.239c-3.645-3.392-5.6-8.251-6.251-13.117-.809-4.821-1.608-9.651-2.8-14.345-3.049-14.034-13.372-26.253-27.276-30.312-13.779-4.3-28.8-.794-41.658,4.829-11.5,4.843-18.2,14.676-20.519,26.707-5.3,26.679,7.572,52.707,20.325,75.449Z" transform="translate(-1031.616 -2309.909)" fill="#2b2523"/>
    <path id="패스_971" data-name="패스 971" d="M1224.031,2496.437c-1.118-2.569-4.734-7.737-13.122-4.366-2.762,1.111-5.168,2.983-7.9,4.179-2.25.985-4.721,1.535-6.722,2.972a9.212,9.212,0,0,0-3.712,8.366,11.48,11.48,0,0,0,8.672,10.121c6.261,1.5,12.086-.365,17.151-4.3C1224.2,2508.914,1226.667,2502.492,1224.031,2496.437Z" transform="translate(-1114.871 -2413.726)" fill="#fff"/>
    <path id="패스_972" data-name="패스 972" d="M1198.633,2512.013c9.132,10.691,31.011-.277,29.188-13.628a8.821,8.821,0,0,0-9.3-7.989,9.374,9.374,0,0,1,3.729-.415c7.171.8,10.175,9.79,7.717,15.88-2.9,7.388-10.662,12.408-18.445,12.876-5.027.273-10.835-1.873-12.885-6.724Z" transform="translate(-1119.17 -2413.006)" fill="#2b2523"/>
    <path id="패스_973" data-name="패스 973" d="M1240.288,2527a2.314,2.314,0,0,0-2.167.07,17.278,17.278,0,0,1-4.042,2.2,5.878,5.878,0,0,0-2.009.974,1.875,1.875,0,0,0-.154,2.751c1.32,1.36,3.671.476,5.259-.242,2.325-1.053,3.128-1.857,3.774-2.891A1.934,1.934,0,0,0,1240.288,2527Z" transform="translate(-1142.2 -2438.903)" fill="#2b2523"/>
    <path id="패스_974" data-name="패스 974" d="M1086.525,2705.027a12.625,12.625,0,0,1-6.385,6.569c-3.322,1.519-7.159,1.57-10.564,2.895a14.615,14.615,0,0,0-9.2,13.972c.312,5.468,3.726,11.3,8.06,14.773,9.2,7.369,26.37,9.032,37.763,5.343,17.5-5.662,25.084-23.517,25.2-35.147Z" transform="translate(-1021.937 -2564.246)" fill="#ffdc00"/>
    <path id="패스_975" data-name="패스 975" d="M1114.4,2803.623c10.9-3.526,17.947-11.779,21.747-20.312-7.333,7.1-16.972,12.609-28.163,13.289a35.458,35.458,0,0,1-19.709-4.688c-2.84-1.535-5.752-3.224-8.976-3.412-3.13-.182-6.608,1.606-7.278,4.631a22.39,22.39,0,0,0,4.616,5.15C1085.836,2805.648,1103.007,2807.313,1114.4,2803.623Z" transform="translate(-1030.143 -2619.292)" fill="#ff9ac9"/>
    <path id="패스_976" data-name="패스 976" d="M1083.485,2705.027a12.577,12.577,0,0,1-5.514,6.65c-5.013,2.834-11.347,2.144-15.348,6.6-8.631,8.608-1.5,21.607,7.754,26.38,16.4,9.188,41.747,2.981,51.962-12.915a39.492,39.492,0,0,0,5.893-15.9,36.323,36.323,0,0,1-4.472,16.764c-10.648,19.309-41.292,26.155-58.775,12.346-8.7-6.561-12.99-20.173-3.871-28.25,7.048-6.685,17.354-1.619,22.37-11.675Z" transform="translate(-1018.898 -2564.246)" fill="#2b2523"/>
    <path id="패스_977" data-name="패스 977" d="M1358.316,2667.124a14.615,14.615,0,0,0-13.074-10.437c-3.648-.2-7.313.931-10.941.518a12.649,12.649,0,0,1-8.106-4.269l-30.58,24.059c3.714,11.023,16.76,20.771,28.719,21.4s24.425-4.872,30.891-14.725C1358.272,2679.022,1359.714,2672.42,1358.316,2667.124Z" transform="translate(-1187.363 -2527.618)" fill="#ffdc00"/>
    <path id="패스_978" data-name="패스 978" d="M1408.583,2720.594a22.793,22.793,0,0,0,3.216-8.055,9.876,9.876,0,0,0-.562-4.252c-.623-1.444-1.748-2.9-3.353-2.833a6.292,6.292,0,0,0-4.347,2.553c-3.2,3.794-3.355,5.951-5.393,9.219a37.121,37.121,0,0,1-26.646,16.991,27.2,27.2,0,0,0,6.193,1.1C1389.651,2735.946,1402.118,2730.449,1408.583,2720.594Z" transform="translate(-1240.722 -2564.545)" fill="#ff9ac9"/>
    <path id="패스_979" data-name="패스 979" d="M1326.195,2652.934c3.907,4.134,9.487,4.254,14.732,3.134,7.113-1.574,14.994,1.909,18.039,8.691,2.834,6.732,1.147,14.778-2.944,20.616-4.824,7-12.6,11.632-20.759,13.548a33.312,33.312,0,0,1-16.652-.15c-10.448-3.13-19.883-11.247-23-21.777,4.293,9.671,13.623,16.7,23.662,19.244a32.046,32.046,0,0,0,15.237-.405c9.681-2.484,19.2-9.111,22.031-19.064,1.338-4.706,1.235-10.11-1.993-14.009-3.143-4.045-8.428-5.727-13.448-5.062-5.453.693-11.412.059-14.91-4.765Z" transform="translate(-1187.363 -2527.617)" fill="#2b2523"/>
    <path id="패스_980" data-name="패스 980" d="M1174.231,2461.116h0a1.277,1.277,0,0,0,.07-1.72c-1.9-2.164-3.849-2.788-5.326-1.951-2.107,1.2-2.447,4.9.049,9.884s5.57,6.748,7.676,5.554c1.976-1.122,2.391-4.445.383-8.961a1.134,1.134,0,0,0-1.017-.686l-1.087-.027A1.212,1.212,0,0,1,1174.231,2461.116Z" transform="translate(-1097.118 -2389.905)" fill="#2b2523"/>
    <path id="패스_981" data-name="패스 981" d="M1229.273,2436.286h0a1.281,1.281,0,0,0,.071-1.72c-1.9-2.164-3.851-2.788-5.328-1.948-2.1,1.193-2.446,4.9.05,9.882s5.57,6.747,7.676,5.552c1.974-1.121,2.391-4.444.382-8.961a1.142,1.142,0,0,0-1.016-.686l-1.088-.025A1.212,1.212,0,0,1,1229.273,2436.286Z" transform="translate(-1135.821 -2372.446)" fill="#2b2523"/>
    <g id="그룹_318" data-name="그룹 318" transform="translate(11.616 119.816)">
      <path id="패스_982" data-name="패스 982" d="M972.931,2642.207l5.33-4.957a1.691,1.691,0,0,0,0-2.372,1.715,1.715,0,0,0-2.375,0l-5.329,4.956a1.691,1.691,0,0,0,0,2.373,1.713,1.713,0,0,0,2.374,0Z" transform="translate(-970.071 -2634.4)" fill="#2b2523"/>
      <path id="패스_983" data-name="패스 983" d="M990.888,2658.233l6.927-6.692a1.694,1.694,0,0,0,0-2.374,1.714,1.714,0,0,0-2.374,0q-3.464,3.346-6.928,6.689a1.68,1.68,0,0,0,2.375,2.377Z" transform="translate(-982.698 -2644.448)" fill="#2b2523"/>
      <path id="패스_984" data-name="패스 984" d="M1012.513,2674.061l7.947-7.869a1.679,1.679,0,1,0-2.375-2.373q-3.973,3.935-7.947,7.866a1.68,1.68,0,0,0,2.375,2.376Z" transform="translate(-997.905 -2654.749)" fill="#2b2523"/>
      <path id="패스_985" data-name="패스 985" d="M1037.31,2687.205q4.048-3.984,8.046-8.021a1.68,1.68,0,0,0-2.375-2.376q-4,4.039-8.045,8.022a1.679,1.679,0,0,0,2.375,2.374Z" transform="translate(-1015.34 -2663.884)" fill="#2b2523"/>
      <path id="패스_986" data-name="패스 986" d="M1064.017,2699.844q3.608-3.552,7.172-7.149a1.679,1.679,0,0,0-2.374-2.376q-3.563,3.6-7.172,7.151a1.679,1.679,0,0,0,2.374,2.374Z" transform="translate(-1034.119 -2673.384)" fill="#2b2523"/>
    </g>
    <g id="그룹_319" data-name="그룹 319" transform="translate(48.345 161.652)">
      <path id="패스_987" data-name="패스 987" d="M1096.664,2783.149q2.665-2.479,5.329-4.957a1.7,1.7,0,0,0,0-2.376,1.718,1.718,0,0,0-2.375,0q-2.664,2.481-5.328,4.959a1.692,1.692,0,0,0,0,2.374,1.715,1.715,0,0,0,2.374,0Z" transform="translate(-1093.804 -2775.34)" fill="#2b2523"/>
      <path id="패스_988" data-name="패스 988" d="M1114.62,2799.175q3.464-3.35,6.928-6.693a1.7,1.7,0,0,0,0-2.373,1.713,1.713,0,0,0-2.375,0q-3.463,3.347-6.927,6.691a1.679,1.679,0,0,0,2.374,2.375Z" transform="translate(-1106.43 -2785.389)" fill="#2b2523"/>
      <path id="패스_989" data-name="패스 989" d="M1143.147,2807.407q3.974-3.932,7.948-7.867a1.678,1.678,0,1,0-2.374-2.373q-3.975,3.935-7.949,7.867a1.679,1.679,0,0,0,2.375,2.373Z" transform="translate(-1126.49 -2790.352)" fill="#2b2523"/>
      <path id="패스_990" data-name="패스 990" d="M1179.414,2812.208q3.479-3.425,6.915-6.893a1.679,1.679,0,1,0-2.375-2.375q-3.436,3.469-6.915,6.892a1.68,1.68,0,0,0,2.375,2.376Z" transform="translate(-1151.992 -2794.41)" fill="#2b2523"/>
    </g>
    <path id="패스_991" data-name="패스 991" d="M1128.5,2255.173c-12.31-.77-18.172-.557-20.915-4.973-2.146-3.45-.234-9.605,14.138-14.565-18.6-8.687-44.275,2.329-52.6,8.346-9.509,6.876-14.541,14.913-16.275,24.63-1.479,8.28,1.107,19.11,10.248,23.031,6.537,2.8,15.638.507,22.388-1.537,9.908-3,31-11.952,42.568-8.637a22.42,22.42,0,0,1,9.771,5.034c4.742,4.206,7.145,11.22,6.468,19.6a34.775,34.775,0,0,0,11.792-19.491C1157.844,2278.35,1154.9,2256.823,1128.5,2255.173Z" transform="translate(-1016.388 -2231.929)" fill="#ffdc00"/>
    <path id="패스_992" data-name="패스 992" d="M1118.018,2234.471c-16.633-6.423-35.4-.5-50.038,8.115-7.127,4.742-13.188,11.411-15.857,19.47-3.457,9.223-2.133,22.462,7.833,26.842,5.858,2.328,12.351.873,18.412-.677,12.763-3.6,25.205-9.354,38.7-9.975a33.859,33.859,0,0,1,3.465.108c8.039.712,16.175,5.415,19.1,13.2a27.923,27.923,0,0,1,1.609,13.429l-1.094-.555a35.366,35.366,0,0,0,12.226-18.99,34.869,34.869,0,0,1-11.358,19.993.662.662,0,0,1-1.1-.556,31.045,31.045,0,0,0-.3-6.454c-1.066-8.9-7.487-15.373-16.22-17.019l-1.5-.3-2.338-.178c-.479.007-1.878.036-2.38.044-8.631.6-17.057,3.451-25.256,6.256-12.028,3.849-28.757,11.629-39.2.481-6.525-7.309-6.719-17.918-3.46-26.658,4.593-13.168,16.869-21.9,29.645-26.181,12.413-4.342,26.908-6.347,39.11-.4Z" transform="translate(-1012.684 -2230.762)" fill="#2b2523"/>
  </g>
</svg>
