<svg id="그룹_626" data-name="그룹 626" xmlns="http://www.w3.org/2000/svg" xmlns:xlink="http://www.w3.org/1999/xlink" width="200" height="54.777" viewBox="0 0 200 54.777">
  <defs>
    <linearGradient id="linear-gradient" x1="-5.483" y1="1.981" x2="1.438" y2="-0.613" gradientUnits="objectBoundingBox">
      <stop offset="0.23" stop-color="#009ee2"/>
      <stop offset="0.43" stop-color="#ffec00"/>
      <stop offset="0.642" stop-color="#ffec00"/>
      <stop offset="0.799" stop-color="#e6333f"/>
    </linearGradient>
    <linearGradient id="linear-gradient-2" x1="-2.837" y1="1.725" x2="2.954" y2="-0.641" xlink:href="#linear-gradient"/>
    <linearGradient id="linear-gradient-3" x1="-5.26" y1="2.01" x2="2.644" y2="-0.742" xlink:href="#linear-gradient"/>
    <linearGradient id="linear-gradient-4" x1="-2.109" y1="1.597" x2="4.711" y2="-0.708" xlink:href="#linear-gradient"/>
    <linearGradient id="linear-gradient-5" x1="-0.639" y1="1.527" x2="4.321" y2="-0.796" xlink:href="#linear-gradient"/>
    <linearGradient id="linear-gradient-6" x1="-7.249" y1="2.688" x2="0.451" y2="-0.975" xlink:href="#linear-gradient"/>
    <linearGradient id="linear-gradient-7" x1="-16.101" y1="5.489" x2="1.86" y2="-3.219" xlink:href="#linear-gradient"/>
    <linearGradient id="linear-gradient-8" x1="2.148" y1="-4.058" x2="7.047" y2="-6.359" xlink:href="#linear-gradient"/>
  </defs>
  <path id="패스_1510" data-name="패스 1510" d="M1024.706,177.184c-1.892-2.088-7.374-3.217-11.643-3.8-7.427-1.006-9.969.344-11.234,1.445a5.653,5.653,0,0,0-1.8,4.381c-.049,2.895.791,4.131,3.022,4.418s3.133-.875,3.5-1.9c.07-.195.135-.444.205-.718.349-1.362.7-2.385,1.805-2.151a.824.824,0,0,1,.6.47c.464.976-.239,3.184-1.14,4.937-.424.824-1.085,1.986-1.851,3.33-1.516,2.664-3.4,5.976-4.833,9.074-.894,1.933-1.087,3.5-.594,4.8a5.823,5.823,0,0,0,3.411,2.976,19.825,19.825,0,0,0,2.331.853,20.885,20.885,0,0,0,6.911.772c2.7-.12,4.53-.794,5.59-2.058.968-1.155,1.3-2.792,1-5a47.9,47.9,0,0,0-1.214-5.917,63.688,63.688,0,0,1-1.374-6.515l-.1-.664c-.59-3.813-.887-5.727-.093-6.069a.562.562,0,0,1,.53.009c.3.167.846.8,1.181,3.14.351,2.455,2.565,3.031,3.856,3.155a2.888,2.888,0,0,0,3.39-2.7C1026.495,180.722,1026,178.61,1024.706,177.184Z" transform="translate(-851.613 -173.035)" fill="url(#linear-gradient)"/>
  <path id="패스_1511" data-name="패스 1511" d="M968.013,199.117a49.724,49.724,0,0,1-2.9-4.645c-1.7-3.137-1.6-4.069-1.358-6.322l.075-.711a26.445,26.445,0,0,1,.567-3.279,12.37,12.37,0,0,0,.423-3.035,1.526,1.526,0,0,0-.818-1.263c-1.37-.848-4.521-.871-7.884.717-2.025.955-3.144,2.024-3.328,3.178a2.448,2.448,0,0,0,.814,2.108l.1.1a21.379,21.379,0,0,1,4.064,4.883c2.154,3.694,1.578,4.6,1.349,4.789a.22.22,0,0,1-.2.062c-.306-.051-.974-.636-2.361-3.068a34.519,34.519,0,0,0-5.013-7.162c-2.728-3.108-5.805-2.195-8.457-.9-2.758,1.353-3.986,2.705-3.98,4.385,0,1.212.952,2.458,2.983,3.92,1.314.943,2.171,2.505,2.7,4.915.287,1.316-.112,4.263-.464,6.863-.165,1.217-.32,2.365-.4,3.3-.338,3.891,1.077,6.33,4.212,7.252l.17.049c3.862,1.048,7.768-.792,9.1-2.524,1.62-2.1.436-4.005-.27-5.144-.162-.258-.4-.653-.7-1.141-1.1-1.808-2.954-4.832-4.29-6.81-1.484-2.194-2-3.509-1.671-4.268a.592.592,0,0,1,.439-.39,1.36,1.36,0,0,1,1.07.64A64.064,64.064,0,0,1,956.4,203.1c.375.727.7,1.434,1,2.118,1.024,2.268,1.906,4.228,4.141,5.093a7.274,7.274,0,0,0,7.035-1.407c2.687-2.294,2.032-5.228,1.009-7.285A22.821,22.821,0,0,0,968.013,199.117Z" transform="translate(-844.411 -173.774)" fill="url(#linear-gradient-2)"/>
  <path id="패스_1512" data-name="패스 1512" d="M981.71,174.829c-5.321,1.172-8.527,7.15-8.576,15.988-.031,5.6,1.452,9.9,4.29,12.431a9.569,9.569,0,0,0,3.708,2.05,13.319,13.319,0,0,0,5.363.344,10.081,10.081,0,0,0,8.132-6.255,22.034,22.034,0,0,0,.646-14.057C992.856,175.9,986.456,173.78,981.71,174.829Zm1.383,4.534a1.635,1.635,0,0,1,.9,0,2.632,2.632,0,0,1,1.59,1.976,5.235,5.235,0,0,1-.268,3.887,1.6,1.6,0,0,1-1.134.762,1.807,1.807,0,0,1-1.478-.364,3.514,3.514,0,0,1-1.022-2.6C981.579,181.025,982.123,179.62,983.092,179.363Z" transform="translate(-848.433 -173.218)" fill="url(#linear-gradient-3)"/>
  <path id="패스_1513" data-name="패스 1513" d="M929.193,211.142c-3.067-3.036-5.247-5.374-5.38-7.818a6.233,6.233,0,0,1,1.036-3.709c.3-.587.65-1.25,1.033-2.116,1.349-3.058.867-4.714.307-6.026-.567-1.331-2.389-2.59-5.65-1.763a3.635,3.635,0,0,0-2.492,1.6,3.56,3.56,0,0,0-.075,2.707c.054.194.118.4.184.608a5.145,5.145,0,0,1,.311,3.2,1.208,1.208,0,0,1-.891.906,1.532,1.532,0,0,1-1.3-.527,11.091,11.091,0,0,1-1.36-3.606c-.092-.344-.181-.679-.271-.989a2.687,2.687,0,0,0-1.382-1.687,4.863,4.863,0,0,0-4.077.177,4.388,4.388,0,0,0-2.669,2.371,3.953,3.953,0,0,0,.279,2.964,9.487,9.487,0,0,0,4.3,4.475c1.894,1.078,3.154,2.062,3.581,3.638.442,1.628-.31,3.887-1.106,6.279-.419,1.257-.85,2.558-1.166,3.893-.664,2.832-.487,5.118.53,6.793a6.157,6.157,0,0,0,3.13,2.265,9.3,9.3,0,0,0,1.365.436c5.184,1.244,10.276-.733,12.181-2.588a7.458,7.458,0,0,0,2.588-5.507A8.766,8.766,0,0,0,929.193,211.142Z" transform="translate(-840.536 -174.975)" fill="url(#linear-gradient-4)"/>
  <path id="패스_1514" data-name="패스 1514" d="M904.013,217.042l-.121-.184c-.292-.455-.677-.985-1.121-1.6a43.315,43.315,0,0,1-4.524-7.4,11.856,11.856,0,0,1-.289-8.492c.13-.5.241-.936.3-1.316q.586-3.546-1.751-4.156a9.826,9.826,0,0,0-6.469.495,3.243,3.243,0,0,0-1.848,1.71,2.543,2.543,0,0,0,.208,2l.041.083c.346.718,1.264,2.622,1.012,3.355-.175.51-.626.864-2.331,1.062-1.834.212-2.255-.206-2.437-.687a6.327,6.327,0,0,1,.081-2.959l.051-.339c.309-2.091-1.435-2.577-2.373-2.834a11.384,11.384,0,0,0-5.9-.026c-2.761.7-2.275,2.7-1.984,3.892h0c.07.291.184.687.32,1.158.554,1.928,1.484,5.154,1.293,7.617-.185,2.389-2.213,5.818-3.693,8.322-.4.677-.758,1.28-1.02,1.768l-.2.359c-1.259,2.308-3.365,6.171-.121,8.8a10.5,10.5,0,0,0,3.192,1.717,16.35,16.35,0,0,0,8.771.451c3.539-.973,3.868-4.12,3.807-6.4a50.849,50.849,0,0,0-1.263-7.974l-.115-.536c-.474-2.242-.907-5.06-.016-6.958a2.318,2.318,0,0,1,1.582-1.4,1.786,1.786,0,0,1,1.582.531c.675.646,1.221,2.56.921,5.378-.048.445-.1.915-.155,1.4a92.129,92.129,0,0,0-.7,9.274c-.037,3.648,1.682,5.433,5.573,5.8a13.05,13.05,0,0,0,9.565-3.362C907.367,222.209,905.186,218.848,904.013,217.042Z" transform="translate(-836.17 -175.462)" fill="url(#linear-gradient-5)"/>
  <path id="패스_1515" data-name="패스 1515" d="M1054.938,187.622c-.71-2.265-2.645-5.51-7.82-8.1-6.776-3.395-12.255-.063-14.889,3.835a3.073,3.073,0,0,0-.328.748,3.341,3.341,0,0,0,.614,2.888,5.85,5.85,0,0,0,2.568,2.1,2.235,2.235,0,0,0,2.974-.955c.317-.5.615-1.034.9-1.555.252-.455.5-.912.772-1.346a1.41,1.41,0,0,1,.933-.671,2.652,2.652,0,0,1,1.961.529,2.78,2.78,0,0,1,1.286,2.043,1.158,1.158,0,0,1-.45.986c-.447.344-1.424.973-3.311,2.168-2.116,1.339-3.155,2.326-3.834,3.642-1.4,2.718-.647,5.175,2.016,6.575a11.112,11.112,0,0,0,1.968.837,2.838,2.838,0,0,0,2.335-.1,4.268,4.268,0,0,0,1.136-1.479,3.129,3.129,0,0,1,1.125-1.311,4.694,4.694,0,0,1,2.3-.593c.793-.037,1.583-.064,2.361-.089l.134-.005a5.619,5.619,0,0,0,4.65-3.3A8.739,8.739,0,0,0,1054.938,187.622Z" transform="translate(-855.368 -173.636)" fill="url(#linear-gradient-6)"/>
  <path id="패스_1516" data-name="패스 1516" d="M1037.156,204.51a4.777,4.777,0,0,0-6.465,1.9,4.658,4.658,0,0,0-.191,4.6,5.579,5.579,0,0,0,3.364,2.582,4.836,4.836,0,0,0,2.073.171,5.335,5.335,0,0,0,3.959-3.742A4.543,4.543,0,0,0,1037.156,204.51Z" transform="translate(-855.154 -176.692)" fill="url(#linear-gradient-7)"/>
  <path id="패스_1517" data-name="패스 1517" d="M850.575,193.188c3.336.436,3.924,2.042,3.258,4.589a21.5,21.5,0,0,0-.748,4.314c-.143,2.629,1.479,3.048,2.378,2.746,1.378-.463,1.776-3.25,1.877-4.738s-.476-4.4,2.012-5.314,7.233.962,7.87,2.392c.871,1.959-.359,2.788-1.718,5.33-2.011,3.76-4.537,9.133-4.3,14.785.1,2.45,1.368,4.476.17,7.229s-3.748,3.129-6.626,2.756c-3.783-.488-7.149-2.382-5.894-7.1,1.563-5.87,2.274-10.254-.456-10.472-2.477-.2-2.557,4.31-2.257,10.047.156,2.982-1,5.548-5.362,5.833-3.806.249-6.612-.9-7.831-2.583-1.321-1.815-.119-4.243.739-6.784a24.091,24.091,0,0,0,.453-10.6,52.3,52.3,0,0,0-1.51-7.27c-.494-1.719-1.392-2.8-.6-4.594s3.453-2.693,6.429-2.27c3.18.452,4.278,1.389,3.911,3.516a16.272,16.272,0,0,0-.059,6.984c.266,1.116,1.031,1.833,1.962,1.709.76-.1,1.33-.8,1.569-2a19.369,19.369,0,0,0,.354-5.1C846.081,194.583,847.075,192.731,850.575,193.188Z" transform="translate(-831.711 -175.204)" fill="url(#linear-gradient-8)"/>
</svg>
