<svg id="그룹_254" data-name="그룹 254" xmlns="http://www.w3.org/2000/svg" width="199.999" height="198.969" viewBox="0 0 199.999 198.969">
  <path id="패스_777" data-name="패스 777" d="M3442.555,97.041s1.066-29.252,30.011-26.024c32.667,3.644,29,45.55,28.037,54.476,0,0,6.459-47.924,42.293-42.545,31.682,4.756,22.932,34.763,22.932,34.763s30.295-1.217,25.623,29.733-41.638,26.912-41.638,26.912,39.179,10.676,31.57,39.768-30.31,19.23-30.31,19.23.869,35.132-30.583,30.384-32.265-56.472-32.265-56.472-13.278,49.6-46.618,44.562-24.962-35.81-22.456-38.778c0,0-25.762-.673-21.414-29.483s39.852-26.154,39.852-26.154-34.419-9.829-29.9-39.772S3442.555,97.041,3442.555,97.041Z" transform="translate(-3394.657 -67.989)" fill="#00b451"/>
  <g id="그룹_251" data-name="그룹 251" transform="translate(0 0)">
    <path id="패스_778" data-name="패스 778" d="M3551.216,90.37c-1.687-32.012,38.049-38.653,53.778-14.49,7.568,12.929,7.411,28.95,4.271,42.941-.041-24.772-6.038-55.169-37.188-51.822-11.566,1.468-18.548,11.722-20.861,23.371Z" transform="translate(-3503.321 -61.319)" fill="#1226aa"/>
    <path id="패스_779" data-name="패스 779" d="M3412.943,416.408c-23.832,1.463-30.44-26.145-19.094-43.234,11.576-15.968,36.173-18.021,52.593-9.078-16.1-4-37.71-1.672-47.876,12.311-4.665,6.691-5.833,16.255-4.263,24.123,1.92,8.712,10.048,14.2,18.64,15.879Z" transform="translate(-3388.448 -271.347)" fill="#1226aa"/>
    <path id="패스_780" data-name="패스 780" d="M3769.127,561.082c3.055,25.688-17.941,41.388-41.389,29.645-18.5-11.272-22.545-35.881-21.459-55.733,3.393,18.192,7.721,40.627,24.252,50.742,21.447,10.284,36.15-2.609,38.6-24.654Z" transform="translate(-3612.712 -395.718)" fill="#1226aa"/>
    <path id="패스_781" data-name="패스 781" d="M3903.607,229.763c25.373-3.1,34.984,20.707,24.873,41.374-8.791,17.363-37.621,22.587-52.771,11.527,15.074,6.151,40.031.784,47.707-14.188,8.686-18.476,2.6-36.334-19.809-38.714Z" transform="translate(-3732.438 -180.041)" fill="#1226aa"/>
  </g>
  <g id="그룹_253" data-name="그룹 253" transform="translate(71.716 70.319)">
    <g id="그룹_252" data-name="그룹 252">
      <path id="패스_782" data-name="패스 782" d="M3690.979,307.189h0a1.442,1.442,0,0,0,1.135-1.569c-.428-3.208-1.871-5.009-3.777-5.143-2.717-.191-5.34,3.065-6.107,9.291s1.02,9.791,3.736,9.982c2.547.179,5.008-2.676,5.939-8.159a1.29,1.29,0,0,0-.527-1.276l-1-.7A1.362,1.362,0,0,1,3690.979,307.189Z" transform="translate(-3667.438 -300.47)" fill="#1226aa"/>
      <path id="패스_783" data-name="패스 783" d="M3689.293,386.292a12.413,12.413,0,0,1-4.535-1.891,10.608,10.608,0,0,1-3.127-3.533,2.314,2.314,0,0,0-4.182,1.853,12.174,12.174,0,0,0,1.449,2.974c-2.906,4.808-11.795,16.517-27.721,12.624-14.008-3.425-14.445-15.183-13.447-22.251a2.521,2.521,0,0,0-2.951-2.806,2.78,2.78,0,0,0-2.418,2.878,28.1,28.1,0,0,0,8.945,18.6,28.85,28.85,0,0,0,25.166,7.521c6.867-1.222,14.643-6.785,18.432-11.808a17.351,17.351,0,0,0,2.908.888,2.4,2.4,0,0,0,2.633-1.315l.35-.742A2.1,2.1,0,0,0,3689.293,386.292Z" transform="translate(-3632.355 -351.839)" fill="#1226aa"/>
      <path id="패스_784" data-name="패스 784" d="M3756.648,320.994h0a1.445,1.445,0,0,0,1.137-1.569c-.432-3.209-1.873-5.009-3.779-5.143-2.721-.191-5.342,3.065-6.109,9.291s1.021,9.791,3.742,9.982c2.543.179,5-2.676,5.934-8.158a1.282,1.282,0,0,0-.525-1.276l-1-.7A1.362,1.362,0,0,1,3756.648,320.994Z" transform="translate(-3713.799 -310.216)" fill="#1226aa"/>
    </g>
    <path id="패스_785" data-name="패스 785" d="M3698.778,380.294a5.328,5.328,0,0,1,2.859-8.46c3.664-1.122,7.572,2.1,6.7,5.8a18.146,18.146,0,0,0-3.611-.624c-2.689.243-3.545,1.339-5.947,3.287Z" transform="translate(-3678.434 -350.692)" fill="#1226aa"/>
  </g>
</svg>
