<svg xmlns="http://www.w3.org/2000/svg" width="170.409" height="200" viewBox="0 0 170.409 200">
  <g id="그룹_753" data-name="그룹 753" transform="translate(0)">
    <path id="패스_786" data-name="패스 786" d="M5125.424,87.737a22.572,22.572,0,0,1-3.662,11.37c-11.268,18.1-35.76,43.366-16.559,92.766,21.828,56.157,55.672,57.444,65.73,59.291,8.582,1.575,12,6.029,15.463,9.384,4.578,4.431,9.654,7.039,19.3,2.646,9.537-4.343,10.641-12.032,11.445-17.982.768-5.725,2.229-7.513,9.432-14.4,8.836-8.453,35.588-41.9,18.074-88.128s-46.057-58.854-64.908-60.943c-15.348-1.7-19.135-3.607-23.477-8.9-3.5-4.278-10.193-9.169-18.877-5.592C5129.629,70.437,5125.969,75.533,5125.424,87.737Z" transform="translate(-5098.084 -66.006)" fill="#ffda00"/>
    <path id="패스_787" data-name="패스 787" d="M5379.508,297.757c7.748,8.226,20.93,3.1,25.895-4.533,4.162-6.606,1.5-16.506,8.068-22.085,35.043-33.242,33.645-79.037,8.137-117.639-11.07-17.2-28.117-31.068-48.758-34.552,21.328,1.03,40.613,14.682,52.621,31.895,26.592,36.615,30.008,84.276-3.221,117.9-3.734,3.709-8.133,6.885-9.467,10.965-1.25,4.68-1.615,10.921-4.953,15.155-6.648,8.528-21.057,12.192-28.322,2.895Z" transform="translate(-5291.197 -103.215)" fill="#1226aa"/>
    <g id="그룹_256" data-name="그룹 256" transform="translate(35.035 70.178)">
      <g id="그룹_255" data-name="그룹 255">
        <path id="패스_788" data-name="패스 788" d="M5236.809,336.968h0a1.749,1.749,0,0,0,.115-2.348c-2.568-2.975-5.229-3.847-7.254-2.717-2.887,1.611-3.391,6.662-.033,13.5s7.537,9.272,10.424,7.661c2.707-1.509,3.311-6.044.615-12.232a1.563,1.563,0,0,0-1.383-.947l-1.486-.046A1.656,1.656,0,0,1,5236.809,336.968Z" transform="translate(-5223.942 -322.729)" fill="#1226aa"/>
        <path id="패스_789" data-name="패스 789" d="M5281.205,368.578a15.071,15.071,0,0,1-5.865,1.091,12.893,12.893,0,0,1-5.52-1.514,2.81,2.81,0,0,0-3.02,4.661,14.929,14.929,0,0,0,3.445,2.06c.244,6.814-1.01,24.614-19.779,31.234-16.506,5.821-24.756-5.833-28.437-13.678a3.065,3.065,0,0,0-4.867-.889,3.377,3.377,0,0,0-.543,4.531,34.11,34.11,0,0,0,21.447,12.959,35.01,35.01,0,0,0,30.563-9.07c6.16-5.8,10.373-16.621,10.885-24.24a20.963,20.963,0,0,0,3.545-1.029,2.919,2.919,0,0,0,1.8-3.084l-.137-.986A2.559,2.559,0,0,0,5281.205,368.578Z" transform="translate(-5215.98 -348.341)" fill="#1226aa"/>
        <path id="패스_790" data-name="패스 790" d="M5311.891,307.7h0a1.743,1.743,0,0,0,.117-2.348c-2.568-2.975-5.23-3.846-7.254-2.717-2.887,1.611-3.391,6.661-.031,13.5s7.533,9.272,10.422,7.662c2.707-1.511,3.309-6.044.615-12.233a1.559,1.559,0,0,0-1.383-.947l-1.482-.046A1.656,1.656,0,0,1,5311.891,307.7Z" transform="translate(-5276.714 -302.157)" fill="#1226aa"/>
      </g>
      <path id="패스_791" data-name="패스 791" d="M5290.1,406.127a6.42,6.42,0,0,1-2.361-10.185c2.814-3.388,8.563-2.793,10.3,1.13a23.178,23.178,0,0,0-4.1,1.4c-2.986,1.773-2.947,4.095-3.84,7.652Z" transform="translate(-5265.277 -366.515)" fill="#1226aa"/>
    </g>
    <g id="그룹_257" data-name="그룹 257" transform="translate(54.192 7.835)">
      <path id="패스_792" data-name="패스 792" d="M5288.668,92.746a2.908,2.908,0,0,0-4.246,1.881c-2.41,10.266-4.437,36.5,34.826,44.06,36.314,6.995,63.484,13.351,73.857,33.143a2.505,2.505,0,0,0,4.68-.662c1.615-7.909,2.086-22.43-7.918-41.821-14.73-28.547-45.951-34.289-64.549-33.87C5309.066,95.845,5296.328,97.13,5288.668,92.746Z" transform="translate(-5282.463 -92.371)" fill="#00b451"/>
      <path id="패스_793" data-name="패스 793" d="M5282.4,99.963c-4.268,31.97,22.016,39.78,47.953,43.6,19.977,4.615,43.219,9.155,56.943,26.053a43.3,43.3,0,0,1,3.8,6.349c.9,2.744,3.689,3.051,4.668.535a2.743,2.743,0,0,1-4,2.037c-1.4-.879-2.127-2.7-3.123-3.888-.916-1.269-2.062-2.368-3.064-3.545-15.291-14.1-36.7-17.158-56.447-21.656-27.463-4.1-56.588-15.92-46.732-49.488Z" transform="translate(-5280.44 -97.707)" fill="#1226aa"/>
    </g>
  </g>
</svg>
